# Blender 5.0.1
# www.blender.org
mtllib Nature_ForFamilyGame_RAID.mtl
o Cylinder
v -0.000000 2.366493 -0.216672
v -0.000000 6.761821 -0.154889
v 0.119580 2.366493 -0.192886
v 0.095548 6.761821 -0.135883
v 0.220954 2.366493 -0.125150
v 0.176550 6.761821 -0.081759
v 0.288691 2.366493 -0.023775
v 0.230674 6.761821 -0.000757
v 0.249680 6.761821 0.094791
v 0.288691 2.366493 0.215384
v 0.230674 6.761821 0.190339
v 0.220954 2.366493 0.316758
v 0.176550 6.761821 0.271341
v 0.119580 2.366493 0.384495
v 0.095548 6.761821 0.325465
v -0.000000 2.366493 0.408281
v -0.000000 6.761821 0.344471
v -0.119580 2.366493 0.384495
v -0.095548 6.761821 0.325465
v -0.220954 2.366493 0.316758
v -0.176550 6.761821 0.271341
v -0.288691 2.366493 0.215384
v -0.230674 6.761821 0.190339
v -0.312476 2.366493 0.095804
v -0.249680 6.761821 0.094791
v -0.288691 2.366493 -0.023775
v -0.230674 6.761821 -0.000757
v -0.220954 2.366493 -0.125150
v -0.176550 6.761821 -0.081759
v -0.119580 2.366493 -0.192886
v -0.095548 6.761821 -0.135883
v -0.000000 7.071937 -0.023896
v 0.045419 7.071937 -0.014861
v 0.083924 7.071937 0.010867
v 0.109652 7.071937 0.049372
v 0.118686 7.071937 0.094791
v 0.109652 7.071937 0.140210
v 0.083924 7.071937 0.178715
v 0.045419 7.071937 0.204443
v -0.000000 7.071937 0.213477
v -0.045419 7.071937 0.204443
v -0.083924 7.071937 0.178715
v -0.109652 7.071937 0.140210
v -0.118687 7.071937 0.094791
v -0.109652 7.071937 0.049372
v -0.083924 7.071937 0.010867
v -0.045419 7.071937 -0.014861
v 0.000000 3.356910 0.168660
v 0.000000 3.581107 0.488845
v 0.074790 3.344724 0.177193
v 0.074790 3.568920 0.497378
v 0.138195 3.310021 0.201493
v 0.138195 3.534217 0.521678
v 0.180560 3.258083 0.237860
v 0.180560 3.482279 0.558045
v 0.180560 3.135553 0.323656
v 0.180560 3.359749 0.643841
v 0.138195 3.083616 0.360023
v 0.138195 3.277408 0.705545
v 0.074790 3.048912 0.384323
v 0.074790 3.242704 0.729844
v 0.000000 3.036726 0.392856
v 0.000000 3.230518 0.738377
v -0.074790 3.048912 0.384323
v -0.074790 3.242704 0.729844
v -0.138195 3.083616 0.360023
v -0.138195 3.277408 0.705545
v -0.180560 3.135553 0.323656
v -0.180560 3.359749 0.643841
v -0.195437 3.196818 0.280758
v -0.195437 3.421014 0.600943
v -0.180560 3.258083 0.237860
v -0.180560 3.482279 0.558045
v -0.138195 3.310021 0.201493
v -0.138195 3.534217 0.521678
v -0.074790 3.344724 0.177193
v -0.074790 3.568920 0.497378
v 0.092768 3.685694 0.658653
v 0.000000 3.688899 0.640481
v 0.171412 3.676569 0.710403
v 0.223961 3.662913 0.772651
v 0.223961 3.630695 0.955367
v 0.171412 3.617039 1.032817
v 0.092768 3.607914 1.084567
v 0.000000 3.604710 1.102739
v -0.092767 3.607914 1.084567
v -0.171412 3.617039 1.032817
v -0.223961 3.630695 0.955367
v -0.242413 3.646804 0.864009
v -0.223961 3.662913 0.772651
v -0.171412 3.676569 0.710403
v -0.092767 3.685694 0.658653
v 0.072367 4.691318 0.770037
v -0.000000 4.691318 0.755642
v 0.133717 4.691318 0.811030
v 0.174710 4.691318 0.872380
v 0.174710 4.691318 1.017114
v 0.133717 4.691318 1.078464
v 0.072367 4.691318 1.119457
v -0.000000 4.691318 1.133851
v -0.072367 4.691318 1.119457
v -0.133717 4.691318 1.078464
v -0.174710 4.691318 1.017114
v -0.189105 4.691318 0.944747
v -0.174710 4.691318 0.872380
v -0.133717 4.691318 0.811030
v -0.072367 4.691318 0.770037
v 0.060771 5.268985 0.818301
v -0.000000 5.268985 0.806213
v 0.112291 5.268985 0.852725
v 0.146715 5.268985 0.904244
v 0.146715 5.268985 1.025787
v 0.112291 5.268985 1.077307
v 0.060771 5.268985 1.111731
v -0.000000 5.268985 1.123819
v -0.060772 5.268985 1.111731
v -0.112291 5.268985 1.077307
v -0.146716 5.268985 1.025787
v -0.158804 5.268985 0.965016
v -0.146716 5.268985 0.904244
v -0.112291 5.268985 0.852725
v -0.060772 5.268985 0.818301
v 0.001697 4.141381 0.026609
v -0.066047 4.130349 0.019239
v -0.123558 4.098934 -0.002458
v -0.162081 4.051917 -0.035178
v -0.175751 3.996457 -0.073940
v -0.162488 3.940998 -0.112843
v -0.124429 3.866458 -0.168900
v -0.067149 3.835043 -0.191198
v 0.000514 3.824011 -0.199277
v 0.068257 3.835043 -0.191907
v 0.125768 3.866458 -0.170210
v 0.178082 3.996457 -0.075793
v 0.164818 4.051917 -0.036889
v 0.126640 4.098934 -0.003768
v 0.069359 4.130349 0.018530
v -0.083085 4.438885 -0.446792
v 0.000978 4.441787 -0.430781
v -0.154522 4.430625 -0.493265
v -0.202386 4.418262 -0.549365
v -0.219523 4.403680 -0.631978
v -0.203252 4.389097 -0.714766
v -0.156050 4.376735 -0.785126
v -0.085103 4.368474 -0.832345
v -0.001213 4.365574 -0.849235
v 0.082849 4.368474 -0.833224
v 0.154287 4.376735 -0.786751
v 0.219359 4.403680 -0.634276
v 0.203088 4.418262 -0.551488
v 0.155815 4.430625 -0.494890
v 0.084868 4.438885 -0.447671
v -0.065145 5.349224 -0.547717
v 0.000432 5.349224 -0.535030
v -0.120876 5.349224 -0.584535
v -0.158275 5.349224 -0.639877
v -0.171648 5.349224 -0.705318
v -0.158961 5.349224 -0.770895
v -0.122143 5.349224 -0.826626
v -0.066802 5.349224 -0.864025
v -0.001360 5.349224 -0.877398
v 0.064217 5.349224 -0.864710
v 0.119948 5.349224 -0.827893
v 0.170720 5.349224 -0.707110
v 0.158032 5.349224 -0.641533
v 0.121215 5.349224 -0.585802
v 0.065873 5.349224 -0.548404
v -0.054877 5.872156 -0.591462
v 0.000193 5.872156 -0.580808
v -0.101678 5.872155 -0.622380
v -0.133084 5.872156 -0.668854
v -0.144314 5.872156 -0.723810
v -0.133660 5.872156 -0.778879
v -0.102742 5.872156 -0.825680
v -0.056268 5.872155 -0.857086
v -0.001313 5.872156 -0.868317
v 0.053757 5.872155 -0.857662
v 0.100557 5.872156 -0.826744
v 0.143194 5.872156 -0.725315
v 0.132540 5.872156 -0.670245
v 0.101622 5.872155 -0.623445
v 0.055148 5.872156 -0.592039
vn 0.1951 0.0138 -0.9807
vn 0.5555 0.0138 -0.8314
vn 0.8314 0.0139 -0.5555
vn 0.8314 0.0141 0.5555
vn 0.5555 0.0142 0.8314
vn 0.1951 0.0142 0.9807
vn -0.1951 0.0142 0.9807
vn -0.5555 0.0142 0.8314
vn -0.8314 0.0141 0.5555
vn -0.9807 0.0141 0.1951
vn -0.9807 0.0140 -0.1951
vn -0.8314 0.0139 -0.5555
vn -0.7682 0.3827 0.5133
vn -0.5555 0.0138 -0.8314
vn -0.1951 0.0138 -0.9807
vn -0.0000 1.0000 -0.0000
vn -0.1802 0.3827 -0.9061
vn 0.9061 0.3827 -0.1802
vn -0.1802 0.3827 0.9061
vn -0.7682 0.3827 -0.5133
vn 0.5133 0.3827 -0.7682
vn 0.5133 0.3827 0.7682
vn -0.9061 0.3827 0.1802
vn 0.9061 0.3827 0.1802
vn -0.5133 0.3827 0.7682
vn -0.5133 0.3827 -0.7682
vn 0.7682 0.3827 -0.5133
vn 0.1802 0.3827 0.9061
vn 0.1802 0.3827 -0.9061
vn -0.9061 0.3827 -0.1802
vn 0.7682 0.3827 0.5133
vn 0.1951 0.8034 -0.5626
vn 0.5556 0.6811 -0.4769
vn 0.8315 0.4551 -0.3187
vn 0.9913 -0.1140 -0.0657
vn 0.8905 -0.3853 0.2419
vn 0.5537 -0.7263 0.4074
vn 0.1942 -0.8556 0.4799
vn -0.1942 -0.8556 0.4799
vn -0.5537 -0.7263 0.4074
vn -0.8905 -0.3853 0.2419
vn -0.9808 -0.1598 0.1119
vn -0.9808 0.1598 -0.1119
vn -0.8315 0.4551 -0.3187
vn -0.1658 0.7966 -0.5813
vn -0.5556 0.6811 -0.4769
vn -0.1951 0.8034 -0.5626
vn -0.0000 -0.5736 -0.8192
vn -0.5540 0.1026 -0.8262
vn 0.9989 0.0467 0.0046
vn -0.1754 -0.6886 0.7036
vn -0.7780 0.4100 -0.4761
vn 0.5031 0.6578 -0.5606
vn 0.5109 -0.6166 0.5989
vn -0.9593 -0.2700 0.0825
vn -0.5109 -0.6166 0.5989
vn -0.5031 0.6578 -0.5606
vn 0.7780 0.4100 -0.4761
vn 0.1754 -0.6886 0.7036
vn 0.1658 0.7966 -0.5813
vn -0.9749 0.0403 -0.2188
vn 0.8584 -0.4183 0.2969
vn -0.8584 -0.4183 0.2969
vn 0.9999 0.0113 -0.0000
vn 0.1939 -0.0280 0.9806
vn 0.1944 0.1119 -0.9745
vn -0.1944 0.1119 -0.9745
vn -0.1939 -0.0280 0.9806
vn 0.5540 0.1026 -0.8262
vn -0.5529 -0.0162 0.8331
vn 0.7989 0.0923 -0.5944
vn -0.8290 0.0056 0.5592
vn 0.9988 0.0484 -0.0000
vn -0.9792 0.0342 0.1998
vn -0.9796 0.0650 -0.1901
vn 0.8290 0.0056 0.5592
vn -0.7989 0.0923 -0.5944
vn 0.5529 -0.0162 0.8331
vn -0.9791 0.0582 -0.1948
vn 0.8310 0.0319 0.5553
vn -0.8294 0.0708 -0.5542
vn 0.5554 0.0223 0.8313
vn -0.5538 0.0804 -0.8288
vn 0.1951 0.0170 0.9806
vn 0.1944 0.0855 -0.9772
vn -0.1944 0.0855 -0.9772
vn -0.1951 0.0170 0.9806
vn 0.5538 0.0804 -0.8288
vn -0.5554 0.0223 0.8313
vn 0.8294 0.0708 -0.5542
vn -0.8310 0.0319 0.5553
vn -0.9798 0.0446 0.1949
vn 0.1653 0.8222 0.5447
vn 0.5583 0.1026 0.8233
vn -0.9763 0.1319 0.1717
vn 0.1666 -0.7586 -0.6299
vn 0.7676 0.5012 0.3994
vn -0.4858 0.7150 0.5028
vn -0.5020 -0.6751 -0.5406
vn 0.9200 0.0165 -0.3916
vn -0.9673 -0.2325 -0.1009
vn 0.4959 -0.6765 -0.5444
vn 0.4916 0.7131 0.4998
vn -0.7627 0.5046 0.4045
vn -0.1733 -0.7582 -0.6286
vn -0.1595 0.8227 0.5456
vn 0.9782 0.1272 0.1642
vn -0.8581 -0.4272 -0.2851
vn -0.9808 0.0446 -0.1898
vn -0.1991 -0.0280 -0.9796
vn -0.1893 0.1119 0.9755
vn 0.1995 0.1119 0.9735
vn 0.1888 -0.0280 -0.9816
vn -0.5497 0.1026 0.8291
vn 0.5486 -0.0162 -0.8359
vn -0.7957 0.0923 0.5986
vn 0.9213 0.0350 -0.3873
vn -0.9786 0.0650 0.1953
vn -0.9803 0.0342 -0.1947
vn 0.9806 0.0650 0.1850
vn -0.8319 0.0056 -0.5549
vn 0.8020 0.0923 0.5902
vn -0.5573 -0.0162 -0.8302
vn 0.9801 0.0582 0.1896
vn -0.8339 0.0319 -0.5509
vn 0.8323 0.0708 0.5498
vn -0.5598 0.0223 -0.8283
vn 0.5581 0.0804 0.8259
vn -0.2002 0.0170 -0.9796
vn -0.1893 0.0855 0.9782
vn 0.1995 0.0855 0.9762
vn 0.1899 0.0170 -0.9817
vn -0.5494 0.0804 0.8317
vn 0.5511 0.0223 -0.8342
vn -0.8265 0.0708 0.5585
vn 1.0000 -0.0000 -0.0000
vn -0.9781 0.0582 0.1999
vn 0.0052 -0.5804 0.8143
vn 0.9136 -0.3450 -0.2151
vt 1.000000 0.500000
vt 1.000000 1.000000
vt 0.937500 1.000000
vt 0.937500 0.500000
vt 0.875000 1.000000
vt 0.875000 0.500000
vt 0.812500 1.000000
vt 0.812500 0.500000
vt 0.687500 0.500000
vt 0.687500 1.000000
vt 0.625000 1.000000
vt 0.625000 0.500000
vt 0.562500 1.000000
vt 0.562500 0.500000
vt 0.500000 1.000000
vt 0.500000 0.500000
vt 0.437500 1.000000
vt 0.437500 0.500000
vt 0.375000 1.000000
vt 0.375000 0.500000
vt 0.312500 1.000000
vt 0.312500 0.500000
vt 0.250000 1.000000
vt 0.250000 0.500000
vt 0.187500 1.000000
vt 0.187500 0.500000
vt 0.125000 1.000000
vt 0.125000 0.500000
vt 0.062500 1.000000
vt 0.062500 0.500000
vt 0.000000 1.000000
vt 0.000000 0.500000
vt 0.341844 0.471731
vt 0.250000 0.490000
vt 0.158156 0.471731
vt 0.080294 0.419706
vt 0.028269 0.341844
vt 0.010000 0.250000
vt 0.028269 0.158156
vt 0.080294 0.080294
vt 0.158156 0.028269
vt 0.250000 0.010000
vt 0.341844 0.028269
vt 0.419706 0.080294
vt 0.471731 0.158156
vt 0.490000 0.250000
vt 0.471731 0.341844
vt 0.419706 0.419706
vt 0.750000 1.000000
vt 0.750000 0.490000
vt 0.841844 0.471731
vt 0.919706 0.419706
vt 0.971731 0.341844
vt 0.971731 0.158156
vt 0.919706 0.080294
vt 0.841844 0.028269
vt 0.750000 0.010000
vt 0.658156 0.028269
vt 0.580294 0.080294
vt 0.528269 0.158156
vt 0.510000 0.250000
vt 0.528269 0.341844
vt 0.580294 0.419706
vt 0.658156 0.471731
vt 0.080294 0.080294
vt 0.419706 0.080294
s 0
f 1/1/1 2/2/1 4/3/1 3/4/1
f 3/4/2 4/3/2 6/5/2 5/6/2
f 5/6/3 6/5/3 8/7/3 7/8/3
f 10/9/4 11/10/4 13/11/4 12/12/4
f 12/12/5 13/11/5 15/13/5 14/14/5
f 14/14/6 15/13/6 17/15/6 16/16/6
f 16/16/7 17/15/7 19/17/7 18/18/7
f 18/18/8 19/17/8 21/19/8 20/20/8
f 20/20/9 21/19/9 23/21/9 22/22/9
f 22/22/10 23/21/10 25/23/10 24/24/10
f 24/24/11 25/23/11 27/25/11 26/26/11
f 26/26/12 27/25/12 29/27/12 28/28/12
f 23/21/13 21/19/13 42/19/13 43/21/13
f 28/28/14 29/27/14 31/29/14 30/30/14
f 30/30/15 31/29/15 2/31/15 1/32/15
f 33/33/16 32/34/16 47/35/16 46/36/16 45/37/16 44/38/16 43/39/16 42/40/16 41/41/16 40/42/16 39/43/16 38/44/16 37/45/16 36/46/16 35/47/16 34/48/16
f 2/31/17 31/29/17 47/29/17 32/31/17
f 9/49/18 8/7/18 35/7/18 36/49/18
f 19/17/19 17/15/19 40/15/19 41/17/19
f 29/27/20 27/25/20 45/25/20 46/27/20
f 6/5/21 4/3/21 33/3/21 34/5/21
f 15/13/22 13/11/22 38/11/22 39/13/22
f 25/23/23 23/21/23 43/21/23 44/23/23
f 11/10/24 9/49/24 36/49/24 37/10/24
f 21/19/25 19/17/25 41/17/25 42/19/25
f 31/29/26 29/27/26 46/27/26 47/29/26
f 8/7/27 6/5/27 34/5/27 35/7/27
f 17/15/28 15/13/28 39/13/28 40/15/28
f 4/3/29 2/2/29 32/2/29 33/3/29
f 27/25/30 25/23/30 44/23/30 45/25/30
f 13/11/31 11/10/31 37/10/31 38/11/31
f 48/1/32 49/2/32 51/3/32 50/4/32
f 50/4/33 51/3/33 53/5/33 52/6/33
f 52/6/34 53/5/34 55/7/34 54/8/34
f 57/10/35 55/7/35 81/7/35 82/10/35
f 56/9/36 57/10/36 59/11/36 58/12/36
f 58/12/37 59/11/37 61/13/37 60/14/37
f 60/14/38 61/13/38 63/15/38 62/16/38
f 62/16/39 63/15/39 65/17/39 64/18/39
f 64/18/40 65/17/40 67/19/40 66/20/40
f 66/20/41 67/19/41 69/21/41 68/22/41
f 68/22/42 69/21/42 71/23/42 70/24/42
f 70/24/43 71/23/43 73/25/43 72/26/43
f 72/26/44 73/25/44 75/27/44 74/28/44
f 49/31/45 77/29/45 92/29/45 79/31/45
f 74/28/46 75/27/46 77/29/46 76/30/46
f 76/30/47 77/29/47 49/31/47 48/32/47
f 48/50/48 50/51/48 52/52/48 54/53/48 56/54/48 58/55/48 60/56/48 62/57/48 64/58/48 66/59/48 68/60/48 70/61/48 72/62/48 74/63/48 76/64/48
f 92/29/49 91/27/49 106/27/49 107/29/49
f 82/10/50 81/7/50 96/7/50 97/10/50
f 65/17/51 63/15/51 85/15/51 86/17/51
f 75/27/52 73/25/52 90/25/52 91/27/52
f 53/5/53 51/3/53 78/3/53 80/5/53
f 61/13/54 59/11/54 83/11/54 84/13/54
f 71/23/55 69/21/55 88/21/55 89/23/55
f 67/19/56 65/17/56 86/17/56 87/19/56
f 77/29/57 75/27/57 91/27/57 92/29/57
f 55/7/58 53/5/58 80/5/58 81/7/58
f 63/15/59 61/13/59 84/13/59 85/15/59
f 51/3/60 49/2/60 79/2/60 78/3/60
f 73/25/61 71/23/61 89/23/61 90/25/61
f 59/11/62 57/10/62 82/10/62 83/11/62
f 69/21/63 67/19/63 87/19/63 88/21/63
f 9/49/64 11/10/64 10/9/64 7/8/64 8/7/64
f 85/15/65 84/13/65 99/13/65 100/15/65
f 78/3/66 79/2/66 94/2/66 93/3/66
f 79/31/67 92/29/67 107/29/67 94/31/67
f 86/17/68 85/15/68 100/15/68 101/17/68
f 80/5/69 78/3/69 93/3/69 95/5/69
f 87/19/70 86/17/70 101/17/70 102/19/70
f 81/7/71 80/5/71 95/5/71 96/7/71
f 88/21/72 87/19/72 102/19/72 103/21/72
f 96/7/73 111/7/73 112/10/73 97/10/73
f 89/23/74 88/21/74 103/21/74 104/23/74
f 90/25/75 89/23/75 104/23/75 105/25/75
f 83/11/76 82/10/76 97/10/76 98/11/76
f 91/27/77 90/25/77 105/25/77 106/27/77
f 84/13/78 83/11/78 98/11/78 99/13/78
f 108/33/16 109/34/16 122/35/16 121/36/16 120/37/16 119/38/16 118/39/16 117/65/16 116/41/16 115/42/16 114/43/16 113/66/16 112/45/16 111/47/16 110/48/16
f 105/25/79 104/23/79 119/23/79 120/25/79
f 98/11/80 97/10/80 112/10/80 113/11/80
f 106/27/81 105/25/81 120/25/81 121/27/81
f 99/13/82 98/11/82 113/11/82 114/13/82
f 107/29/83 106/27/83 121/27/83 122/29/83
f 100/15/84 99/13/84 114/13/84 115/15/84
f 93/3/85 94/2/85 109/2/85 108/3/85
f 94/31/86 107/29/86 122/29/86 109/31/86
f 101/17/87 100/15/87 115/15/87 116/17/87
f 95/5/88 93/3/88 108/3/88 110/5/88
f 102/19/89 101/17/89 116/17/89 117/19/89
f 96/7/90 95/5/90 110/5/90 111/7/90
f 103/21/91 102/19/91 117/19/91 118/21/91
f 104/23/92 103/21/92 118/21/92 119/23/92
f 123/31/93 137/29/93 152/29/93 139/31/93
f 152/29/94 151/27/94 166/27/94 167/29/94
f 127/49/95 126/7/95 141/7/95 142/49/95
f 132/17/96 131/15/96 146/15/96 147/17/96
f 136/27/97 135/25/97 150/25/97 151/27/97
f 125/5/98 124/3/98 138/3/98 140/5/98
f 130/13/99 129/11/99 144/11/99 145/13/99
f 149/23/100 148/19/100 163/19/100 164/23/100
f 128/10/101 127/49/101 142/49/101 143/10/101
f 133/19/102 132/17/102 147/17/102 148/19/102
f 137/29/103 136/27/103 151/27/103 152/29/103
f 126/7/104 125/5/104 140/5/104 141/7/104
f 131/15/105 130/13/105 145/13/105 146/15/105
f 124/3/106 123/2/106 139/2/106 138/3/106
f 135/25/107 134/23/107 149/23/107 150/25/107
f 129/11/108 128/10/108 143/10/108 144/11/108
f 158/10/109 157/49/109 172/49/109 173/10/109
f 146/15/110 145/13/110 160/13/110 161/15/110
f 138/3/111 139/2/111 154/2/111 153/3/111
f 139/31/112 152/29/112 167/29/112 154/31/112
f 147/17/113 146/15/113 161/15/113 162/17/113
f 140/5/114 138/3/114 153/3/114 155/5/114
f 148/19/115 147/17/115 162/17/115 163/19/115
f 141/7/116 140/5/116 155/5/116 156/7/116
f 164/23/117 163/19/117 178/19/117 179/23/117
f 142/49/118 141/7/118 156/7/118 157/49/118
f 143/10/119 142/49/119 157/49/119 158/10/119
f 150/25/120 149/23/120 164/23/120 165/25/120
f 144/11/121 143/10/121 158/10/121 159/11/121
f 151/27/122 150/25/122 165/25/122 166/27/122
f 145/13/123 144/11/123 159/11/123 160/13/123
f 168/33/16 169/34/16 182/35/16 181/36/16 180/37/16 179/38/16 178/65/16 177/41/16 176/42/16 175/43/16 174/66/16 173/45/16 172/46/16 171/47/16 170/48/16
f 165/25/124 164/23/124 179/23/124 180/25/124
f 159/11/125 158/10/125 173/10/125 174/11/125
f 166/27/126 165/25/126 180/25/126 181/27/126
f 160/13/127 159/11/127 174/11/127 175/13/127
f 167/29/128 166/27/128 181/27/128 182/29/128
f 161/15/129 160/13/129 175/13/129 176/15/129
f 153/3/130 154/2/130 169/2/130 168/3/130
f 154/31/131 167/29/131 182/29/131 169/31/131
f 162/17/132 161/15/132 176/15/132 177/17/132
f 155/5/133 153/3/133 168/3/133 170/5/133
f 163/19/134 162/17/134 177/17/134 178/19/134
f 156/7/135 155/5/135 170/5/135 171/7/135
f 55/7/136 57/10/136 56/9/136 54/8/136
f 157/49/137 156/7/137 171/7/137 172/49/137
f 124/3/138 125/5/138 126/7/138 127/49/138 128/10/138 129/11/138 130/13/138 131/15/138 132/17/138 133/19/138 134/23/138 135/25/138 136/27/138 137/29/138 123/31/138
f 133/19/139 148/19/139 149/23/139 134/23/139
o Cylinder.001
v 0.156960 2.416640 2.345076
v 0.156960 6.811968 2.406860
v 0.276540 2.416640 2.368862
v 0.252509 6.811968 2.425865
v 0.377915 2.416640 2.436599
v 0.333511 6.811968 2.479989
v 0.445651 2.416640 2.537973
v 0.387634 6.811968 2.560991
v 0.406640 6.811968 2.656539
v 0.445651 2.416640 2.777132
v 0.387634 6.811968 2.752088
v 0.377915 2.416640 2.878507
v 0.333511 6.811968 2.833090
v 0.276540 2.416640 2.946243
v 0.252509 6.811968 2.887213
v 0.156960 2.416640 2.970029
v 0.156960 6.811968 2.906219
v 0.037381 2.416640 2.946243
v 0.061412 6.811968 2.887213
v -0.063994 2.416640 2.878507
v -0.019590 6.811968 2.833090
v -0.131730 2.416640 2.777132
v -0.073714 6.811968 2.752088
v -0.155516 2.416640 2.657553
v -0.092719 6.811968 2.656539
v -0.131730 2.416640 2.537973
v -0.073714 6.811968 2.560991
v -0.063994 2.416640 2.436599
v -0.019590 6.811968 2.479989
v 0.037381 2.416640 2.368862
v 0.061412 6.811968 2.425865
v 0.156960 7.122084 2.537853
v 0.202380 7.122084 2.546887
v 0.240884 7.122084 2.572615
v 0.266612 7.122084 2.611120
v 0.275647 7.122084 2.656539
v 0.266612 7.122084 2.701959
v 0.240884 7.122084 2.740463
v 0.202380 7.122084 2.766191
v 0.156960 7.122084 2.775226
v 0.111541 7.122084 2.766191
v 0.073036 7.122084 2.740463
v 0.047308 7.122084 2.701959
v 0.038274 7.122084 2.656539
v 0.047308 7.122084 2.611120
v 0.073036 7.122084 2.572615
v 0.111541 7.122084 2.546887
v 0.158657 4.191527 2.588357
v 0.090914 4.180496 2.580987
v 0.033403 4.149080 2.559291
v -0.005120 4.102064 2.526571
v -0.018791 4.046604 2.487808
v -0.005527 3.991144 2.448905
v 0.032531 3.916605 2.392848
v 0.089812 3.885190 2.370551
v 0.157474 3.874158 2.362472
v 0.225218 3.885190 2.369842
v 0.282729 3.916605 2.391538
v 0.335042 4.046604 2.485956
v 0.321778 4.102064 2.524859
v 0.283600 4.149080 2.557981
v 0.226319 4.180496 2.580278
v 0.073876 4.489032 2.114957
v 0.157938 4.491933 2.130967
v 0.002439 4.480772 2.068483
v -0.045425 4.468410 2.012383
v -0.062562 4.453827 1.929770
v -0.046291 4.439244 1.846982
v 0.000911 4.426882 1.776623
v 0.071857 4.418622 1.729404
v 0.155747 4.415721 1.712514
v 0.239810 4.418622 1.728525
v 0.311247 4.426882 1.774998
v 0.376320 4.453827 1.927472
v 0.360049 4.468410 2.010260
v 0.312775 4.480772 2.066859
v 0.241829 4.489032 2.114078
v 0.091815 5.399371 2.014031
v 0.157393 5.399371 2.026719
v 0.036085 5.399371 1.977214
v -0.001314 5.399371 1.921872
v -0.014688 5.399371 1.856431
v -0.002000 5.399371 1.790853
v 0.034817 5.399371 1.735123
v 0.090159 5.399371 1.697724
v 0.155600 5.399371 1.684350
v 0.221178 5.399371 1.697038
v 0.276908 5.399371 1.733855
v 0.327681 5.399371 1.854638
v 0.314993 5.399371 1.920216
v 0.278176 5.399371 1.975946
v 0.222834 5.399371 2.013345
v 0.102083 5.922303 1.970286
v 0.157153 5.922303 1.980941
v 0.055283 5.922302 1.939368
v 0.023877 5.922303 1.892894
v 0.012646 5.922303 1.837939
v 0.023301 5.922303 1.782869
v 0.054218 5.922303 1.736069
v 0.100693 5.922302 1.704663
v 0.155648 5.922303 1.693432
v 0.210717 5.922302 1.704087
v 0.257518 5.922303 1.735004
v 0.300155 5.922303 1.836433
v 0.289500 5.922303 1.891503
v 0.258582 5.922302 1.938304
v 0.212108 5.922303 1.969710
vn 0.1951 0.0138 -0.9807
vn 0.5555 0.0138 -0.8314
vn 0.8314 0.0139 -0.5555
vn 0.8314 0.0141 0.5555
vn 0.5555 0.0142 0.8314
vn 0.1951 0.0142 0.9807
vn -0.1951 0.0142 0.9807
vn -0.5555 0.0142 0.8314
vn -0.8314 0.0141 0.5555
vn -0.9807 0.0141 0.1951
vn -0.9807 0.0140 -0.1951
vn -0.8314 0.0139 -0.5555
vn -0.7682 0.3827 0.5133
vn -0.5555 0.0138 -0.8314
vn -0.1951 0.0138 -0.9807
vn -0.0000 1.0000 -0.0000
vn -0.1802 0.3827 -0.9061
vn 0.9061 0.3827 -0.1802
vn -0.1802 0.3827 0.9061
vn -0.7682 0.3827 -0.5133
vn 0.5133 0.3827 -0.7682
vn 0.5133 0.3827 0.7682
vn -0.9061 0.3827 0.1802
vn 0.9061 0.3827 0.1802
vn -0.5133 0.3827 0.7682
vn -0.5133 0.3827 -0.7682
vn 0.7682 0.3827 -0.5133
vn 0.1802 0.3827 0.9061
vn 0.1802 0.3827 -0.9061
vn -0.9061 0.3827 -0.1802
vn 0.7682 0.3827 0.5133
vn 0.9999 0.0113 -0.0000
vn 0.1653 0.8222 0.5447
vn 0.5583 0.1026 0.8233
vn -0.9763 0.1319 0.1717
vn 0.1666 -0.7586 -0.6299
vn 0.7676 0.5012 0.3994
vn -0.4858 0.7150 0.5028
vn -0.5020 -0.6751 -0.5406
vn 0.9200 0.0165 -0.3916
vn -0.9673 -0.2325 -0.1009
vn 0.4959 -0.6765 -0.5444
vn 0.4916 0.7131 0.4998
vn -0.7627 0.5046 0.4045
vn -0.1733 -0.7582 -0.6286
vn -0.1595 0.8227 0.5456
vn 0.9782 0.1272 0.1642
vn -0.8581 -0.4272 -0.2851
vn -0.9808 0.0446 -0.1898
vn -0.1991 -0.0280 -0.9796
vn -0.1893 0.1119 0.9755
vn 0.1995 0.1119 0.9735
vn 0.1888 -0.0280 -0.9816
vn -0.5497 0.1026 0.8291
vn 0.5486 -0.0162 -0.8359
vn -0.7957 0.0923 0.5986
vn 0.9213 0.0350 -0.3873
vn -0.9786 0.0650 0.1953
vn -0.9803 0.0342 -0.1947
vn 0.9806 0.0650 0.1850
vn -0.8319 0.0056 -0.5549
vn 0.8020 0.0923 0.5902
vn -0.5573 -0.0162 -0.8302
vn 0.9801 0.0582 0.1896
vn -0.8339 0.0319 -0.5509
vn 0.8323 0.0708 0.5498
vn -0.5598 0.0223 -0.8283
vn 0.5581 0.0804 0.8259
vn -0.2002 0.0170 -0.9796
vn -0.1893 0.0855 0.9782
vn 0.1995 0.0855 0.9762
vn 0.1899 0.0170 -0.9817
vn -0.5494 0.0804 0.8317
vn 0.5511 0.0223 -0.8342
vn -0.8265 0.0708 0.5585
vn -0.9781 0.0582 0.1999
vn 0.0052 -0.5804 0.8143
vn 0.9136 -0.3450 -0.2151
vt 1.000000 0.500000
vt 1.000000 1.000000
vt 0.937500 1.000000
vt 0.937500 0.500000
vt 0.875000 1.000000
vt 0.875000 0.500000
vt 0.812500 1.000000
vt 0.812500 0.500000
vt 0.687500 0.500000
vt 0.687500 1.000000
vt 0.625000 1.000000
vt 0.625000 0.500000
vt 0.562500 1.000000
vt 0.562500 0.500000
vt 0.500000 1.000000
vt 0.500000 0.500000
vt 0.437500 1.000000
vt 0.437500 0.500000
vt 0.375000 1.000000
vt 0.375000 0.500000
vt 0.312500 1.000000
vt 0.312500 0.500000
vt 0.250000 1.000000
vt 0.250000 0.500000
vt 0.187500 1.000000
vt 0.187500 0.500000
vt 0.125000 1.000000
vt 0.125000 0.500000
vt 0.062500 1.000000
vt 0.062500 0.500000
vt 0.000000 1.000000
vt 0.000000 0.500000
vt 0.341844 0.471731
vt 0.250000 0.490000
vt 0.158156 0.471731
vt 0.080294 0.419706
vt 0.028269 0.341844
vt 0.010000 0.250000
vt 0.028269 0.158156
vt 0.080294 0.080294
vt 0.158156 0.028269
vt 0.250000 0.010000
vt 0.341844 0.028269
vt 0.419706 0.080294
vt 0.471731 0.158156
vt 0.490000 0.250000
vt 0.471731 0.341844
vt 0.419706 0.419706
vt 0.750000 1.000000
vt 0.080294 0.080294
vt 0.419706 0.080294
s 0
f 183/67/140 184/68/140 186/69/140 185/70/140
f 185/70/141 186/69/141 188/71/141 187/72/141
f 187/72/142 188/71/142 190/73/142 189/74/142
f 192/75/143 193/76/143 195/77/143 194/78/143
f 194/78/144 195/77/144 197/79/144 196/80/144
f 196/80/145 197/79/145 199/81/145 198/82/145
f 198/82/146 199/81/146 201/83/146 200/84/146
f 200/84/147 201/83/147 203/85/147 202/86/147
f 202/86/148 203/85/148 205/87/148 204/88/148
f 204/88/149 205/87/149 207/89/149 206/90/149
f 206/90/150 207/89/150 209/91/150 208/92/150
f 208/92/151 209/91/151 211/93/151 210/94/151
f 205/87/152 203/85/152 224/85/152 225/87/152
f 210/94/153 211/93/153 213/95/153 212/96/153
f 212/96/154 213/95/154 184/97/154 183/98/154
f 215/99/155 214/100/155 229/101/155 228/102/155 227/103/155 226/104/155 225/105/155 224/106/155 223/107/155 222/108/155 221/109/155 220/110/155 219/111/155 218/112/155 217/113/155 216/114/155
f 184/97/156 213/95/156 229/95/156 214/97/156
f 191/115/157 190/73/157 217/73/157 218/115/157
f 201/83/158 199/81/158 222/81/158 223/83/158
f 211/93/159 209/91/159 227/91/159 228/93/159
f 188/71/160 186/69/160 215/69/160 216/71/160
f 197/79/161 195/77/161 220/77/161 221/79/161
f 207/89/162 205/87/162 225/87/162 226/89/162
f 193/76/163 191/115/163 218/115/163 219/76/163
f 203/85/164 201/83/164 223/83/164 224/85/164
f 213/95/165 211/93/165 228/93/165 229/95/165
f 190/73/166 188/71/166 216/71/166 217/73/166
f 199/81/167 197/79/167 221/79/167 222/81/167
f 186/69/168 184/68/168 214/68/168 215/69/168
f 209/91/169 207/89/169 226/89/169 227/91/169
f 195/77/170 193/76/170 219/76/170 220/77/170
f 191/115/171 193/76/171 192/75/171 189/74/171 190/73/171
f 230/97/172 244/95/172 259/95/172 246/97/172
f 259/95/173 258/93/173 273/93/173 274/95/173
f 234/115/174 233/73/174 248/73/174 249/115/174
f 239/83/175 238/81/175 253/81/175 254/83/175
f 243/93/176 242/91/176 257/91/176 258/93/176
f 232/71/177 231/69/177 245/69/177 247/71/177
f 237/79/178 236/77/178 251/77/178 252/79/178
f 256/89/179 255/85/179 270/85/179 271/89/179
f 235/76/180 234/115/180 249/115/180 250/76/180
f 240/85/181 239/83/181 254/83/181 255/85/181
f 244/95/182 243/93/182 258/93/182 259/95/182
f 233/73/183 232/71/183 247/71/183 248/73/183
f 238/81/184 237/79/184 252/79/184 253/81/184
f 231/69/185 230/68/185 246/68/185 245/69/185
f 242/91/186 241/89/186 256/89/186 257/91/186
f 236/77/187 235/76/187 250/76/187 251/77/187
f 265/76/188 264/115/188 279/115/188 280/76/188
f 253/81/189 252/79/189 267/79/189 268/81/189
f 245/69/190 246/68/190 261/68/190 260/69/190
f 246/97/191 259/95/191 274/95/191 261/97/191
f 254/83/192 253/81/192 268/81/192 269/83/192
f 247/71/193 245/69/193 260/69/193 262/71/193
f 255/85/194 254/83/194 269/83/194 270/85/194
f 248/73/195 247/71/195 262/71/195 263/73/195
f 271/89/196 270/85/196 285/85/196 286/89/196
f 249/115/197 248/73/197 263/73/197 264/115/197
f 250/76/198 249/115/198 264/115/198 265/76/198
f 257/91/199 256/89/199 271/89/199 272/91/199
f 251/77/200 250/76/200 265/76/200 266/77/200
f 258/93/201 257/91/201 272/91/201 273/93/201
f 252/79/202 251/77/202 266/77/202 267/79/202
f 275/99/155 276/100/155 289/101/155 288/102/155 287/103/155 286/104/155 285/116/155 284/107/155 283/108/155 282/109/155 281/117/155 280/111/155 279/112/155 278/113/155 277/114/155
f 272/91/203 271/89/203 286/89/203 287/91/203
f 266/77/204 265/76/204 280/76/204 281/77/204
f 273/93/205 272/91/205 287/91/205 288/93/205
f 267/79/206 266/77/206 281/77/206 282/79/206
f 274/95/207 273/93/207 288/93/207 289/95/207
f 268/81/208 267/79/208 282/79/208 283/81/208
f 260/69/209 261/68/209 276/68/209 275/69/209
f 261/97/210 274/95/210 289/95/210 276/97/210
f 269/83/211 268/81/211 283/81/211 284/83/211
f 262/71/212 260/69/212 275/69/212 277/71/212
f 270/85/213 269/83/213 284/83/213 285/85/213
f 263/73/214 262/71/214 277/71/214 278/73/214
f 264/115/215 263/73/215 278/73/215 279/115/215
f 231/69/216 232/71/216 233/73/216 234/115/216 235/76/216 236/77/216 237/79/216 238/81/216 239/83/216 240/85/216 241/89/216 242/91/216 243/93/216 244/95/216 230/97/216
f 240/85/217 255/85/217 256/89/217 241/89/217
o Cylinder.005
v 0.134664 3.329510 -15.385028
v 0.134664 6.680430 -12.969787
v 1.903092 3.595683 -14.489260
v 0.322192 6.615629 -12.908361
v 2.798861 3.329510 -12.720831
v 0.383618 6.680430 -12.720833
v 1.903092 3.595683 -10.952402
v 0.322192 6.615629 -12.533304
v 0.134664 3.329510 -10.056634
v 0.134664 6.680430 -12.471879
v -1.633765 3.595683 -10.952402
v -0.052865 6.615629 -12.533304
v -2.529534 3.329510 -12.720831
v -0.114290 6.680430 -12.720833
v -1.633765 3.595683 -14.489260
v -0.052865 6.615629 -12.908361
v 0.000000 0.098129 -13.269528
v 0.000000 2.098129 -13.269528
v 0.397824 0.098129 -13.104745
v 0.397824 2.098129 -13.104745
v 0.562608 0.098129 -12.706921
v 0.562608 2.098129 -12.706921
v 0.397824 0.098129 -12.309096
v 0.397824 2.098129 -12.309096
v 0.000000 0.098129 -12.144312
v 0.000000 2.098129 -12.144312
v -0.397824 0.098129 -12.309096
v -0.397824 2.098129 -12.309096
v -0.562608 0.098129 -12.706921
v -0.562608 2.098129 -12.706921
v -0.397824 0.098129 -13.104745
v -0.397824 2.098129 -13.104745
v 0.000000 7.045883 -13.110848
v 0.285620 7.045883 -12.992540
v 0.403928 7.045883 -12.706921
v 0.285620 7.045883 -12.421301
v 0.000000 7.045883 -12.302993
v -0.285620 7.045883 -12.421301
v -0.403928 7.045883 -12.706921
v -0.285620 7.045883 -12.992540
v 0.134664 6.214606 -14.411565
v 0.134664 8.300019 -12.889135
v 1.032297 6.500885 -13.618464
v 0.253672 8.300019 -12.839841
v 1.825397 6.214606 -12.720831
v 0.302967 8.300019 -12.720833
v 1.032297 6.500885 -11.823197
v 0.253672 8.300019 -12.601825
v 0.134664 6.214606 -11.030097
v 0.134664 8.300019 -12.552530
v -0.762970 6.500885 -11.823197
v 0.015656 8.300019 -12.601825
v -1.556070 6.214606 -12.720831
v -0.033639 8.300019 -12.720833
v -0.762970 6.500885 -13.618464
v 0.015656 8.300019 -12.839841
v 0.134664 4.651690 -15.081205
v 0.134664 7.569804 -12.941396
v 1.701422 4.836840 -14.287590
v 0.300807 7.563062 -12.886976
v 2.495038 4.651690 -12.720831
v 0.355227 7.569804 -12.720833
v 1.701422 4.836840 -11.154073
v 0.300807 7.563062 -12.554690
v 0.134664 4.651690 -10.360456
v 0.134664 7.569804 -12.500270
v -1.432095 4.836840 -11.154073
v -0.031479 7.563062 -12.554690
v -2.225711 4.651690 -12.720831
v -0.085899 7.569804 -12.720833
v -1.432095 4.836840 -14.287590
v -0.031479 7.563062 -12.886976
v 0.134664 2.271575 -15.358521
v 0.134664 5.656632 -12.967310
v 1.885497 2.602578 -14.471664
v 0.320326 5.524998 -12.906496
v 2.772352 2.271575 -12.720831
v 0.381140 5.656632 -12.720833
v 1.885497 2.602578 -10.969997
v 0.320326 5.524998 -12.535171
v 0.134664 2.271575 -10.083141
v 0.134664 5.656632 -12.474357
v -1.616170 2.602578 -10.969997
v -0.050999 5.524998 -12.535171
v -2.503026 2.271575 -12.720831
v -0.111813 5.656632 -12.720833
v -1.616170 2.602578 -14.471664
v -0.050999 5.524998 -12.906496
v 0.134664 1.308546 -15.325329
v 0.134664 4.714186 -12.964209
v 1.863465 1.698563 -14.449633
v 0.317990 4.521029 -12.904160
v 2.739161 1.308546 -12.720831
v 0.378039 4.714186 -12.720833
v 1.863465 1.698563 -10.992029
v 0.317990 4.521029 -12.537507
v 0.134664 1.308546 -10.116333
v 0.134664 4.714186 -12.477458
v -1.594138 1.698563 -10.992029
v -0.048663 4.521029 -12.537507
v -2.469834 1.308546 -12.720831
v -0.108711 4.714186 -12.720833
v -1.594138 1.698563 -14.449633
v -0.048663 4.521029 -12.904160
vn 0.3173 0.5592 -0.7659
vn 0.7659 0.5592 -0.3173
vn 0.7659 0.5592 0.3173
vn 0.3173 0.5592 0.7659
vn -0.3173 0.5592 0.7659
vn -0.7659 0.5592 0.3173
vn -0.0000 1.0000 -0.0000
vn -0.7659 0.5592 -0.3173
vn -0.3173 0.5592 -0.7659
vn -0.0000 -1.0000 -0.0000
vn 0.3827 -0.0000 -0.9239
vn 0.9239 -0.0000 -0.3827
vn 0.9239 -0.0000 0.3827
vn 0.3827 -0.0000 0.9239
vn -0.3827 -0.0000 0.9239
vn -0.9239 -0.0000 0.3827
vn -0.9239 -0.0000 -0.3827
vn -0.3827 -0.0000 -0.9239
vn 0.3825 0.0296 -0.9235
vn 0.3825 0.0296 0.9235
vn -0.9235 0.0296 -0.3825
vn 0.9235 0.0296 -0.3825
vn -0.3825 0.0296 0.9235
vn -0.3825 0.0296 -0.9235
vn 0.9235 0.0296 0.3825
vn -0.9235 0.0296 0.3825
vn 0.4535 0.5198 -0.7240
vn 0.7240 0.5198 -0.4535
vn 0.7240 0.5198 0.4535
vn 0.4535 0.5198 0.7240
vn -0.4535 0.5198 0.7240
vn -0.7240 0.5198 0.4535
vn -0.7240 0.5198 -0.4535
vn -0.4535 0.5198 -0.7240
vt 1.000000 0.500000
vt 1.000000 1.000000
vt 0.875000 1.000000
vt 0.875000 0.500000
vt 0.750000 1.000000
vt 0.750000 0.500000
vt 0.625000 1.000000
vt 0.625000 0.500000
vt 0.500000 1.000000
vt 0.500000 0.500000
vt 0.375000 1.000000
vt 0.375000 0.500000
vt 0.250000 1.000000
vt 0.250000 0.500000
vt 0.419706 0.419706
vt 0.250000 0.490000
vt 0.080294 0.419706
vt 0.010000 0.250000
vt 0.080294 0.080294
vt 0.250000 0.010000
vt 0.419706 0.080294
vt 0.490000 0.250000
vt 0.125000 1.000000
vt 0.125000 0.500000
vt 0.000000 1.000000
vt 0.000000 0.500000
vt 0.750000 0.490000
vt 0.919706 0.419706
vt 0.990000 0.250000
vt 0.919706 0.080294
vt 0.750000 0.010000
vt 0.580294 0.080294
vt 0.510000 0.250000
vt 0.580294 0.419706
vt 1.000000 0.000000
vt 0.875000 0.000000
vt 0.750000 0.000000
vt 0.625000 0.000000
vt 0.500000 0.000000
vt 0.375000 0.000000
vt 0.250000 0.000000
vt 0.125000 0.000000
vt 0.000000 0.000000
s 0
f 290/118/218 291/119/218 293/120/218 292/121/218
f 292/121/219 293/120/219 295/122/219 294/123/219
f 294/123/220 295/122/220 297/124/220 296/125/220
f 296/125/221 297/124/221 299/126/221 298/127/221
f 298/127/222 299/126/222 301/128/222 300/129/222
f 300/129/223 301/128/223 303/130/223 302/131/223
f 293/132/224 291/133/224 305/134/224 303/135/224 301/136/224 299/137/224 297/138/224 295/139/224
f 302/131/225 303/130/225 305/140/225 304/141/225
f 304/141/226 305/140/226 291/142/226 290/143/226
f 290/144/227 292/145/227 294/146/227 296/147/227 298/148/227 300/149/227 302/150/227 304/151/227
f 306/152/228 307/119/228 309/120/228 308/153/228
f 308/153/229 309/120/229 311/122/229 310/154/229
f 310/154/230 311/122/230 313/124/230 312/155/230
f 312/155/231 313/124/231 315/126/231 314/156/231
f 314/156/232 315/126/232 317/128/232 316/157/232
f 316/157/233 317/128/233 319/130/233 318/158/233
f 318/158/234 319/130/234 321/140/234 320/159/234
f 320/159/235 321/140/235 307/142/235 306/160/235
f 309/120/236 307/119/236 322/119/236 323/120/236
f 315/126/237 313/124/237 325/124/237 326/126/237
f 321/140/238 319/130/238 328/130/238 329/140/238
f 311/122/239 309/120/239 323/120/239 324/122/239
f 317/128/240 315/126/240 326/126/240 327/128/240
f 307/142/241 321/140/241 329/140/241 322/142/241
f 313/124/242 311/122/242 324/122/242 325/124/242
f 319/130/243 317/128/243 327/128/243 328/130/243
f 330/118/244 331/119/244 333/120/244 332/121/244
f 332/121/245 333/120/245 335/122/245 334/123/245
f 334/123/246 335/122/246 337/124/246 336/125/246
f 336/125/247 337/124/247 339/126/247 338/127/247
f 338/127/248 339/126/248 341/128/248 340/129/248
f 340/129/249 341/128/249 343/130/249 342/131/249
f 333/132/224 331/133/224 345/134/224 343/135/224 341/136/224 339/137/224 337/138/224 335/139/224
f 342/131/250 343/130/250 345/140/250 344/141/250
f 344/141/251 345/140/251 331/142/251 330/143/251
f 330/144/227 332/145/227 334/146/227 336/147/227 338/148/227 340/149/227 342/150/227 344/151/227
f 346/118/218 347/119/218 349/120/218 348/121/218
f 348/121/219 349/120/219 351/122/219 350/123/219
f 350/123/220 351/122/220 353/124/220 352/125/220
f 352/125/221 353/124/221 355/126/221 354/127/221
f 354/127/222 355/126/222 357/128/222 356/129/222
f 356/129/223 357/128/223 359/130/223 358/131/223
f 349/132/224 347/133/224 361/134/224 359/135/224 357/136/224 355/137/224 353/138/224 351/139/224
f 358/131/225 359/130/225 361/140/225 360/141/225
f 360/141/226 361/140/226 347/142/226 346/143/226
f 346/144/227 348/145/227 350/146/227 352/147/227 354/148/227 356/149/227 358/150/227 360/151/227
f 362/118/218 363/119/218 365/120/218 364/121/218
f 364/121/219 365/120/219 367/122/219 366/123/219
f 366/123/220 367/122/220 369/124/220 368/125/220
f 368/125/221 369/124/221 371/126/221 370/127/221
f 370/127/222 371/126/222 373/128/222 372/129/222
f 372/129/223 373/128/223 375/130/223 374/131/223
f 365/132/224 363/133/224 377/134/224 375/135/224 373/136/224 371/137/224 369/138/224 367/139/224
f 374/131/225 375/130/225 377/140/225 376/141/225
f 376/141/226 377/140/226 363/142/226 362/143/226
f 362/144/227 364/145/227 366/146/227 368/147/227 370/148/227 372/149/227 374/150/227 376/151/227
f 378/118/218 379/119/218 381/120/218 380/121/218
f 380/121/219 381/120/219 383/122/219 382/123/219
f 382/123/220 383/122/220 385/124/220 384/125/220
f 384/125/221 385/124/221 387/126/221 386/127/221
f 386/127/222 387/126/222 389/128/222 388/129/222
f 388/129/223 389/128/223 391/130/223 390/131/223
f 381/132/224 379/133/224 393/134/224 391/135/224 389/136/224 387/137/224 385/138/224 383/139/224
f 390/131/225 391/130/225 393/140/225 392/141/225
f 392/141/226 393/140/226 379/142/226 378/143/226
f 378/144/227 380/145/227 382/146/227 384/147/227 386/148/227 388/149/227 390/150/227 392/151/227
o Cylinder.008
v 0.000000 -0.094224 -19.398151
v 0.000000 2.334783 -19.398151
v 0.397824 -0.094224 -19.233368
v 0.397824 2.334783 -19.233368
v 0.562608 -0.094224 -18.835543
v 0.562608 2.334783 -18.835543
v 0.397824 -0.094224 -18.437719
v 0.397824 2.334783 -18.437719
v 0.000000 -0.094224 -18.272934
v 0.000000 2.334783 -18.272934
v -0.397824 -0.094224 -18.437719
v -0.397824 2.334783 -18.437719
v -0.562608 -0.094224 -18.835543
v -0.562608 2.334783 -18.835543
v -0.397824 -0.094224 -19.233368
v -0.397824 2.334783 -19.233368
v 0.000000 8.343847 -19.239471
v 0.285620 8.343847 -19.121162
v 0.403928 8.343847 -18.835543
v 0.285620 8.343847 -18.549923
v 0.000000 8.343847 -18.431616
v -0.285620 8.343847 -18.549923
v -0.403928 8.343847 -18.835543
v -0.285620 8.343847 -19.121162
v 0.134664 6.721320 -21.358522
v 0.134664 10.479939 -19.099218
v 1.466762 7.237292 -20.181551
v 0.311273 10.479939 -19.026066
v 2.643732 6.721320 -18.849453
v 0.384427 10.479939 -18.849455
v 1.466762 7.237292 -17.517355
v 0.311273 10.479939 -18.672846
v 0.134664 6.721320 -16.340385
v 0.134664 10.479939 -18.599693
v -1.197435 7.237292 -17.517355
v -0.041945 10.479939 -18.672846
v -2.374405 6.721320 -18.849453
v -0.115099 10.479939 -18.849455
v -1.197435 7.237292 -20.181551
v -0.041945 10.479939 -19.026066
v 0.134664 5.130178 -21.618252
v 0.134664 9.287480 -19.108183
v 1.972524 5.393954 -20.687313
v 0.329555 9.277874 -19.044348
v 2.903461 5.130178 -18.849453
v 0.393392 9.287480 -18.849455
v 1.972524 5.393954 -17.011593
v 0.329555 9.277874 -18.654564
v 0.134664 5.130178 -16.080656
v 0.134664 9.287480 -18.590727
v -1.703197 5.393954 -17.011593
v -0.060227 9.277874 -18.654564
v -2.634134 5.130178 -18.849453
v -0.124064 9.287480 -18.849455
v -1.703197 5.393954 -20.687313
v -0.060227 9.277874 -19.044348
v 0.134663 3.282259 -22.245338
v 0.134664 8.469658 -19.166782
v 2.388769 3.694309 -21.103559
v 0.373695 8.369342 -19.088488
v 3.530549 3.282259 -18.849453
v 0.451990 8.469658 -18.849457
v 2.388769 3.694309 -16.595348
v 0.373695 8.369342 -18.610426
v 0.134663 3.282259 -15.453568
v 0.134664 8.469658 -18.532129
v -2.119442 3.694309 -16.595348
v -0.104367 8.369342 -18.610426
v -3.261222 3.282259 -18.849453
v -0.182662 8.469658 -18.849457
v -2.119442 3.694309 -21.103559
v -0.104367 8.369342 -19.088488
v 0.134663 2.053775 -22.143557
v 0.134664 7.188041 -19.157270
v 2.321209 2.555821 -21.035999
v 0.366530 6.988385 -19.081322
v 3.428767 2.053775 -18.849453
v 0.442479 7.188041 -18.849457
v 2.321209 2.555821 -16.662909
v 0.366530 6.988385 -18.617590
v 0.134663 2.053775 -15.555350
v 0.134664 7.188041 -18.541641
v -2.051882 2.555821 -16.662909
v -0.097203 6.988385 -18.617590
v -3.159440 2.053775 -18.849453
v -0.173151 7.188041 -18.849457
v -2.051882 2.555821 -21.035999
v -0.097203 6.988385 -19.081322
v 0.134663 0.864663 -22.136414
v 0.134664 6.084633 -19.156603
v 2.316467 1.462458 -21.031258
v 0.366028 5.788573 -19.080820
v 3.421624 0.864663 -18.849453
v 0.441811 6.084633 -18.849457
v 2.316467 1.462458 -16.667648
v 0.366028 5.788573 -18.618092
v 0.134663 0.864663 -15.562493
v 0.134664 6.084633 -18.542309
v -2.047140 1.462458 -16.667648
v -0.096700 5.788573 -18.618092
v -3.152297 0.864663 -18.849453
v -0.172483 6.084633 -18.849457
v -2.047140 1.462458 -21.031258
v -0.096700 5.788573 -19.080820
vn 0.3827 -0.0000 -0.9239
vn 0.9239 -0.0000 -0.3827
vn 0.9239 -0.0000 0.3827
vn 0.3827 -0.0000 0.9239
vn -0.3827 -0.0000 0.9239
vn -0.9239 -0.0000 0.3827
vn -0.9239 -0.0000 -0.3827
vn -0.3827 -0.0000 -0.9239
vn 0.3826 0.0244 -0.9236
vn 0.3826 0.0244 0.9236
vn -0.9236 0.0244 -0.3826
vn 0.9236 0.0244 -0.3826
vn -0.3826 0.0244 0.9236
vn -0.3826 0.0244 -0.9236
vn 0.9236 0.0244 0.3826
vn -0.9236 0.0244 0.3826
vn 0.4747 0.4479 -0.7577
vn 0.7577 0.4479 -0.4747
vn 0.7577 0.4479 0.4747
vn 0.4747 0.4479 0.7577
vn -0.4747 0.4479 0.7577
vn -0.7577 0.4479 0.4747
vn -0.0000 1.0000 -0.0000
vn -0.7577 0.4479 -0.4747
vn -0.4747 0.4479 -0.7577
vn -0.0000 -1.0000 -0.0000
vn 0.3346 0.4855 -0.8077
vn 0.8077 0.4855 -0.3346
vn 0.8077 0.4855 0.3346
vn 0.3346 0.4855 0.8077
vn -0.3346 0.4855 0.8077
vn -0.8077 0.4855 0.3346
vn -0.8077 0.4855 -0.3346
vn -0.3346 0.4855 -0.8077
vt 1.000000 0.000000
vt 1.000000 1.000000
vt 0.875000 1.000000
vt 0.875000 0.000000
vt 0.750000 1.000000
vt 0.750000 0.000000
vt 0.625000 1.000000
vt 0.625000 0.000000
vt 0.500000 1.000000
vt 0.500000 0.000000
vt 0.375000 1.000000
vt 0.375000 0.000000
vt 0.250000 1.000000
vt 0.250000 0.000000
vt 0.125000 1.000000
vt 0.125000 0.000000
vt 0.000000 1.000000
vt 0.000000 0.000000
vt 1.000000 0.500000
vt 0.875000 0.500000
vt 0.750000 0.500000
vt 0.625000 0.500000
vt 0.500000 0.500000
vt 0.375000 0.500000
vt 0.250000 0.500000
vt 0.419706 0.419706
vt 0.250000 0.490000
vt 0.080294 0.419706
vt 0.010000 0.250000
vt 0.080294 0.080294
vt 0.250000 0.010000
vt 0.419706 0.080294
vt 0.490000 0.250000
vt 0.125000 0.500000
vt 0.000000 0.500000
vt 0.750000 0.490000
vt 0.919706 0.419706
vt 0.990000 0.250000
vt 0.919706 0.080294
vt 0.750000 0.010000
vt 0.580294 0.080294
vt 0.510000 0.250000
vt 0.580294 0.419706
s 0
f 394/161/252 395/162/252 397/163/252 396/164/252
f 396/164/253 397/163/253 399/165/253 398/166/253
f 398/166/254 399/165/254 401/167/254 400/168/254
f 400/168/255 401/167/255 403/169/255 402/170/255
f 402/170/256 403/169/256 405/171/256 404/172/256
f 404/172/257 405/171/257 407/173/257 406/174/257
f 406/174/258 407/173/258 409/175/258 408/176/258
f 408/176/259 409/175/259 395/177/259 394/178/259
f 397/163/260 395/162/260 410/162/260 411/163/260
f 403/169/261 401/167/261 413/167/261 414/169/261
f 409/175/262 407/173/262 416/173/262 417/175/262
f 399/165/263 397/163/263 411/163/263 412/165/263
f 405/171/264 403/169/264 414/169/264 415/171/264
f 395/177/265 409/175/265 417/175/265 410/177/265
f 401/167/266 399/165/266 412/165/266 413/167/266
f 407/173/267 405/171/267 415/171/267 416/173/267
f 418/179/268 419/162/268 421/163/268 420/180/268
f 420/180/269 421/163/269 423/165/269 422/181/269
f 422/181/270 423/165/270 425/167/270 424/182/270
f 424/182/271 425/167/271 427/169/271 426/183/271
f 426/183/272 427/169/272 429/171/272 428/184/272
f 428/184/273 429/171/273 431/173/273 430/185/273
f 421/186/274 419/187/274 433/188/274 431/189/274 429/190/274 427/191/274 425/192/274 423/193/274
f 430/185/275 431/173/275 433/175/275 432/194/275
f 432/194/276 433/175/276 419/177/276 418/195/276
f 418/196/277 420/197/277 422/198/277 424/199/277 426/200/277 428/201/277 430/202/277 432/203/277
f 434/179/278 435/162/278 437/163/278 436/180/278
f 436/180/279 437/163/279 439/165/279 438/181/279
f 438/181/280 439/165/280 441/167/280 440/182/280
f 440/182/281 441/167/281 443/169/281 442/183/281
f 442/183/282 443/169/282 445/171/282 444/184/282
f 444/184/283 445/171/283 447/173/283 446/185/283
f 437/186/274 435/187/274 449/188/274 447/189/274 445/190/274 443/191/274 441/192/274 439/193/274
f 446/185/284 447/173/284 449/175/284 448/194/284
f 448/194/285 449/175/285 435/177/285 434/195/285
f 434/196/277 436/197/277 438/198/277 440/199/277 442/200/277 444/201/277 446/202/277 448/203/277
f 450/179/278 451/162/278 453/163/278 452/180/278
f 452/180/279 453/163/279 455/165/279 454/181/279
f 454/181/280 455/165/280 457/167/280 456/182/280
f 456/182/281 457/167/281 459/169/281 458/183/281
f 458/183/282 459/169/282 461/171/282 460/184/282
f 460/184/283 461/171/283 463/173/283 462/185/283
f 453/186/274 451/187/274 465/188/274 463/189/274 461/190/274 459/191/274 457/192/274 455/193/274
f 462/185/284 463/173/284 465/175/284 464/194/284
f 464/194/285 465/175/285 451/177/285 450/195/285
f 450/196/277 452/197/277 454/198/277 456/199/277 458/200/277 460/201/277 462/202/277 464/203/277
f 466/179/278 467/162/278 469/163/278 468/180/278
f 468/180/279 469/163/279 471/165/279 470/181/279
f 470/181/280 471/165/280 473/167/280 472/182/280
f 472/182/281 473/167/281 475/169/281 474/183/281
f 474/183/282 475/169/282 477/171/282 476/184/282
f 476/184/283 477/171/283 479/173/283 478/185/283
f 469/186/274 467/187/274 481/188/274 479/189/274 477/190/274 475/191/274 473/192/274 471/193/274
f 478/185/284 479/173/284 481/175/284 480/194/284
f 480/194/285 481/175/285 467/177/285 466/195/285
f 466/196/277 468/197/277 470/198/277 472/199/277 474/200/277 476/201/277 478/202/277 480/203/277
f 482/179/278 483/162/278 485/163/278 484/180/278
f 484/180/279 485/163/279 487/165/279 486/181/279
f 486/181/280 487/165/280 489/167/280 488/182/280
f 488/182/281 489/167/281 491/169/281 490/183/281
f 490/183/282 491/169/282 493/171/282 492/184/282
f 492/184/283 493/171/283 495/173/283 494/185/283
f 485/186/274 483/187/274 497/188/274 495/189/274 493/190/274 491/191/274 489/192/274 487/193/274
f 494/185/284 495/173/284 497/175/284 496/194/284
f 496/194/285 497/175/285 483/177/285 482/195/285
f 482/196/277 484/197/277 486/198/277 488/199/277 490/200/277 492/201/277 494/202/277 496/203/277
o Cylinder.014
v 0.000000 -0.100872 -25.970709
v 0.000000 1.632732 -25.970709
v 0.397824 -0.100872 -25.805923
v 0.397824 1.632732 -25.805923
v 0.562608 -0.100872 -25.408100
v 0.562608 1.632732 -25.408100
v 0.397824 -0.100872 -25.010277
v 0.397824 1.632732 -25.010277
v 0.000000 -0.100872 -24.845491
v 0.000000 1.632732 -24.845491
v -0.397824 -0.100872 -25.010277
v -0.397824 1.632732 -25.010277
v -0.562608 -0.100872 -25.408100
v -0.562608 1.632732 -25.408100
v -0.397824 -0.100872 -25.805923
v -0.397824 1.632732 -25.805923
v 0.000000 5.921453 -25.812027
v 0.285620 5.921453 -25.693720
v 0.403928 5.921453 -25.408100
v 0.285620 5.921453 -25.122480
v 0.000000 5.921453 -25.004173
v -0.285620 5.921453 -25.122480
v -0.403928 5.921453 -25.408100
v -0.285620 5.921453 -25.693720
v 0.134664 5.524529 -26.507349
v 0.134664 6.684913 -25.530052
v 0.710884 5.683823 -25.998232
v 0.211059 6.684913 -25.498407
v 1.220001 5.524529 -25.422010
v 0.242703 6.684913 -25.422012
v 0.710884 5.683823 -24.845791
v 0.211059 6.684913 -25.345617
v 0.134664 5.524529 -24.336674
v 0.134664 6.684913 -25.313972
v -0.441557 5.683823 -24.845791
v 0.058269 6.684913 -25.345617
v -0.950674 5.524529 -25.422010
v 0.026625 6.684913 -25.422012
v -0.441557 5.683823 -25.998232
v 0.058269 6.684913 -25.498407
v 0.134664 4.267756 -26.993731
v 0.134664 5.952044 -25.568880
v 1.177932 4.374621 -26.465281
v 0.245294 5.948152 -25.532642
v 1.706383 4.267756 -25.422010
v 0.281532 5.952044 -25.422012
v 1.177932 4.374621 -24.378742
v 0.245294 5.948152 -25.311382
v 0.134664 4.267756 -23.850292
v 0.134664 5.952044 -25.275145
v -0.908605 4.374621 -24.378742
v 0.024033 5.948152 -25.311382
v -1.437055 4.267756 -25.422010
v -0.012204 5.952044 -25.422012
v -0.908605 4.374621 -26.465281
v 0.024033 5.948152 -25.532642
v 0.134664 3.233001 -27.089325
v 0.134664 5.050754 -25.577814
v 1.241385 3.377390 -26.528732
v 0.252023 5.015601 -25.539371
v 1.801977 3.233001 -25.422010
v 0.290464 5.050754 -25.422012
v 1.241385 3.377390 -24.315289
v 0.252023 5.015601 -25.304653
v 0.134664 3.233001 -23.754698
v 0.134664 5.050754 -25.266212
v -0.972058 3.377390 -24.315289
v 0.017304 5.015601 -25.304653
v -1.532650 3.233001 -25.422010
v -0.021137 5.050754 -25.422012
v -0.972058 3.377390 -26.528732
v 0.017304 5.015601 -25.539371
v 0.134664 2.303368 -27.086412
v 0.134664 4.154852 -25.577541
v 1.239452 2.484412 -26.526800
v 0.251818 4.082854 -25.539167
v 1.799064 2.303368 -25.422010
v 0.290192 4.154852 -25.422012
v 1.239452 2.484412 -24.317223
v 0.251818 4.082854 -25.304857
v 0.134664 2.303368 -23.757610
v 0.134664 4.154852 -25.266483
v -0.970125 2.484412 -24.317223
v 0.017509 4.082854 -25.304857
v -1.529737 2.303368 -25.422010
v -0.020865 4.154852 -25.422012
v -0.970125 2.484412 -26.526800
v 0.017509 4.082854 -25.539167
v 0.134664 1.436567 -27.113167
v 0.134664 3.353373 -25.580042
v 1.257211 1.656082 -26.544558
v 0.253701 3.244658 -25.541050
v 1.825819 1.436567 -25.422010
v 0.292692 3.353373 -25.422012
v 1.257211 1.656082 -24.299463
v 0.253701 3.244658 -25.302975
v 0.134664 1.436567 -23.730856
v 0.134664 3.353373 -25.263985
v -0.987884 1.656082 -24.299463
v 0.015626 3.244658 -25.302975
v -1.556491 1.436567 -25.422010
v -0.023365 3.353373 -25.422012
v -0.987884 1.656082 -26.544558
v 0.015626 3.244658 -25.541050
vn 0.3827 -0.0000 -0.9239
vn 0.9239 -0.0000 -0.3827
vn 0.9239 -0.0000 0.3827
vn 0.3827 -0.0000 0.9239
vn -0.3827 -0.0000 0.9239
vn -0.9239 -0.0000 0.3827
vn -0.9239 -0.0000 -0.3827
vn -0.3827 -0.0000 -0.9239
vn 0.3825 0.0342 -0.9233
vn 0.3825 0.0342 0.9233
vn -0.9233 0.0342 -0.3825
vn 0.9233 0.0342 -0.3825
vn -0.3825 0.0342 0.9233
vn -0.3825 0.0342 -0.9233
vn 0.9233 0.0342 0.3825
vn -0.9233 0.0342 0.3825
vn 0.4345 0.5745 -0.6936
vn 0.6936 0.5745 -0.4345
vn 0.6936 0.5745 0.4345
vn 0.4345 0.5745 0.6936
vn -0.4345 0.5745 0.6936
vn -0.6936 0.5745 0.4345
vn -0.0000 1.0000 -0.0000
vn -0.6936 0.5745 -0.4345
vn -0.4345 0.5745 -0.6936
vn -0.0000 -1.0000 -0.0000
vn 0.3020 0.6141 -0.7291
vn 0.7291 0.6141 -0.3020
vn 0.7291 0.6141 0.3020
vn 0.3020 0.6141 0.7291
vn -0.3020 0.6141 0.7291
vn -0.7291 0.6141 0.3020
vn -0.7291 0.6141 -0.3020
vn -0.3020 0.6141 -0.7291
vt 1.000000 0.000000
vt 1.000000 1.000000
vt 0.875000 1.000000
vt 0.875000 0.000000
vt 0.750000 1.000000
vt 0.750000 0.000000
vt 0.625000 1.000000
vt 0.625000 0.000000
vt 0.500000 1.000000
vt 0.500000 0.000000
vt 0.375000 1.000000
vt 0.375000 0.000000
vt 0.250000 1.000000
vt 0.250000 0.000000
vt 0.125000 1.000000
vt 0.125000 0.000000
vt 0.000000 1.000000
vt 0.000000 0.000000
vt 1.000000 0.500000
vt 0.875000 0.500000
vt 0.750000 0.500000
vt 0.625000 0.500000
vt 0.500000 0.500000
vt 0.375000 0.500000
vt 0.250000 0.500000
vt 0.419706 0.419706
vt 0.250000 0.490000
vt 0.080294 0.419706
vt 0.010000 0.250000
vt 0.080294 0.080294
vt 0.250000 0.010000
vt 0.419706 0.080294
vt 0.490000 0.250000
vt 0.125000 0.500000
vt 0.000000 0.500000
vt 0.750000 0.490000
vt 0.919706 0.419706
vt 0.990000 0.250000
vt 0.919706 0.080294
vt 0.750000 0.010000
vt 0.580294 0.080294
vt 0.510000 0.250000
vt 0.580294 0.419706
s 0
f 498/204/286 499/205/286 501/206/286 500/207/286
f 500/207/287 501/206/287 503/208/287 502/209/287
f 502/209/288 503/208/288 505/210/288 504/211/288
f 504/211/289 505/210/289 507/212/289 506/213/289
f 506/213/290 507/212/290 509/214/290 508/215/290
f 508/215/291 509/214/291 511/216/291 510/217/291
f 510/217/292 511/216/292 513/218/292 512/219/292
f 512/219/293 513/218/293 499/220/293 498/221/293
f 501/206/294 499/205/294 514/205/294 515/206/294
f 507/212/295 505/210/295 517/210/295 518/212/295
f 513/218/296 511/216/296 520/216/296 521/218/296
f 503/208/297 501/206/297 515/206/297 516/208/297
f 509/214/298 507/212/298 518/212/298 519/214/298
f 499/220/299 513/218/299 521/218/299 514/220/299
f 505/210/300 503/208/300 516/208/300 517/210/300
f 511/216/301 509/214/301 519/214/301 520/216/301
f 522/222/302 523/205/302 525/206/302 524/223/302
f 524/223/303 525/206/303 527/208/303 526/224/303
f 526/224/304 527/208/304 529/210/304 528/225/304
f 528/225/305 529/210/305 531/212/305 530/226/305
f 530/226/306 531/212/306 533/214/306 532/227/306
f 532/227/307 533/214/307 535/216/307 534/228/307
f 525/229/308 523/230/308 537/231/308 535/232/308 533/233/308 531/234/308 529/235/308 527/236/308
f 534/228/309 535/216/309 537/218/309 536/237/309
f 536/237/310 537/218/310 523/220/310 522/238/310
f 522/239/311 524/240/311 526/241/311 528/242/311 530/243/311 532/244/311 534/245/311 536/246/311
f 538/222/312 539/205/312 541/206/312 540/223/312
f 540/223/313 541/206/313 543/208/313 542/224/313
f 542/224/314 543/208/314 545/210/314 544/225/314
f 544/225/315 545/210/315 547/212/315 546/226/315
f 546/226/316 547/212/316 549/214/316 548/227/316
f 548/227/317 549/214/317 551/216/317 550/228/317
f 541/229/308 539/230/308 553/231/308 551/232/308 549/233/308 547/234/308 545/235/308 543/236/308
f 550/228/318 551/216/318 553/218/318 552/237/318
f 552/237/319 553/218/319 539/220/319 538/238/319
f 538/239/311 540/240/311 542/241/311 544/242/311 546/243/311 548/244/311 550/245/311 552/246/311
f 554/222/312 555/205/312 557/206/312 556/223/312
f 556/223/313 557/206/313 559/208/313 558/224/313
f 558/224/314 559/208/314 561/210/314 560/225/314
f 560/225/315 561/210/315 563/212/315 562/226/315
f 562/226/316 563/212/316 565/214/316 564/227/316
f 564/227/317 565/214/317 567/216/317 566/228/317
f 557/229/308 555/230/308 569/231/308 567/232/308 565/233/308 563/234/308 561/235/308 559/236/308
f 566/228/318 567/216/318 569/218/318 568/237/318
f 568/237/319 569/218/319 555/220/319 554/238/319
f 554/239/311 556/240/311 558/241/311 560/242/311 562/243/311 564/244/311 566/245/311 568/246/311
f 570/222/312 571/205/312 573/206/312 572/223/312
f 572/223/313 573/206/313 575/208/313 574/224/313
f 574/224/314 575/208/314 577/210/314 576/225/314
f 576/225/315 577/210/315 579/212/315 578/226/315
f 578/226/316 579/212/316 581/214/316 580/227/316
f 580/227/317 581/214/317 583/216/317 582/228/317
f 573/229/308 571/230/308 585/231/308 583/232/308 581/233/308 579/234/308 577/235/308 575/236/308
f 582/228/318 583/216/318 585/218/318 584/237/318
f 584/237/319 585/218/319 571/220/319 570/238/319
f 570/239/311 572/240/311 574/241/311 576/242/311 578/243/311 580/244/311 582/245/311 584/246/311
f 586/222/312 587/205/312 589/206/312 588/223/312
f 588/223/313 589/206/313 591/208/313 590/224/313
f 590/224/314 591/208/314 593/210/314 592/225/314
f 592/225/315 593/210/315 595/212/315 594/226/315
f 594/226/316 595/212/316 597/214/316 596/227/316
f 596/227/317 597/214/317 599/216/317 598/228/317
f 589/229/308 587/230/308 601/231/308 599/232/308 597/233/308 595/234/308 593/235/308 591/236/308
f 598/228/318 599/216/318 601/218/318 600/237/318
f 600/237/319 601/218/319 587/220/319 586/238/319
f 586/239/311 588/240/311 590/241/311 592/242/311 594/243/311 596/244/311 598/245/311 600/246/311
o Icosphere
v 0.576785 1.890002 -30.589058
v 0.468971 0.381455 -29.728809
v 1.164336 0.433035 -31.826534
v 0.578358 0.152853 -29.897566
v -0.368082 0.565568 -31.499851
v 1.675668 0.635496 -30.015133
v 1.548809 0.867501 -31.054146
v 1.275732 1.220787 -29.908678
v -0.599202 0.642497 -30.618376
v 0.252055 1.426178 -30.145149
v -0.168933 0.964223 -31.923641
v -0.398162 1.295815 -31.479626
v 0.968059 0.909545 -31.886065
v 1.296059 1.606044 -30.781296
v 0.525636 1.636845 -31.520981
vn -0.1226 -0.9762 -0.1790
vn -0.1464 0.3398 0.9290
vn 0.7978 0.2607 -0.5437
vn 0.2918 0.9189 -0.2656
vn -0.3462 0.9100 -0.2282
vn -0.6616 0.7057 0.2534
vn -0.0244 0.7001 0.7136
vn 0.4253 0.8242 0.3738
vn 0.0518 0.4730 -0.8795
vn -0.2850 0.6916 -0.6636
vn 0.6501 0.5407 -0.5339
vn -0.7308 0.6151 0.2960
vn 0.8204 0.5157 0.2468
vn 0.0274 -0.1128 -0.9932
vn -0.8957 -0.0246 -0.4440
vn -0.9675 -0.0329 -0.2508
vn -0.6019 0.1846 0.7769
vn 0.2342 -0.0168 0.9720
vn 0.9408 0.3366 -0.0397
vn 0.8836 -0.4224 -0.2022
vn -0.2107 -0.6607 -0.7205
vn -0.3748 -0.9269 -0.0174
vn -0.5756 -0.6458 0.5017
vn 0.4016 -0.9157 -0.0110
vn 0.2963 -0.4714 0.8306
vt 0.545455 0.000000
vt 0.590909 0.078731
vt 0.480175 0.155045
vt 0.110120 0.157461
vt 0.223011 0.273677
vt 0.056669 0.294052
vt 0.477386 0.155045
vt 0.523749 0.236191
vt 0.409092 0.236191
vt 0.410945 0.345666
vt 0.572574 0.342031
vt 0.454546 0.472382
vt 0.757956 0.288436
vt 0.648674 0.451061
vt 0.921140 0.294052
vt 0.838450 0.418683
vt 0.090358 0.393651
vt 0.247092 0.427979
vt 0.375444 0.345666
vt 0.676842 0.227572
vt 0.826829 0.172439
vt 0.293983 0.183732
vt 0.727012 0.157008
vt 0.984295 0.157461
vt 0.728120 0.001467
vt 0.952553 0.078212
vt 0.357524 0.010588
vt 0.148854 0.078274
s 0
f 605/247/320 606/248/320 604/249/320
f 603/250/321 609/251/321 611/252/321
f 604/253/322 614/254/322 608/255/322
f 615/256/323 616/257/323 602/258/323
f 616/257/324 613/259/324 602/260/324
f 613/259/325 611/261/325 602/262/325
f 611/252/326 609/251/326 602/263/326
f 602/264/327 609/251/327 615/265/327
f 614/254/328 612/266/328 616/257/328
f 612/266/329 613/259/329 616/257/329
f 615/265/330 608/255/330 614/254/330 616/257/330
f 610/267/331 611/261/331 613/259/331
f 607/268/332 615/265/332 609/251/332
f 604/253/333 612/266/333 614/254/333
f 612/266/334 606/269/334 613/259/334
f 606/269/335 610/267/335 613/259/335
f 610/267/336 603/270/336 611/261/336
f 603/250/337 607/268/337 609/251/337
f 607/268/338 608/255/338 615/265/338
f 607/268/339 604/253/339 608/255/339
f 606/248/340 612/266/340 604/253/340
f 605/271/341 610/267/341 606/269/341
f 605/272/342 603/270/342 610/267/342
f 607/268/343 605/273/343 604/253/343
f 605/274/344 607/268/344 603/250/344
o Icosphere.001
v 1.445081 2.027277 -34.265617
v 0.475564 2.320469 -34.193573
v 0.520387 0.308446 -33.354111
v -0.360204 0.563549 -34.993980
v 1.644030 0.623804 -33.493298
v 1.625960 0.980049 -34.736668
v 1.208135 1.211581 -33.165737
v -0.591174 0.489686 -34.256714
v -0.354915 1.661600 -33.635876
v -0.174938 0.966615 -35.415234
v -0.360781 1.227302 -35.191738
v 1.152767 0.426884 -35.324940
v 0.723337 1.630397 -35.423878
v 1.481574 1.947986 -34.971836
v 0.738525 1.571525 -33.028229
vn -0.0645 -0.9907 -0.1195
vn -0.1101 -0.9894 -0.0948
vn -0.4898 -0.1375 0.8609
vn -0.6861 0.7013 -0.1932
vn -0.3936 0.7657 -0.5087
vn -0.0652 0.8647 -0.4981
vn -0.2478 0.7886 0.5627
vn 0.2872 0.8340 0.4712
vn 0.6023 0.5736 0.5552
vn 0.9873 0.1554 0.0336
vn -0.3454 0.4567 -0.8199
vn -0.9719 0.2277 -0.0599
vn 0.8201 0.3607 0.4442
vn 0.0403 -0.0676 -0.9969
vn -0.8410 -0.1552 -0.5183
vn -0.9476 -0.0920 -0.3061
vn -0.6340 -0.2583 0.7289
vn 0.0807 -0.2621 0.9617
vn 0.2116 -0.3513 0.9120
vn 0.9872 0.1568 0.0306
vn 0.8293 -0.5339 -0.1650
vn -0.2174 -0.6557 -0.7230
vn 0.2735 -0.9614 0.0300
vn 0.6257 0.0455 -0.7787
vn 0.2819 0.9550 -0.0927
vt 0.727273 0.000000
vt 0.819020 0.158912
vt 0.726513 0.156145
vt 0.545455 0.000000
vt 0.590909 0.078731
vt 0.495070 0.160257
vt 0.145987 0.088309
vt 0.175015 0.314913
vt 0.006526 0.311049
vt 0.728752 0.291530
vt 0.909237 0.311049
vt 0.833688 0.393651
vt 0.556680 0.295479
vt 0.656640 0.424382
vt 0.454546 0.314921
vt 0.462421 0.458741
vt 0.066916 0.430823
vt 0.181814 0.314913
vt 0.327222 0.377994
vt 0.272728 0.472382
vt 0.244236 0.265571
vt 0.409092 0.236191
vt 0.400051 0.377994
vt 0.677068 0.227963
vt 0.290431 0.175256
vt 0.948721 0.081856
vt 0.491052 0.160257
vt 0.326721 0.063942
s 0
f 619/275/345 624/276/345 620/277/345
f 619/278/346 620/279/346 628/280/346
f 619/281/347 631/282/347 625/283/347
f 627/284/348 625/285/348 618/286/348
f 629/287/349 627/284/349 618/288/349
f 630/289/350 629/287/350 618/290/350
f 618/291/351 625/283/351 631/282/351
f 631/292/352 617/293/352 618/294/352
f 631/292/353 623/295/353 617/293/353
f 622/296/354 630/289/354 617/297/354
f 629/287/355 626/298/355 627/284/355
f 627/284/356 624/276/356 625/285/356
f 621/299/357 617/297/357 623/295/357
f 628/280/358 626/298/358 629/287/358
f 626/298/359 620/277/359 627/284/359
f 620/277/360 624/276/360 627/284/360
f 624/276/361 619/300/361 625/285/361
f 631/282/362 619/281/362 623/295/362
f 619/281/363 621/299/363 623/295/363
f 621/299/364 622/296/364 617/297/364
f 621/299/365 628/301/365 622/296/365
f 620/279/366 626/298/366 628/280/366
f 621/299/367 619/302/367 628/301/367
f 630/289/368 622/296/368 628/280/368 629/287/368
f 630/289/369 618/290/369 617/297/369
o Icosphere.002
v -0.082819 2.684801 -37.692871
v 1.366807 0.397408 -38.800888
v 0.578358 0.152853 -37.157307
v 1.629535 0.640667 -37.249847
v 1.251751 0.635531 -37.028969
v -0.552506 0.574374 -37.869621
v 0.365293 0.471160 -37.046024
v -0.161832 0.890873 -39.119026
v -0.535159 0.568294 -38.622536
v 0.941791 0.528904 -39.169720
v 1.661958 2.438195 -38.386646
v 1.272516 2.101584 -37.465961
v 1.149150 2.921109 -38.196281
v -0.033097 2.643193 -38.978539
v 0.908972 2.714056 -38.890404
vn 0.4250 -0.9025 0.0696
vn -0.1060 -0.9749 -0.1959
vn 0.1671 0.6699 0.7234
vn -0.0470 0.9616 -0.2706
vn -0.2038 0.9782 -0.0395
vn 0.6128 0.0908 -0.7850
vn 0.6876 0.5380 0.4876
vn 0.0829 0.1276 -0.9884
vn -0.0191 0.0813 -0.9965
vn -0.9727 0.2276 -0.0450
vn -0.9754 0.2191 -0.0242
vn -0.0439 0.2720 0.9613
vn 0.4871 0.2431 0.8388
vn 0.8456 0.2744 0.4580
vn -0.8264 0.1051 -0.5532
vn -0.6602 0.0844 0.7463
vn -0.0714 0.2859 0.9556
vn 0.9825 -0.1119 -0.1489
vn -0.1078 -0.9692 -0.2213
vn -0.2621 -0.7072 -0.6566
vn -0.3490 -0.9371 -0.0005
vn -0.5770 -0.5854 0.5696
vn 0.0386 -0.3067 0.9510
vn 0.3737 -0.6870 0.6232
vn 0.5417 0.7356 -0.4068
vt 0.288036 0.183975
vt 0.357524 0.010588
vt 0.430495 0.178081
vt 0.545455 0.000000
vt 0.590909 0.078731
vt 0.456448 0.154167
vt 0.000000 0.314921
vt 0.234892 0.313439
vt 0.081890 0.456760
vt 0.559763 0.339704
vt 0.660887 0.315336
vt 0.636364 0.472382
vt 0.829890 0.314921
vt 0.827201 0.456760
vt 0.417016 0.314921
vt 0.537892 0.173407
vt 0.531147 0.339704
vt 0.302346 0.421081
vt 0.660252 0.198837
vt 0.739511 0.178659
vt 0.824312 0.168079
vt 0.074845 0.187394
vt 0.203755 0.195455
vt 0.967674 0.159230
vt 0.728120 0.001467
vt 0.952553 0.078212
vt 0.148854 0.078274
vt 0.424928 0.421081
s 0
f 635/303/370 634/304/370 633/305/370
f 634/306/371 640/307/371 633/308/371
f 632/309/372 643/310/372 644/311/372
f 646/312/373 645/313/373 644/314/373
f 645/313/374 632/315/374 644/316/374
f 642/317/375 633/305/375 641/318/375 646/319/375
f 643/310/376 642/317/376 644/320/376
f 641/318/377 645/313/377 646/319/377
f 641/318/378 639/321/378 645/313/378
f 640/322/379 632/315/379 645/313/379
f 640/322/380 637/323/380 632/315/380
f 638/324/381 643/310/381 632/309/381
f 636/325/382 635/303/382 643/310/382
f 635/303/383 642/317/383 643/310/383
f 639/321/384 640/322/384 645/313/384
f 637/323/385 638/326/385 632/315/385
f 638/324/386 636/325/386 643/310/386
f 635/303/387 633/305/387 642/317/387
f 633/308/388 640/307/388 641/318/388
f 640/307/389 639/321/389 641/318/389
f 634/327/390 637/323/390 640/322/390
f 634/328/391 638/326/391 637/323/391
f 634/329/392 636/325/392 638/324/392
f 634/329/393 635/303/393 636/325/393
f 642/317/394 646/319/394 644/330/394
o Cube.001
v 0.715737 -0.211581 -41.987541
v 0.745642 0.513766 -42.083282
v 0.709943 -0.208047 -42.604118
v 0.720696 0.528977 -42.638546
v 0.819757 -0.211581 -41.987541
v 0.849661 0.513766 -42.083282
v 0.813962 -0.208047 -42.604118
v 0.824716 0.528977 -42.638546
v 0.841717 1.907762 -42.261501
v 0.841308 1.906614 -42.484917
v 0.878444 1.906978 -42.486488
v 0.879017 1.907996 -42.263115
v 0.615854 2.522829 -42.464203
v 0.617871 2.527499 -42.523403
v 0.627575 2.527699 -42.524342
v 0.625598 2.522929 -42.465149
v 0.611298 2.695151 -42.544926
v 0.610888 2.701035 -42.568340
v 0.614772 2.700837 -42.568985
v 0.615208 2.694963 -42.545498
v 0.352632 -0.189558 -41.922913
v 0.352632 0.554023 -41.922913
v 0.352632 -0.189558 -42.558041
v 0.352632 0.554023 -42.558041
v 0.456651 -0.189558 -41.922913
v 0.456651 0.554023 -41.922913
v 0.456651 -0.189558 -42.558041
v 0.456651 0.554023 -42.558041
v 0.379118 1.939116 -41.847610
v 0.379118 1.939116 -42.071461
v 0.415780 1.939116 -42.071461
v 0.415780 1.939116 -41.847610
v 0.432454 3.001507 -41.644329
v 0.429984 3.013631 -41.703068
v 0.439795 3.013242 -41.704315
v 0.442267 3.001112 -41.645576
v 0.449853 3.243299 -41.593140
v 0.448685 3.249098 -41.616245
v 0.452582 3.248922 -41.616848
v 0.453750 3.243123 -41.593739
v 0.371826 -0.148366 -42.633972
v 0.487670 0.559247 -42.729145
v 0.364288 -0.144833 -43.250511
v 0.462267 0.574396 -43.284389
v 0.475845 -0.148366 -42.633972
v 0.587120 0.558628 -42.728966
v 0.468308 -0.144833 -43.250511
v 0.562149 0.573836 -43.284229
v 0.415257 1.946864 -42.908787
v 0.434333 1.945990 -43.133152
v 0.460190 1.946463 -43.134319
v 0.442416 1.947277 -42.909988
v 0.662476 2.580700 -43.114838
v 0.662284 2.586100 -43.173233
v 0.672049 2.586269 -43.174191
v 0.672268 2.580779 -43.115799
v 0.642964 2.756765 -43.190311
v 0.642897 2.762519 -43.213413
v 0.646812 2.762320 -43.214054
v 0.646934 2.756575 -43.190887
vn -0.0000 -0.0467 -0.9989
vn -0.0000 0.1309 0.9914
vn 0.0490 0.3294 0.9429
vn 0.0111 0.1269 0.9919
vn -0.0114 0.1110 -0.9938
vn -0.0523 -0.0812 -0.9953
vn 0.9996 0.0066 -0.0267
vn -0.9994 0.0218 0.0270
vn 0.1027 0.4251 0.8993
vn -0.1117 -0.2546 -0.9606
vn -0.0000 -0.0000 -1.0000
vn -0.0000 -0.0000 1.0000
vn 0.0248 -0.1883 0.9818
vn -0.0000 -0.0543 0.9985
vn -0.0000 0.3314 -0.9435
vn -0.0226 0.3245 -0.9456
vn 0.9999 0.0114 -0.0016
vn -0.9999 0.0154 0.0018
vn 0.1220 -0.2137 0.9693
vn -0.1109 0.3513 -0.9297
vn 0.0007 -0.0470 -0.9989
vn -0.0005 0.1333 0.9911
vn 0.0521 0.2909 0.9553
vn 0.0082 0.1295 0.9916
vn -0.0079 0.1087 -0.9940
vn -0.0587 -0.0421 -0.9974
vn 0.9991 -0.0401 -0.0109
vn -0.9974 0.0719 0.0106
vn 0.1048 0.4025 0.9094
vn -0.1136 -0.2337 -0.9657
vt 0.375000 0.250000
vt 0.625000 0.250000
vt 0.625000 0.500000
vt 0.375000 0.500000
vt 0.375000 0.750000
vt 0.625000 0.750000
vt 0.625000 1.000000
vt 0.375000 1.000000
vt 0.625000 0.000000
vt 0.375000 0.000000
s 0
f 649/331/395 650/332/395 654/333/395 653/334/395
f 651/335/396 652/336/396 648/337/396 647/338/396
f 655/337/397 658/336/397 662/336/397 659/337/397
f 648/337/398 652/336/398 658/336/398 655/337/398
f 654/333/399 650/332/399 656/332/399 657/333/399
f 657/333/400 656/332/400 660/332/400 661/333/400
f 654/333/401 657/333/401 661/333/401 665/333/401 666/336/401 662/336/401 658/336/401 652/336/401 651/335/401 653/334/401
f 648/339/402 655/339/402 659/339/402 663/339/402 664/332/402 660/332/402 656/332/402 650/332/402 649/331/402 647/340/402
f 659/337/403 662/336/403 666/336/403 663/337/403
f 661/333/404 660/332/404 664/332/404 665/333/404
f 669/331/405 670/332/405 674/333/405 673/334/405
f 671/335/406 672/336/406 668/337/406 667/338/406
f 675/337/407 678/336/407 682/336/407 679/337/407
f 668/337/408 672/336/408 678/336/408 675/337/408
f 674/333/409 670/332/409 676/332/409 677/333/409
f 677/333/410 676/332/410 680/332/410 681/333/410
f 674/333/411 677/333/411 681/333/411 685/333/411 686/336/411 682/336/411 678/336/411 672/336/411 671/335/411 673/334/411
f 668/339/412 675/339/412 679/339/412 683/339/412 684/332/412 680/332/412 676/332/412 670/332/412 669/331/412 667/340/412
f 679/337/413 682/336/413 686/336/413 683/337/413
f 681/333/414 680/332/414 684/332/414 685/333/414
f 689/331/415 690/332/415 694/333/415 693/334/415
f 691/335/416 692/336/416 688/337/416 687/338/416
f 695/337/417 698/336/417 702/336/417 699/337/417
f 688/337/418 692/336/418 698/336/418 695/337/418
f 694/333/419 690/332/419 696/332/419 697/333/419
f 697/333/420 696/332/420 700/332/420 701/333/420
f 694/333/421 697/333/421 701/333/421 705/333/421 706/336/421 702/336/421 698/336/421 692/336/421 691/335/421 693/334/421
f 688/339/422 695/339/422 699/339/422 703/339/422 704/332/422 700/332/422 696/332/422 690/332/422 689/331/422 687/340/422
f 699/337/423 702/336/423 706/336/423 703/337/423
f 701/333/424 700/332/424 704/332/424 705/333/424
