# Blender 5.0.1
# www.blender.org
mtllib Второй дом.mtl
g Куб.002_Куб.095
v -1.854958 0.784073 -2.613419
v -1.854958 4.960275 -2.613419
v -1.854958 0.784073 -3.067929
v -1.854958 4.584073 -3.067929
v -1.454958 0.784073 -2.613419
v -1.454958 4.960275 -2.613419
v -1.454958 0.784073 -3.067929
v -1.454958 4.584073 -3.067929
v 4.445474 0.744644 -4.811086
v 4.445474 0.888376 -4.811086
v 4.616463 0.744644 -4.811086
v 4.616463 0.888376 -4.811086
v 4.445474 0.744644 4.328069
v 4.445474 0.888376 4.328069
v 4.616463 0.744644 4.328069
v 4.616463 0.888376 4.328069
v -4.569581 0.744644 -4.638549
v -4.569581 0.888376 -4.638549
v -4.569581 0.744644 -4.809537
v -4.569581 0.888376 -4.809537
v 4.569578 0.744644 -4.638549
v 4.569578 0.888376 -4.638549
v 4.569578 0.744644 -4.809537
v 4.569578 0.888376 -4.809537
v -4.569581 -0.037839 -4.638549
v -4.569581 0.105893 -4.638549
v -4.569581 -0.037839 -4.809537
v -4.569581 0.105893 -4.809537
v 4.569578 -0.037839 -4.638549
v 4.569578 0.105893 -4.638549
v 4.569578 -0.037839 -4.809537
v 4.569578 0.105893 -4.809537
v -4.574765 -0.037839 4.351540
v -4.574765 0.105893 4.351540
v -4.403774 -0.037839 -4.787615
v -4.403774 0.105893 -4.787615
v -4.574763 -0.037839 -4.787615
v -4.574763 0.105893 -4.787615
v -4.403775 0.744644 4.351540
v -4.403775 0.888376 4.351540
v -4.574765 0.744644 4.351540
v -4.574765 0.888376 4.351540
v -4.403774 0.744644 -4.787615
v -4.403774 0.888376 -4.787615
v -4.574763 0.744644 -4.787615
v -4.574763 0.888376 -4.787615
v 4.445474 -0.037839 -4.811086
v 4.445474 0.105893 -4.811086
v 4.616463 -0.037839 -4.811086
v 4.616463 0.105893 -4.811086
v 4.445474 -0.037839 4.328069
v 4.445474 0.105893 4.328069
v 4.616463 -0.037839 4.328069
v 4.616463 0.105893 4.328069
v 4.611278 -0.037839 4.176832
v 4.611278 0.105893 4.176832
v 4.611278 -0.037839 4.347821
v 4.611278 0.105893 4.347821
v -4.527881 -0.037839 4.176831
v -4.527881 0.105893 4.176831
v -4.527881 -0.037839 4.347820
v -4.527881 0.105893 4.347820
v 4.611278 0.744644 4.176832
v 4.611278 0.888376 4.176832
v 4.611278 0.744644 4.347821
v 4.611278 0.888376 4.347821
v -4.527881 0.744644 4.176831
v -4.527881 0.888376 4.176831
v -4.527881 0.744644 4.347820
v -4.527881 0.888376 4.347820
v -4.434034 -0.030888 -4.630942
v -4.577766 -0.030888 -4.630942
v -4.434034 -0.030888 -4.801930
v -4.577766 -0.030888 -4.801930
v -4.434034 0.758695 -4.630942
v -4.577766 0.758695 -4.630942
v -4.434034 0.758695 -4.801930
v -4.577766 0.758695 -4.801930
v -4.434034 -0.030888 4.324051
v -4.577766 -0.030888 4.324051
v -4.434034 -0.030888 4.153062
v -4.577766 -0.030888 4.153062
v -4.434034 0.758695 4.324051
v -4.577766 0.758695 4.324051
v -4.434034 0.758695 4.153062
v -4.577766 0.758695 4.153062
v 4.606678 -0.030888 4.324051
v 4.462945 -0.030888 4.324051
v 4.606678 -0.030888 4.153062
v 4.462945 -0.030888 4.153062
v 4.606678 0.758695 4.324051
v 4.462945 0.758695 4.324051
v 4.606678 0.758695 4.153062
v 4.462945 0.758695 4.153062
v 4.606678 -0.030888 -4.630942
v 4.462945 -0.030888 -4.630942
v 4.606678 -0.030888 -4.801930
v 4.462945 -0.030888 -4.801930
v 4.606678 0.758695 -4.630942
v 4.462945 0.758695 -4.630942
v 4.606678 0.758695 -4.801930
v 4.462945 0.758695 -4.801930
v 3.006677 -0.030888 4.324051
v 2.862944 -0.030888 4.324051
v 3.006677 -0.030888 4.153062
v 2.862944 -0.030888 4.153062
v 3.006677 0.758695 4.324051
v 2.862945 0.758695 4.324051
v 3.006677 0.758695 4.153062
v 2.862945 0.758695 4.153062
v 1.006676 -0.030888 4.324051
v 0.862944 -0.030888 4.324051
v 1.006676 -0.030888 4.153062
v 0.862944 -0.030888 4.153062
v 1.006676 0.758695 4.324051
v 0.862944 0.758695 4.324051
v 1.006676 0.758695 4.153062
v 0.862944 0.758695 4.153062
v -2.893325 -0.030888 4.324051
v -3.037056 -0.030888 4.324051
v -2.893325 -0.030888 4.153062
v -3.037056 -0.030888 4.153062
v -2.893325 0.758695 4.324051
v -3.037056 0.758695 4.324051
v -2.893325 0.758695 4.153062
v -3.037056 0.758695 4.153062
v -0.893325 -0.030888 4.324051
v -1.037057 -0.030888 4.324051
v -0.893325 -0.030888 4.153062
v -1.037057 -0.030888 4.153062
v -0.893325 0.758695 4.324051
v -1.037057 0.758695 4.324051
v -0.893325 0.758695 4.153062
v -1.037057 0.758695 4.153062
v -2.893325 -0.030888 -4.639787
v -3.037056 -0.030888 -4.639787
v -2.893325 -0.030888 -4.810775
v -3.037056 -0.030888 -4.810775
v -2.893325 0.758695 -4.639787
v -3.037056 0.758695 -4.639787
v -2.893325 0.758695 -4.810775
v -3.037056 0.758695 -4.810775
v 1.006676 -0.030888 -4.639787
v 0.862944 -0.030888 -4.639787
v 1.006676 -0.030888 -4.810775
v 0.862944 -0.030888 -4.810775
v 1.006676 0.758695 -4.639787
v 0.862944 0.758695 -4.639787
v 1.006676 0.758695 -4.810775
v 0.862944 0.758695 -4.810775
v 3.006677 -0.030888 -4.639787
v 2.862944 -0.030888 -4.639787
v 3.006677 -0.030888 -4.810775
v 2.862944 -0.030888 -4.810775
v 3.006677 0.758695 -4.639787
v 2.862945 0.758695 -4.639787
v 3.006677 0.758695 -4.810775
v 2.862945 0.758695 -4.810775
v 4.617851 -0.030888 0.634773
v 4.617851 -0.030888 0.778505
v 4.446862 -0.030888 0.634773
v 4.446862 -0.030888 0.778505
v 4.617851 0.758695 0.634773
v 4.617851 0.758695 0.778505
v 4.446862 0.758695 0.634773
v 4.446862 0.758695 0.778505
v 4.617851 -0.030888 2.634772
v 4.617851 -0.030888 2.778505
v 4.446862 -0.030888 2.634772
v 4.446862 -0.030888 2.778505
v 4.617851 0.758695 2.634772
v 4.617851 0.758695 2.778505
v 4.446862 0.758695 2.634772
v 4.446862 0.758695 2.778505
v -4.411617 -0.030888 -3.265229
v -4.411617 -0.030888 -3.121496
v -4.582606 -0.030888 -3.265229
v -4.582606 -0.030888 -3.121496
v -4.411617 0.758695 -3.265229
v -4.411617 0.758695 -3.121496
v -4.582606 0.758695 -3.265229
v -4.582606 0.758695 -3.121496
v -4.411617 -0.030888 -1.265228
v -4.411617 -0.030888 -1.121496
v -4.582606 -0.030888 -1.265228
v -4.582606 -0.030888 -1.121496
v -4.411617 0.758695 -1.265228
v -4.411617 0.758695 -1.121496
v -4.582606 0.758695 -1.265228
v -4.582606 0.758695 -1.121496
v -4.411617 -0.030888 2.634771
v -4.411617 -0.030888 2.778504
v -4.582606 -0.030888 2.634772
v -4.582606 -0.030888 2.778504
v -4.411617 0.758695 2.634771
v -4.411617 0.758695 2.778504
v -4.582606 0.758695 2.634772
v -4.582606 0.758695 2.778504
v 4.617851 -0.030888 -1.265228
v 4.617851 -0.030888 -1.121496
v 4.446862 -0.030888 -1.265228
v 4.446862 -0.030888 -1.121496
v 4.617851 0.758695 -1.265228
v 4.617851 0.758695 -1.121496
v 4.446862 0.758695 -1.265228
v 4.446862 0.758695 -1.121496
v -4.411617 -0.030888 0.634772
v -4.411617 -0.030888 0.778504
v -4.582606 -0.030888 0.634772
v -4.582606 -0.030888 0.778504
v -4.411617 0.758695 0.634772
v -4.411617 0.758695 0.778504
v -4.582606 0.758695 0.634772
v -4.582606 0.758695 0.778504
v 4.617851 -0.030888 -3.265228
v 4.617851 -0.030888 -3.121496
v 4.446862 -0.030888 -3.265228
v 4.446862 -0.030888 -3.121496
v 4.617851 0.758695 -3.265228
v 4.617851 0.758695 -3.121496
v 4.446862 0.758695 -3.265228
v 4.446862 0.758695 -3.121496
v -4.474847 0.775927 4.285780
v -4.474847 0.861052 4.285780
v -4.474847 0.775927 -4.724378
v -4.474847 0.861052 -4.724378
v 4.474847 0.775927 4.285780
v 4.474847 0.861052 4.285780
v 4.474847 0.775927 -4.724378
v 4.474847 0.861052 -4.724378
v -4.428902 0.877124 -4.628037
v -4.572635 0.877124 -4.628037
v -4.428902 0.877124 -4.799026
v -4.572635 0.877124 -4.799026
v -4.428902 1.666707 -4.628037
v -4.572635 1.666707 -4.628037
v -4.428902 1.666707 -4.799026
v -4.572635 1.666707 -4.799026
v -4.569583 1.654950 -4.638549
v -4.569583 1.798682 -4.638549
v -4.569583 1.654950 -4.809538
v -4.569583 1.798682 -4.809538
v 4.569579 1.654950 -4.638549
v 4.569579 1.798682 -4.638549
v 4.569579 1.654950 -4.809538
v 4.569579 1.798682 -4.809538
v 4.611279 1.654950 4.176832
v 4.611279 1.798682 4.176832
v 4.611279 1.654950 4.347821
v 4.611279 1.798682 4.347821
v -4.527883 1.654950 4.176830
v -4.527883 1.798682 4.176830
v -4.527883 1.654950 4.347820
v -4.527883 1.798682 4.347820
v -4.434037 1.669002 -4.630942
v -4.577769 1.669002 -4.630942
v -4.434037 1.669002 -4.801931
v -4.577769 1.669002 -4.801931
v -4.434037 1.669002 4.324050
v -4.577769 1.669002 4.324050
v -4.434037 1.669002 4.153062
v -4.577769 1.669002 4.153062
v 4.606678 1.669002 4.324050
v 4.462946 1.669002 4.324050
v 4.606678 1.669002 4.153062
v 4.462946 1.669002 4.153062
v 4.606678 1.669002 -4.630942
v 4.462946 1.669002 -4.630942
v 4.606678 1.669002 -4.801931
v 4.462946 1.669002 -4.801931
v 4.446863 1.669002 0.634772
v 4.446863 1.669002 0.778504
v 4.446863 1.669002 2.634771
v 4.446863 1.669002 2.778504
v 4.446863 1.669002 -1.265229
v 4.446863 1.669002 -1.121496
v 4.446863 1.669002 -3.265229
v 4.446863 1.669002 -3.121496
v 4.445475 1.654950 -4.811086
v 4.445475 1.798682 -4.811086
v 4.616464 1.654950 -4.811086
v 4.616464 1.798682 -4.811086
v 4.445475 1.654950 4.328068
v 4.445475 1.798682 4.328068
v 4.616464 1.654950 4.328068
v 4.616464 1.798682 4.328068
v 3.006677 0.866978 4.324050
v 2.862945 0.866978 4.324050
v 3.006677 0.866978 4.153062
v 2.862945 0.866978 4.153062
v 3.006678 1.656561 4.324050
v 2.862945 1.656561 4.324050
v 3.006678 1.656561 4.153062
v 2.862945 1.656561 4.153062
v 1.006676 0.866978 4.324050
v 0.862944 0.866978 4.324050
v 1.006676 0.866978 4.153062
v 0.862944 0.866978 4.153062
v 1.006676 1.656561 4.324050
v 0.862944 1.656561 4.324050
v 1.006676 1.656561 4.153062
v 0.862944 1.656561 4.153062
v -2.893326 0.866978 4.324050
v -3.037057 0.866978 4.324050
v -2.893326 0.866978 4.153062
v -3.037057 0.866978 4.153062
v -2.893326 1.656561 4.324050
v -3.037057 1.656561 4.324050
v -2.893326 1.656561 4.153062
v -3.037057 1.656561 4.153062
v -0.893325 0.866978 4.324050
v -1.037058 0.866978 4.324050
v -0.893325 0.866978 4.153062
v -1.037058 0.866978 4.153062
v -0.893325 1.656561 4.324050
v -1.037058 1.656561 4.324050
v -0.893325 1.656561 4.153062
v -1.037058 1.656561 4.153062
v -0.893325 0.866978 -4.639787
v -1.037058 0.866978 -4.639787
v -0.893325 0.866978 -4.810776
v -1.037058 0.866978 -4.810776
v -0.893325 1.656561 -4.639787
v -1.037058 1.656561 -4.639787
v -0.893325 1.656561 -4.810776
v -1.037058 1.656561 -4.810776
v -2.893326 0.866978 -4.639787
v -3.037057 0.866978 -4.639787
v -2.893326 0.866978 -4.810776
v -3.037057 0.866978 -4.810776
v -2.893326 1.656561 -4.639787
v -3.037057 1.656561 -4.639787
v -2.893326 1.656561 -4.810776
v -3.037057 1.656561 -4.810776
v 1.006676 0.866978 -4.639787
v 0.862944 0.866978 -4.639787
v 1.006676 0.866978 -4.810776
v 0.862944 0.866978 -4.810776
v 1.006676 1.656561 -4.639787
v 0.862944 1.656561 -4.639787
v 1.006676 1.656561 -4.810776
v 0.862944 1.656561 -4.810776
v 3.006677 0.866978 -4.639787
v 2.862945 0.866978 -4.639787
v 3.006677 0.866978 -4.810776
v 2.862945 0.866978 -4.810776
v 3.006677 1.656561 -4.639787
v 2.862945 1.656561 -4.639787
v 3.006677 1.656561 -4.810776
v 2.862945 1.656561 -4.810776
v 4.617852 0.866978 0.634772
v 4.617852 0.866978 0.778504
v 4.446863 0.866978 0.634772
v 4.446863 0.866978 0.778504
v 4.617852 1.656561 0.634772
v 4.617852 1.656561 0.778504
v 4.446863 1.656561 0.634772
v 4.446863 1.656561 0.778504
v 4.617852 0.866978 2.634771
v 4.617852 0.866978 2.778504
v 4.446863 0.866978 2.634771
v 4.446863 0.866978 2.778504
v 4.617852 1.656561 2.634771
v 4.617852 1.656561 2.778504
v 4.446863 1.656561 2.634771
v 4.446863 1.656561 2.778504
v -4.411618 0.866978 -3.265229
v -4.411618 0.866978 -3.121497
v -4.582608 0.866978 -3.265229
v -4.582608 0.866978 -3.121497
v -4.411618 1.656561 -3.265229
v -4.411618 1.656561 -3.121497
v -4.582608 1.656561 -3.265229
v -4.582608 1.656561 -3.121497
v -4.411618 0.866978 -1.265229
v -4.411618 0.866978 -1.121497
v -4.582608 0.866978 -1.265229
v -4.582608 0.866978 -1.121497
v -4.411618 1.656561 -1.265229
v -4.411618 1.656561 -1.121497
v -4.582608 1.656561 -1.265229
v -4.582608 1.656561 -1.121497
v -4.411618 0.866978 2.634771
v -4.411618 0.866978 2.778503
v -4.582608 0.866978 2.634771
v -4.582608 0.866978 2.778504
v -4.411618 1.656561 2.634771
v -4.411618 1.656561 2.778503
v -4.582608 1.656561 2.634771
v -4.582608 1.656561 2.778504
v 4.617851 0.866978 -1.265228
v 4.617851 0.866978 -1.121496
v 4.446863 0.866978 -1.265229
v 4.446863 0.866978 -1.121496
v 4.617851 1.656561 -1.265228
v 4.617851 1.656561 -1.121496
v 4.446863 1.656561 -1.265229
v 4.446863 1.656561 -1.121496
v -4.411618 0.866978 0.634771
v -4.411618 0.866978 0.778503
v -4.582608 0.866978 0.634771
v -4.582608 0.866978 0.778503
v -4.411618 1.656561 0.634771
v -4.411618 1.656561 0.778503
v -4.582608 1.656561 0.634771
v -4.582608 1.656561 0.778503
v 4.617851 0.866978 -3.265229
v 4.617851 0.866978 -3.121496
v 4.446863 0.866978 -3.265229
v 4.446863 0.866978 -3.121496
v 4.617851 1.656561 -3.265229
v 4.617851 1.656561 -3.121496
v 4.446863 1.656561 -3.265229
v 4.446863 1.656561 -3.121496
v -4.561350 1.654950 -4.759797
v -4.561350 1.798682 -4.759797
v -4.390361 1.654950 -4.759797
v -4.390361 1.798682 -4.759797
v -4.561350 1.654950 -0.795387
v -4.561350 1.798682 -0.795387
v -4.390361 1.654950 -0.795387
v -4.390361 1.798682 -0.795387
v -4.401019 1.654950 4.347244
v -4.401019 1.798682 4.347244
v -4.572008 1.654950 4.347244
v -4.572008 1.798682 4.347244
v -4.401017 1.654950 0.382833
v -4.401017 1.798682 0.382833
v -4.572007 1.654950 0.382833
v -4.572007 1.798682 0.382833
v -4.428902 0.877124 4.340402
v -4.572635 0.877124 4.340402
v -4.428902 0.877124 4.169413
v -4.572635 0.877124 4.169413
v -4.428902 1.666707 4.340402
v -4.572635 1.666707 4.340402
v -4.428902 1.666707 4.169413
v -4.572635 1.666707 4.169413
v 4.600772 0.877124 4.340402
v 4.457040 0.877124 4.340402
v 4.600772 0.877124 4.169413
v 4.457040 0.877124 4.169413
v 4.600772 1.666707 4.340402
v 4.457040 1.666707 4.340402
v 4.600772 1.666707 4.169413
v 4.457040 1.666707 4.169413
v 4.600772 0.877124 -4.628037
v 4.457040 0.877124 -4.628037
v 4.600772 0.877124 -4.799026
v 4.457040 0.877124 -4.799026
v 4.600772 1.666707 -4.628037
v 4.457040 1.666707 -4.628037
v 4.600772 1.666707 -4.799026
v 4.457040 1.666707 -4.799026
v -4.417942 0.754451 -1.254665
v -4.417942 0.155929 -3.190809
v -4.417942 0.676503 -1.230569
v -4.417942 0.077981 -3.166713
v -4.556021 0.754451 -1.254665
v -4.556021 0.155929 -3.190809
v -4.556021 0.676503 -1.230569
v -4.556021 0.077981 -3.166713
v -4.417942 0.144929 -1.233556
v -4.417942 0.765175 -3.162851
v -4.417942 0.067257 -1.258527
v -4.417942 0.687503 -3.187822
v -4.556021 0.144929 -1.233556
v -4.556021 0.765175 -3.162851
v -4.556021 0.067257 -1.258527
v -4.556021 0.687503 -3.187822
v -4.417942 0.704865 -4.659295
v -4.417942 0.056313 -3.268470
v -4.417942 0.776119 -4.626068
v -4.417942 0.127567 -3.235243
v -4.556021 0.704865 -4.659295
v -4.556021 0.056313 -3.268470
v -4.556021 0.776119 -4.626068
v -4.556021 0.127567 -3.235243
v -4.417942 0.776120 -3.268470
v -4.417942 0.127568 -4.659295
v -4.417942 0.704865 -3.235243
v -4.417942 0.056313 -4.626068
v -4.556021 0.776120 -3.268470
v -4.556021 0.127568 -4.659295
v -4.556021 0.704865 -3.235243
v -4.556021 0.056313 -4.626068
v -4.417942 0.754451 0.715074
v -4.417942 0.155929 -1.221070
v -4.417942 0.676503 0.739170
v -4.417942 0.077981 -1.196974
v -4.556021 0.754451 0.715074
v -4.556021 0.155929 -1.221070
v -4.556021 0.676503 0.739170
v -4.556021 0.077981 -1.196974
v -4.417942 0.144929 0.736182
v -4.417942 0.765175 -1.193112
v -4.417942 0.067257 0.711212
v -4.417942 0.687503 -1.218083
v -4.556021 0.144929 0.736182
v -4.556021 0.765175 -1.193112
v -4.556021 0.067257 0.711212
v -4.556021 0.687503 -1.218083
v -4.417942 0.754451 2.652720
v -4.417942 0.155929 0.716576
v -4.417942 0.676503 2.676816
v -4.417942 0.077981 0.740672
v -4.556021 0.754451 2.652720
v -4.556021 0.155929 0.716576
v -4.556021 0.676503 2.676816
v -4.556021 0.077981 0.740672
v -4.417942 0.144929 2.673829
v -4.417942 0.765175 0.744534
v -4.417942 0.067257 2.648859
v -4.417942 0.687503 0.719564
v -4.556021 0.144929 2.673829
v -4.556021 0.765175 0.744534
v -4.556021 0.067257 2.648859
v -4.556021 0.687503 0.719564
v -4.417942 0.704865 2.759137
v -4.417942 0.056313 4.149961
v -4.417942 0.776119 2.792364
v -4.417942 0.127567 4.183188
v -4.556021 0.704865 2.759137
v -4.556021 0.056313 4.149961
v -4.556021 0.776119 2.792364
v -4.556021 0.127567 4.183188
v -4.417942 0.776120 4.149961
v -4.417942 0.127568 2.759137
v -4.417942 0.704865 4.183188
v -4.417942 0.056313 2.792364
v -4.556021 0.776120 4.149961
v -4.556021 0.127568 2.759137
v -4.556021 0.704865 4.183188
v -4.556021 0.056313 2.792364
v -0.982709 0.754451 -4.802314
v -2.918854 0.155929 -4.802314
v -0.958614 0.676503 -4.802314
v -2.894758 0.077981 -4.802314
v -0.982709 0.754451 -4.664235
v -2.918854 0.155929 -4.664235
v -0.958614 0.676503 -4.664235
v -2.894758 0.077981 -4.664235
v -0.961601 0.144929 -4.802314
v -2.890896 0.765175 -4.802314
v -0.986571 0.067257 -4.802314
v -2.915866 0.687503 -4.802314
v -0.961601 0.144929 -4.664235
v -2.890896 0.765175 -4.664235
v -0.986571 0.067257 -4.664235
v -2.915866 0.687503 -4.664235
v -4.387340 0.704865 -4.802314
v -2.996514 0.056313 -4.802314
v -4.354113 0.776119 -4.802314
v -2.963287 0.127568 -4.802314
v -4.387340 0.704865 -4.664235
v -2.996514 0.056313 -4.664235
v -4.354113 0.776119 -4.664235
v -2.963287 0.127568 -4.664235
v -2.996514 0.776120 -4.802314
v -4.387339 0.127567 -4.802314
v -2.963288 0.704865 -4.802314
v -4.354113 0.056313 -4.802314
v -2.996514 0.776120 -4.664235
v -4.387339 0.127567 -4.664235
v -2.963288 0.704865 -4.664235
v -4.354113 0.056313 -4.664235
v -4.387341 0.704865 4.163765
v -2.996515 0.056313 4.163765
v -4.354114 0.776119 4.163765
v -2.963288 0.127568 4.163765
v -4.387341 0.704865 4.301845
v -2.996515 0.056313 4.301845
v -4.354114 0.776119 4.301845
v -2.963288 0.127568 4.301845
v -2.996515 0.776120 4.163765
v -4.387340 0.127567 4.163765
v -2.963289 0.704865 4.163765
v -4.354113 0.056313 4.163765
v -2.996515 0.776120 4.301845
v -4.387340 0.127567 4.301845
v -2.963289 0.704865 4.301845
v -4.354113 0.056313 4.301845
v -0.982710 0.754451 4.163765
v -2.918855 0.155929 4.163765
v -0.958614 0.676503 4.163765
v -2.894758 0.077981 4.163765
v -0.982710 0.754451 4.301845
v -2.918855 0.155929 4.301845
v -0.958614 0.676503 4.301845
v -2.894758 0.077981 4.301845
v -0.961602 0.144929 4.163765
v -2.890896 0.765175 4.163765
v -0.986573 0.067257 4.163765
v -2.915867 0.687503 4.163765
v -0.961602 0.144929 4.301845
v -2.890896 0.765175 4.301845
v -0.986573 0.067257 4.301845
v -2.915867 0.687503 4.301845
v -5.812519 0.120366 3.061154
v -5.812519 0.449625 3.061154
v -5.812519 0.449625 1.932506
v -4.597137 0.120366 3.061154
v -4.597137 0.449625 3.061154
v -4.597137 0.449625 1.932506
v -5.819287 -0.009510 3.022411
v -5.819287 0.148521 3.064756
v -5.819287 0.722829 0.289282
v -5.819287 0.880861 0.331627
v -4.535102 -0.009510 3.022411
v -4.535102 0.148521 3.064756
v -4.535102 0.722829 0.289282
v -4.535102 0.880861 0.331627
v -5.819287 0.718069 0.352306
v -5.819287 0.881675 0.352306
v -5.819287 0.718069 -0.773975
v -5.819287 0.881675 -0.773975
v -4.535102 0.718069 0.352306
v -4.535102 0.881675 0.352306
v -4.535102 0.718069 -0.773975
v -4.535102 0.881675 -0.773975
v -5.812519 0.443347 1.923334
v -5.812519 0.772605 1.923334
v -5.812519 0.772605 0.794685
v -4.597137 0.443347 1.923334
v -4.597137 0.772605 1.923334
v -4.597137 0.772605 0.794685
v -0.893324 -0.030888 -4.639787
v -1.037057 -0.030888 -4.639787
v -0.893324 -0.030888 -4.810775
v -1.037057 -0.030888 -4.810775
v -0.893324 0.758695 -4.639787
v -1.037057 0.758695 -4.639787
v -0.893324 0.758695 -4.810775
v -1.037057 0.758695 -4.810775
v 4.607512 0.704865 2.759136
v 4.607512 0.056313 4.149961
v 4.607512 0.776119 2.792363
v 4.607512 0.127567 4.183188
v 4.469433 0.704865 2.759136
v 4.469433 0.056313 4.149961
v 4.469433 0.776119 2.792363
v 4.469433 0.127567 4.183188
v 4.607512 0.776119 4.149961
v 4.607512 0.127568 2.759136
v 4.607512 0.704865 4.183188
v 4.607512 0.056313 2.792363
v 4.469433 0.776119 4.149961
v 4.469433 0.127568 2.759136
v 4.469433 0.704865 4.183188
v 4.469433 0.056313 2.792363
v 4.607512 0.704865 -4.659294
v 4.607512 0.056313 -3.268469
v 4.607512 0.776119 -4.626068
v 4.607512 0.127567 -3.235243
v 4.469433 0.704865 -4.659294
v 4.469433 0.056313 -3.268469
v 4.469433 0.776119 -4.626068
v 4.469433 0.127567 -3.235243
v 4.607512 0.776119 -3.268469
v 4.607512 0.127568 -4.659294
v 4.607512 0.704865 -3.235243
v 4.607512 0.056313 -4.626068
v 4.469433 0.776119 -3.268469
v 4.469433 0.127568 -4.659294
v 4.469433 0.704865 -3.235243
v 4.469433 0.056313 -4.626068
v 4.607512 0.754451 -1.254665
v 4.607512 0.155929 -3.190809
v 4.607512 0.676503 -1.230569
v 4.607512 0.077981 -3.166713
v 4.469433 0.754451 -1.254665
v 4.469433 0.155929 -3.190809
v 4.469433 0.676503 -1.230569
v 4.469433 0.077981 -3.166713
v 4.607512 0.144929 -1.233557
v 4.607512 0.765175 -3.162851
v 4.607512 0.067257 -1.258527
v 4.607512 0.687503 -3.187822
v 4.469433 0.144929 -1.233557
v 4.469433 0.765175 -3.162851
v 4.469433 0.067257 -1.258527
v 4.469433 0.687503 -3.187822
v 4.607512 0.754451 2.652720
v 4.607512 0.155929 0.716576
v 4.607512 0.676503 2.676816
v 4.607512 0.077981 0.740672
v 4.469433 0.754451 2.652720
v 4.469433 0.155929 0.716576
v 4.469433 0.676503 2.676816
v 4.469433 0.077981 0.740672
v 4.607512 0.144929 2.673829
v 4.607512 0.765175 0.744534
v 4.607512 0.067257 2.648858
v 4.607512 0.687503 0.719564
v 4.469433 0.144929 2.673829
v 4.469433 0.765175 0.744534
v 4.469433 0.067257 2.648858
v 4.469433 0.687503 0.719564
v 4.607512 0.754451 0.715074
v 4.607512 0.155929 -1.221070
v 4.607512 0.676503 0.739170
v 4.607512 0.077981 -1.196974
v 4.469433 0.754451 0.715074
v 4.469433 0.155929 -1.221070
v 4.469433 0.676503 0.739170
v 4.469433 0.077981 -1.196974
v 4.607512 0.144929 0.736182
v 4.607512 0.765175 -1.193112
v 4.607512 0.067257 0.711212
v 4.607512 0.687503 -1.218083
v 4.469433 0.144929 0.736182
v 4.469433 0.765175 -1.193112
v 4.469433 0.067257 0.711212
v 4.469433 0.687503 -1.218083
v 0.987030 0.754451 -4.802314
v -0.949114 0.155929 -4.802314
v 1.011126 0.676503 -4.802314
v -0.925018 0.077981 -4.802314
v 0.987030 0.754451 -4.664234
v -0.949114 0.155929 -4.664235
v 1.011126 0.676503 -4.664234
v -0.925018 0.077981 -4.664235
v 1.008138 0.144929 -4.802314
v -0.921156 0.765175 -4.802314
v 0.983168 0.067257 -4.802314
v -0.946127 0.687503 -4.802314
v 1.008138 0.144929 -4.664234
v -0.921156 0.765175 -4.664235
v 0.983168 0.067257 -4.664234
v -0.946127 0.687503 -4.664235
v 2.924676 0.754451 -4.802314
v 0.988532 0.155929 -4.802314
v 2.948772 0.676503 -4.802314
v 1.012628 0.077981 -4.802314
v 2.924676 0.754451 -4.664234
v 0.988532 0.155929 -4.664235
v 2.948772 0.676503 -4.664234
v 1.012628 0.077981 -4.664235
v 2.945784 0.144929 -4.802314
v 1.016490 0.765175 -4.802314
v 2.920814 0.067257 -4.802314
v 0.991519 0.687503 -4.802314
v 2.945784 0.144929 -4.664234
v 1.016490 0.765175 -4.664235
v 2.920814 0.067257 -4.664234
v 0.991519 0.687503 -4.664235
v 3.031092 0.704865 -4.802313
v 4.421917 0.056313 -4.802313
v 3.064319 0.776119 -4.802313
v 4.455144 0.127568 -4.802313
v 3.031092 0.704865 -4.664234
v 4.421917 0.056313 -4.664234
v 3.064319 0.776119 -4.664234
v 4.455144 0.127568 -4.664234
v 4.421917 0.776120 -4.802313
v 3.031092 0.127567 -4.802313
v 4.455144 0.704865 -4.802313
v 3.064319 0.056313 -4.802313
v 4.421917 0.776120 -4.664234
v 3.031092 0.127567 -4.664234
v 4.455144 0.704865 -4.664234
v 3.064319 0.056313 -4.664234
v 3.031092 0.704865 4.163766
v 4.421917 0.056313 4.163767
v 3.064318 0.776119 4.163766
v 4.455143 0.127568 4.163767
v 3.031092 0.704865 4.301846
v 4.421917 0.056313 4.301846
v 3.064318 0.776119 4.301846
v 4.455143 0.127568 4.301846
v 4.421916 0.776120 4.163767
v 3.031092 0.127567 4.163766
v 4.455143 0.704865 4.163767
v 3.064318 0.056313 4.163766
v 4.421916 0.776120 4.301846
v 3.031092 0.127567 4.301846
v 4.455143 0.704865 4.301846
v 3.064318 0.056313 4.301846
v 2.924675 0.754451 4.163766
v 0.988531 0.155929 4.163765
v 2.948771 0.676503 4.163766
v 1.012627 0.077981 4.163765
v 2.924675 0.754451 4.301845
v 0.988531 0.155929 4.301845
v 2.948771 0.676503 4.301845
v 1.012627 0.077981 4.301845
v 2.945784 0.144929 4.163766
v 1.016489 0.765175 4.163765
v 2.920813 0.067257 4.163766
v 0.991519 0.687503 4.163765
v 2.945784 0.144929 4.301845
v 1.016489 0.765175 4.301845
v 2.920813 0.067257 4.301845
v 0.991519 0.687503 4.301845
v 0.987029 0.754451 4.163766
v -0.949115 0.155929 4.163765
v 1.011125 0.676503 4.163766
v -0.925019 0.077981 4.163765
v 0.987029 0.754451 4.301845
v -0.949115 0.155929 4.301845
v 1.011125 0.676503 4.301845
v -0.925019 0.077981 4.301845
v 1.008137 0.144929 4.163766
v -0.921157 0.765175 4.163765
v 0.983167 0.067257 4.163766
v -0.946128 0.687503 4.163765
v 1.008137 0.144929 4.301845
v -0.921157 0.765175 4.301845
v 0.983167 0.067257 4.301845
v -0.946128 0.687503 4.301845
v -1.854958 0.784073 3.386581
v -1.854958 4.584073 3.386581
v -1.854958 0.784073 2.932071
v -1.854958 4.960275 2.932071
v -1.454958 0.784073 3.386581
v -1.454958 4.584073 3.386581
v -1.454958 0.784073 2.932071
v -1.454958 4.960275 2.932071
v 2.145042 0.784073 3.386581
v 2.145042 4.584073 3.386581
v 2.145042 0.784073 2.932071
v 2.145042 4.960275 2.932071
v 2.545043 0.784073 3.386581
v 2.545043 4.584073 3.386581
v 2.545043 0.784073 2.932071
v 2.545043 4.960275 2.932071
v 2.145042 0.784073 -2.613419
v 2.145042 4.960275 -2.613419
v 2.145042 0.784073 -3.067929
v 2.145042 4.584073 -3.067929
v 2.545043 0.784073 -2.613419
v 2.545043 4.960275 -2.613419
v 2.545043 0.784073 -3.067929
v 2.545043 4.584073 -3.067929
v -1.748670 0.812227 -0.651033
v -1.748670 1.278187 -0.651033
v -1.748670 0.812227 -2.651033
v -1.748670 1.278187 -2.651033
v -1.590758 0.812227 -0.651033
v -1.590758 1.278187 -0.651033
v -1.590758 0.812227 -2.651033
v -1.590758 1.278187 -2.651033
v -1.732543 1.294946 -0.651033
v -1.732543 1.790189 -0.651033
v -1.732543 1.294946 -2.651033
v -1.732543 1.790189 -2.651033
v -1.574631 1.294946 -0.651033
v -1.574631 1.790189 -0.651033
v -1.574631 1.294946 -2.651033
v -1.574631 1.790189 -2.651033
v -1.769927 1.799228 -0.651033
v -1.769927 2.282343 -0.651033
v -1.769927 1.799228 -2.651033
v -1.769927 2.282343 -2.651033
v -1.612015 1.799228 -0.651033
v -1.612015 2.282343 -0.651033
v -1.612015 1.799228 -2.651033
v -1.612015 2.282343 -2.651033
v -1.769927 3.284484 3.009316
v -1.769927 3.767600 3.009316
v -1.769927 3.284484 -2.700932
v -1.769927 3.767600 -2.700932
v -1.612015 3.284484 3.009316
v -1.612015 3.767600 3.009316
v -1.612015 3.284484 -2.700932
v -1.612015 3.767600 -2.700932
v -1.732543 2.780203 -0.651033
v -1.732543 3.275446 -0.651033
v -1.732543 2.780203 -2.651033
v -1.732543 3.275446 -2.651033
v -1.574631 2.780203 -0.651033
v -1.574631 3.275446 -0.651033
v -1.574631 2.780203 -2.651033
v -1.574631 3.275446 -2.651033
v -1.748670 2.297485 -0.651033
v -1.748670 2.763445 -0.651033
v -1.748670 2.297485 -2.651033
v -1.748670 2.763445 -2.651033
v -1.590758 2.297485 -0.651033
v -1.590758 2.763445 -0.651033
v -1.590758 2.297485 -2.651033
v -1.590758 2.763445 -2.651033
v -1.748670 2.297485 3.009269
v -1.748670 2.763445 3.009269
v -1.748670 2.297485 1.009269
v -1.748670 2.763445 1.009269
v -1.590758 2.297485 3.009269
v -1.590758 2.763445 3.009269
v -1.590758 2.297485 1.009269
v -1.590758 2.763445 1.009269
v -1.732543 2.780203 3.009269
v -1.732543 3.275446 3.009269
v -1.732543 2.780203 1.009269
v -1.732543 3.275446 1.009269
v -1.574631 2.780203 3.009269
v -1.574631 3.275446 3.009269
v -1.574631 2.780203 1.009269
v -1.574631 3.275446 1.009269
v -1.769927 1.799228 3.009269
v -1.769927 2.282343 3.009269
v -1.769927 1.799228 1.009269
v -1.769927 2.282343 1.009269
v -1.612015 1.799228 3.009269
v -1.612015 2.282343 3.009269
v -1.612015 1.799228 1.009269
v -1.612015 2.282343 1.009269
v -1.732543 1.294946 3.009269
v -1.732543 1.790189 3.009269
v -1.732543 1.294946 1.009269
v -1.732543 1.790189 1.009269
v -1.574631 1.294946 3.009269
v -1.574631 1.790189 3.009269
v -1.574631 1.294946 1.009269
v -1.574631 1.790189 1.009269
v -1.748670 0.812227 3.009269
v -1.748670 1.278187 3.009269
v -1.748670 0.812227 1.009269
v -1.748670 1.278187 1.009269
v -1.590758 0.812227 3.009269
v -1.590758 1.278187 3.009269
v -1.590758 0.812227 1.009269
v -1.590758 1.278187 1.009269
v -1.818269 3.130239 1.110469
v -1.818269 3.345511 1.110469
v -1.818269 3.130239 -0.802084
v -1.818269 3.345511 -0.802084
v -1.563673 3.130239 1.110469
v -1.563673 3.345511 1.110469
v -1.563673 3.130239 -0.802084
v -1.563673 3.345511 -0.802084
v -1.818269 0.710400 -0.849905
v -1.818269 0.710400 -0.634633
v -1.818269 3.343823 -0.849905
v -1.818269 3.343823 -0.634634
v -1.563673 0.710400 -0.849905
v -1.563673 0.710400 -0.634633
v -1.563673 3.343823 -0.849905
v -1.563673 3.343823 -0.634634
v -1.818269 0.710400 0.896903
v -1.818269 0.710400 1.112174
v -1.818269 3.343823 0.896903
v -1.818269 3.343823 1.112174
v -1.563673 0.710400 0.896903
v -1.563673 0.710400 1.112174
v -1.563673 3.343823 0.896903
v -1.563673 3.343823 1.112174
v -1.775558 3.782314 3.009315
v -1.775558 4.288530 3.009315
v -1.775558 3.782314 -2.700931
v -1.775558 4.288530 -2.700931
v -1.606384 3.782314 3.009315
v -1.606384 4.288530 3.009315
v -1.606384 3.782314 -2.700931
v -1.606384 4.288530 -2.700931
v -1.747410 4.301495 3.009315
v -1.747410 4.807711 3.009315
v -1.747410 4.301495 -2.700931
v -1.747410 4.807711 -2.700931
v -1.578236 4.301495 3.009315
v -1.578236 4.807711 3.009315
v -1.578236 4.301495 -2.700931
v -1.578236 4.807711 -2.700931
v -2.381807 3.724692 4.246138
v -2.381807 3.889599 4.384511
v -2.381807 7.402302 -0.136668
v -2.381807 7.567209 0.001706
v -2.169259 3.724692 4.246138
v -2.169259 3.889599 4.384511
v -2.169259 7.402302 -0.136668
v -2.169259 7.567209 0.001706
v -2.381807 3.889599 -4.176126
v -2.381807 3.724691 -4.037753
v -2.381807 7.567210 0.206679
v -2.381807 7.402303 0.345052
v -2.169259 3.889599 -4.176126
v -2.169259 3.724691 -4.037753
v -2.169259 7.567210 0.206679
v -2.169259 7.402303 0.345052
v 2.671713 3.889599 -4.176126
v 2.671713 3.724691 -4.037753
v 2.671713 7.567210 0.206679
v 2.671713 7.402303 0.345052
v 2.884261 3.889599 -4.176126
v 2.884261 3.724691 -4.037753
v 2.884261 7.567210 0.206679
v 2.884261 7.402303 0.345052
v 2.671713 3.724692 4.246138
v 2.671713 3.889599 4.384511
v 2.671713 7.402302 -0.136668
v 2.671713 7.567209 0.001706
v 2.884261 3.724692 4.246138
v 2.884261 3.889599 4.384511
v 2.884261 7.402302 -0.136668
v 2.884261 7.567209 0.001706
v 2.291810 1.825526 3.131259
v 2.291810 2.331742 3.131259
v -1.538565 1.825526 3.131259
v -1.538565 2.331742 3.131259
v 2.291810 1.825526 2.962086
v 2.291810 2.331742 2.962086
v -1.538565 1.825526 2.962086
v -1.538565 2.331742 2.962086
v 2.291810 1.306345 3.159407
v 2.291810 1.812561 3.159407
v -1.538565 1.306345 3.159407
v -1.538565 1.812561 3.159407
v 2.291810 1.306345 2.990233
v 2.291810 1.812561 2.990233
v -1.538565 1.306345 2.990233
v -1.538565 1.812561 2.990233
v 2.291810 0.808516 3.153776
v 2.291810 1.291631 3.153776
v -1.538565 0.808516 3.153776
v -1.538565 1.291631 3.153776
v 2.291810 0.808516 2.995864
v 2.291810 1.291631 2.995864
v -1.538565 0.808516 2.995864
v -1.538565 1.291631 2.995864
v 2.291810 2.332561 3.153776
v 2.291810 2.815677 3.153776
v -1.538565 2.332561 3.153776
v -1.538565 2.815677 3.153776
v 2.291810 2.332561 2.995864
v 2.291810 2.815677 2.995864
v -1.538565 2.332561 2.995864
v -1.538565 2.815677 2.995864
v 2.291810 2.830391 3.159407
v 2.291810 3.336607 3.159407
v -1.538565 2.830391 3.159407
v -1.538565 3.336607 3.159407
v 2.291810 2.830391 2.990233
v 2.291810 3.336607 2.990233
v -1.538565 2.830391 2.990233
v -1.538565 3.336607 2.990233
v 2.291810 3.349571 3.131259
v 2.291810 3.855787 3.131259
v -1.538565 3.349571 3.131259
v -1.538565 3.855787 3.131259
v 2.291810 3.349571 2.962086
v 2.291810 3.855787 2.962086
v -1.538565 3.349571 2.962086
v -1.538565 3.855787 2.962086
v 2.291810 4.339009 3.159407
v 2.291810 4.700775 3.159407
v -1.538565 4.339009 3.159407
v -1.538565 4.700775 3.159407
v 2.291810 4.339009 2.990233
v 2.291810 4.845225 2.990233
v -1.538565 4.339009 2.990233
v -1.538565 4.845225 2.990233
v 2.291810 3.841179 3.153776
v 2.291810 4.324295 3.153776
v -1.538565 3.841179 3.153776
v -1.538565 4.324295 3.153776
v 2.291810 3.841179 2.995864
v 2.291810 4.324295 2.995864
v -1.538565 3.841179 2.995864
v -1.538565 4.324295 2.995864
v -1.538565 3.841179 -2.847120
v -1.538565 4.324295 -2.847120
v 2.291811 3.841179 -2.847120
v 2.291811 4.324295 -2.847120
v -1.538565 3.841179 -2.689209
v -1.538565 4.324295 -2.689209
v 2.291811 3.841179 -2.689209
v 2.291811 4.324295 -2.689209
v -1.538564 4.339009 -2.852751
v -1.538564 4.700775 -2.852751
v 2.291810 4.339009 -2.852751
v 2.291810 4.700775 -2.852751
v -1.538564 4.339009 -2.683578
v -1.538564 4.845225 -2.683578
v 2.291810 4.339009 -2.683578
v 2.291810 4.845225 -2.683578
v -1.538564 3.349571 -2.824603
v -1.538564 3.855787 -2.824603
v 2.291810 3.349571 -2.824603
v 2.291810 3.855787 -2.824603
v -1.538564 3.349571 -2.655430
v -1.538564 3.855787 -2.655430
v 2.291810 3.349571 -2.655430
v 2.291810 3.855787 -2.655430
v 1.079777 2.830391 -2.852751
v 1.079777 3.336607 -2.852751
v 2.221189 2.830391 -2.852751
v 2.221189 3.336607 -2.852751
v 1.079777 2.830391 -2.683578
v 1.079777 3.336607 -2.683578
v 2.221189 2.830391 -2.683578
v 2.221189 3.336607 -2.683578
v 1.079777 2.332561 -2.847120
v 1.079777 2.815677 -2.847120
v 2.221189 2.332561 -2.847120
v 2.221189 2.815677 -2.847120
v 1.079777 2.332561 -2.689209
v 1.079777 2.815677 -2.689209
v 2.221189 2.332561 -2.689209
v 2.221189 2.815677 -2.689209
v -1.538565 0.808516 -2.847120
v -1.538565 1.291631 -2.847120
v 2.291811 0.808516 -2.847120
v 2.291811 1.291631 -2.847120
v -1.538565 0.808516 -2.689209
v -1.538565 1.291631 -2.689209
v 2.291811 0.808516 -2.689209
v 2.291811 1.291631 -2.689209
v -1.538564 1.306345 -2.852751
v -1.538564 1.812561 -2.852751
v 2.291810 1.306345 -2.852751
v 2.291810 1.812561 -2.852751
v -1.538564 1.306345 -2.683578
v -1.538564 1.812561 -2.683578
v 2.291810 1.306345 -2.683578
v 2.291810 1.812561 -2.683578
v 1.079777 1.825526 -2.824603
v 1.079777 2.331742 -2.824603
v 2.221189 1.825526 -2.824603
v 2.221189 2.331742 -2.824603
v 1.079777 1.825526 -2.655430
v 1.079777 2.331742 -2.655430
v 2.221189 1.825526 -2.655430
v 2.221189 2.331742 -2.655430
v -0.399276 1.825526 -2.692960
v -0.399276 2.331742 -2.692960
v -1.540688 1.825526 -2.692960
v -1.540688 2.331742 -2.692960
v -0.399276 1.825526 -2.862133
v -0.399276 2.331742 -2.862133
v -1.540688 1.825526 -2.862134
v -1.540688 2.331742 -2.862134
v -0.399275 2.332561 -2.670443
v -0.399275 2.815677 -2.670443
v -1.540688 2.332561 -2.670443
v -1.540688 2.815677 -2.670443
v -0.399275 2.332561 -2.828355
v -0.399275 2.815677 -2.828355
v -1.540688 2.332561 -2.828355
v -1.540688 2.815677 -2.828355
v -0.399276 2.830391 -2.664812
v -0.399276 3.336607 -2.664812
v -1.540688 2.830391 -2.664813
v -1.540688 3.336607 -2.664813
v -0.399276 2.830391 -2.833986
v -0.399276 3.336607 -2.833986
v -1.540688 2.830391 -2.833986
v -1.540688 3.336607 -2.833986
v -0.582736 1.744118 -2.864184
v -0.582736 1.744118 -2.648913
v -0.582736 3.432369 -2.864184
v -0.582736 3.432369 -2.648913
v -0.328140 1.744118 -2.864184
v -0.328140 1.744118 -2.648913
v -0.328140 3.432369 -2.864184
v -0.328140 3.432369 -2.648913
v 1.054405 1.744118 -2.864184
v 1.054405 1.744118 -2.648913
v 1.054405 3.432369 -2.864184
v 1.054405 3.432369 -2.648913
v 1.309000 1.744118 -2.864184
v 1.309000 1.744118 -2.648913
v 1.309000 3.432369 -2.864184
v 1.309000 3.432369 -2.648913
v 1.319419 3.270653 -2.864184
v 1.319419 3.270653 -2.648913
v -0.594336 3.270653 -2.864184
v -0.594336 3.270653 -2.648913
v 1.319419 3.525249 -2.864184
v 1.319419 3.525249 -2.648913
v -0.594336 3.525249 -2.864184
v -0.594336 3.525249 -2.648913
v 1.319419 1.651238 -2.864184
v 1.319419 1.651238 -2.648913
v -0.594336 1.651238 -2.864184
v -0.594336 1.651238 -2.648913
v 1.319419 1.905833 -2.864184
v 1.319419 1.905833 -2.648913
v -0.594336 1.905834 -2.864184
v -0.594336 1.905834 -2.648913
v 0.272876 1.788832 -2.820701
v 0.272876 1.788832 -2.692396
v 0.272876 2.770881 -2.820701
v 0.272876 2.770881 -2.692396
v 0.442899 1.788832 -2.820701
v 0.442899 1.788832 -2.692396
v 0.442899 2.770881 -2.820701
v 0.442899 2.770881 -2.692396
v 1.094424 2.646033 -2.820701
v 1.094424 2.646033 -2.692396
v -0.378649 2.646033 -2.820701
v -0.378649 2.646033 -2.692396
v 1.094424 2.816056 -2.820701
v 1.094424 2.816056 -2.692396
v -0.378649 2.816056 -2.820701
v -0.378649 2.816056 -2.692396
v -0.338089 1.744118 -2.790245
v -0.338089 1.744118 -2.722852
v -0.338089 3.432369 -2.790246
v -0.338089 3.432369 -2.722852
v 1.094627 1.744118 -2.790245
v 1.094627 1.744118 -2.722852
v 1.094627 3.432369 -2.790246
v 1.094627 3.432369 -2.722852
v 2.246341 1.853821 3.009315
v 2.246341 2.360037 3.009315
v 2.246341 1.853821 -2.700931
v 2.246341 2.360037 -2.700931
v 2.415514 1.853821 3.009315
v 2.415514 2.360037 3.009315
v 2.415514 1.853821 -2.700931
v 2.415514 2.360037 -2.700931
v 2.218193 1.334641 3.009315
v 2.218193 1.840857 3.009315
v 2.218193 1.334641 -2.700931
v 2.218193 1.840857 -2.700931
v 2.387366 1.334641 3.009315
v 2.387366 1.840857 3.009315
v 2.387366 1.334641 -2.700931
v 2.387366 1.840857 -2.700931
v 2.223824 0.836811 3.009316
v 2.223824 1.319926 3.009316
v 2.223824 0.836811 -2.700932
v 2.223824 1.319926 -2.700932
v 2.381735 0.836811 3.009316
v 2.381735 1.319926 3.009316
v 2.381735 0.836811 -2.700932
v 2.381735 1.319926 -2.700932
v 2.223824 2.362694 3.009316
v 2.223824 2.845809 3.009316
v 2.223824 2.362694 -2.700932
v 2.223824 2.845809 -2.700932
v 2.381735 2.362694 3.009316
v 2.381735 2.845809 3.009316
v 2.381735 2.362694 -2.700932
v 2.381735 2.845809 -2.700932
v 2.218193 2.860524 3.009315
v 2.218193 3.366740 3.009315
v 2.218193 2.860524 -2.700931
v 2.218193 3.366740 -2.700931
v 2.387366 2.860524 3.009315
v 2.387366 3.366740 3.009315
v 2.387366 2.860524 -2.700931
v 2.387366 3.366740 -2.700931
v 2.246341 3.379704 3.009315
v 2.246341 3.885921 3.009315
v 2.246341 3.379704 -2.700931
v 2.246341 3.885921 -2.700931
v 2.415514 3.379704 3.009315
v 2.415514 3.885921 3.009315
v 2.415514 3.379704 -2.700931
v 2.415514 3.885921 -2.700931
v 2.218193 4.391918 3.009315
v 2.218193 4.898134 3.009315
v 2.218193 4.391918 -2.700931
v 2.218193 4.898134 -2.700931
v 2.387366 4.391918 3.009315
v 2.387366 4.898134 3.009315
v 2.387366 4.391918 -2.700931
v 2.387366 4.898134 -2.700931
v 2.223824 3.894088 3.009316
v 2.223824 4.377203 3.009316
v 2.223824 3.894088 -2.700932
v 2.223824 4.377203 -2.700932
v 2.381735 3.894088 3.009316
v 2.381735 4.377203 3.009316
v 2.381735 3.894088 -2.700932
v 2.381735 4.377203 -2.700932
v -1.629178 3.564905 3.124791
v -1.629178 3.650030 3.124791
v -1.629178 3.564905 -2.733310
v -1.629178 3.650030 -2.733310
v 1.211221 3.564905 3.124791
v 1.211221 3.650030 3.124791
v 1.211221 3.564905 -2.733310
v 1.211221 3.650030 -2.733310
v 1.202699 3.564905 2.977213
v 1.202699 3.650030 2.977213
v 1.202699 3.564905 0.754505
v 1.202699 3.650030 0.754505
v 2.233763 3.564905 2.977213
v 2.233763 3.650030 2.977213
v 2.233763 3.564905 0.754505
v 2.233763 3.650030 0.754505
v 2.696395 4.744839 3.310616
v 2.696395 5.055379 2.940528
v -2.220683 4.744839 3.310616
v -2.220683 5.055379 2.940528
v 2.696395 4.623871 3.209112
v 2.696395 4.934412 2.839025
v -2.220683 4.623871 3.209112
v -2.220683 4.934412 2.839025
v 2.696395 4.401582 3.676677
v 2.696395 4.712123 3.306589
v -2.220683 4.401582 3.676677
v -2.220683 4.712122 3.306589
v 2.696395 4.280615 3.575173
v 2.696395 4.591155 3.205085
v -2.220683 4.280614 3.575173
v -2.220683 4.591155 3.205085
v 2.696395 5.073082 2.917378
v 2.696395 5.383623 2.547290
v -2.220683 5.073081 2.917378
v -2.220683 5.383622 2.547290
v 2.696395 4.952114 2.815875
v 2.696395 5.262655 2.445787
v -2.220683 4.952114 2.815875
v -2.220683 5.262655 2.445787
v 2.696395 5.399508 2.526899
v 2.696395 5.710049 2.156811
v -2.220683 5.399508 2.526899
v -2.220683 5.710049 2.156811
v 2.696395 5.278541 2.425395
v 2.696395 5.589082 2.055308
v -2.220683 5.278541 2.425395
v -2.220683 5.589082 2.055308
v 2.696395 4.084812 4.068667
v 2.696395 4.395352 3.698579
v -2.220683 4.084812 4.068667
v -2.220683 4.395352 3.698579
v 2.696395 3.963844 3.967163
v 2.696395 4.274385 3.597075
v -2.220683 3.963844 3.967163
v -2.220683 4.274385 3.597075
v 2.696395 5.713553 2.135342
v 2.696395 6.024094 1.765254
v -2.220683 5.713553 2.135342
v -2.220683 6.024094 1.765254
v 2.696395 5.592586 2.033838
v 2.696395 5.903127 1.663750
v -2.220683 5.592586 2.033838
v -2.220683 5.903127 1.663750
v 2.696395 7.028250 0.593574
v 2.696395 7.338791 0.223486
v -2.220683 7.028250 0.593574
v -2.220683 7.338790 0.223486
v 2.696395 6.907282 0.492070
v 2.696395 7.217823 0.121982
v -2.220683 6.907282 0.492070
v -2.220683 7.217823 0.121982
v 2.696395 6.701823 0.984053
v 2.696395 7.012364 0.613965
v -2.220683 6.701823 0.984053
v -2.220683 7.012363 0.613965
v 2.696395 6.580855 0.882549
v 2.696395 6.891397 0.512461
v -2.220683 6.580855 0.882549
v -2.220683 6.891397 0.512461
v 2.696395 6.030323 1.743352
v 2.696395 6.340864 1.373264
v -2.220683 6.030323 1.743352
v -2.220683 6.340864 1.373264
v 2.696395 5.909356 1.641848
v 2.696395 6.219897 1.271760
v -2.220683 5.909356 1.641848
v -2.220683 6.219896 1.271760
v 2.696395 6.373580 1.377291
v 2.696395 6.684121 1.007203
v -2.220683 6.373580 1.377291
v -2.220683 6.684120 1.007203
v 2.696395 6.252613 1.275787
v 2.696395 6.563153 0.905699
v -2.220683 6.252613 1.275787
v -2.220683 6.563153 0.905699
v -2.220682 6.373580 -1.137770
v -2.220682 6.684121 -0.767682
v 2.696395 6.373580 -1.137771
v 2.696395 6.684120 -0.767683
v -2.220682 6.252613 -1.036266
v -2.220682 6.563153 -0.666178
v 2.696395 6.252613 -1.036267
v 2.696395 6.563153 -0.666179
v -2.220682 6.030323 -1.503832
v -2.220682 6.340864 -1.133744
v 2.696395 6.030323 -1.503832
v 2.696395 6.340864 -1.133744
v -2.220682 5.909356 -1.402328
v -2.220682 6.219897 -1.032240
v 2.696395 5.909356 -1.402328
v 2.696395 6.219896 -1.032241
v -2.220682 6.701823 -0.744533
v -2.220682 7.012364 -0.374445
v 2.696395 6.701823 -0.744533
v 2.696395 7.012363 -0.374445
v -2.220682 6.580855 -0.643029
v -2.220682 6.891397 -0.272941
v 2.696395 6.580855 -0.643029
v 2.696395 6.891397 -0.272942
v -2.220682 7.028250 -0.354053
v -2.220682 7.338791 0.016034
v 2.696395 7.028250 -0.354054
v 2.696395 7.338790 0.016034
v -2.220682 6.907282 -0.252550
v -2.220682 7.217823 0.117538
v 2.696395 6.907282 -0.252550
v 2.696395 7.217823 0.117537
v -2.220682 5.713553 -1.895821
v -2.220682 6.024094 -1.525733
v 2.696395 5.713553 -1.895822
v 2.696395 6.024094 -1.525734
v -2.220682 5.592586 -1.794317
v -2.220682 5.903127 -1.424230
v 2.696395 5.592586 -1.794318
v 2.696395 5.903127 -1.424230
v -2.220683 4.084812 -3.829147
v -2.220683 4.395352 -3.459059
v 2.696395 4.084812 -3.829147
v 2.696395 4.395352 -3.459059
v -2.220683 3.963844 -3.727643
v -2.220683 4.274385 -3.357555
v 2.696395 3.963844 -3.727644
v 2.696395 4.274385 -3.357556
v -2.220683 5.399508 -2.287379
v -2.220683 5.710049 -1.917291
v 2.696395 5.399508 -2.287380
v 2.696395 5.710049 -1.917292
v -2.220683 5.278541 -2.185875
v -2.220683 5.589082 -1.815787
v 2.696395 5.278541 -2.185876
v 2.696395 5.589082 -1.815788
v -2.220683 5.073082 -2.677858
v -2.220683 5.383623 -2.307770
v 2.696395 5.073081 -2.677859
v 2.696395 5.383622 -2.307771
v -2.220683 4.952114 -2.576354
v -2.220683 5.262655 -2.206266
v 2.696395 4.952114 -2.576355
v 2.696395 5.262655 -2.206267
v -2.220683 4.401582 -3.437157
v -2.220683 4.712123 -3.067069
v 2.696395 4.401582 -3.437158
v 2.696395 4.712122 -3.067070
v -2.220683 4.280615 -3.335653
v -2.220683 4.591155 -2.965565
v 2.696395 4.280614 -3.335654
v 2.696395 4.591155 -2.965566
v -2.220683 4.744839 -3.071096
v -2.220683 5.055379 -2.701008
v 2.696395 4.744839 -3.071096
v 2.696395 5.055379 -2.701008
v -2.220683 4.623871 -2.969592
v -2.220683 4.934412 -2.599504
v 2.696395 4.623871 -2.969593
v 2.696395 4.934412 -2.599505
v 2.906395 3.946098 4.452830
v 2.906395 4.256639 4.082742
v -2.430683 3.946098 4.452830
v -2.430683 4.256639 4.082742
v 2.906395 3.687243 4.235625
v 2.906395 3.997784 3.865537
v -2.430683 3.687243 4.235624
v -2.430683 3.997783 3.865537
v 2.906395 4.256639 -3.863967
v 2.906395 3.946098 -4.234055
v -2.430683 4.256639 -3.863965
v -2.430683 3.946099 -4.234053
v 2.906395 3.997783 -3.646761
v 2.906395 3.687242 -4.016849
v -2.430683 3.997784 -3.646760
v -2.430683 3.687243 -4.016848
v -1.747410 5.836022 1.943901
v -1.747410 6.342238 1.334037
v -1.747410 5.836022 -1.709666
v -1.747410 6.342238 -1.085256
v -1.578236 5.836022 1.498563
v -1.578236 6.342238 1.334037
v -1.578236 5.836022 -1.709666
v -1.578236 6.342238 -1.085256
v -1.747410 5.836022 0.117118
v -1.747410 6.342238 0.124390
v -1.578236 5.836022 0.117117
v -1.578236 6.342238 0.124390
v -1.775558 5.316842 2.578029
v -1.775558 5.823058 1.955361
v -1.775558 5.316842 -2.272127
v -1.775558 5.823058 -1.641063
v -1.606384 5.316842 2.578029
v -1.606384 5.823058 1.955361
v -1.606384 5.316842 -2.272127
v -1.606384 5.823058 -1.641063
v -1.606384 5.823058 0.157149
v -1.775558 5.823058 -0.302749
v -1.606384 5.316842 -0.620380
v -1.775558 5.316842 -0.620380
v -1.606384 5.823058 -0.302749
v -1.775558 5.316842 0.920151
v -1.606384 5.823058 0.610916
v -1.775558 5.823058 0.610916
v -1.606384 5.316842 0.920151
v -1.769927 4.819012 3.009316
v -1.769927 5.302127 2.598767
v -1.769927 4.819012 -2.700932
v -1.769927 5.302127 -2.301064
v -1.612015 4.819012 3.009316
v -1.612015 5.302127 2.598767
v -1.612015 4.819012 -2.700932
v -1.612015 5.302127 -2.301064
v -1.769927 5.302127 -0.636898
v -1.612015 4.819012 -0.834161
v -1.769927 4.819012 -0.834161
v -1.612015 5.302127 -0.636898
v -1.769927 4.819012 1.136416
v -1.612015 5.302127 0.928470
v -1.769927 5.302127 0.928470
v -1.612015 4.819012 1.136416
v -1.747410 6.365961 1.174666
v -1.747410 6.872177 0.633104
v -1.747410 6.365961 -0.953166
v -1.747410 6.872177 -0.324719
v -1.578236 6.365961 1.174666
v -1.578236 6.872177 0.633104
v -1.578236 6.365961 -0.953166
v -1.578236 6.872177 -0.324719
v -1.747410 6.699625 0.430546
v -1.747410 7.205841 0.283886
v -1.747410 6.699625 -0.145690
v -1.747410 7.205841 0.024499
v -1.578236 6.699625 0.430546
v -1.578236 7.205841 0.283886
v -1.578236 6.699625 -0.145690
v -1.578236 7.205841 0.024499
v 2.195578 6.365961 1.174666
v 2.195578 6.872177 0.633104
v 2.195578 6.365961 -0.953166
v 2.195578 6.872177 -0.324719
v 2.364751 6.365961 1.174666
v 2.364751 6.872177 0.633104
v 2.364751 6.365961 -0.953166
v 2.364751 6.872177 -0.324719
v 2.195578 6.709587 0.430546
v 2.195578 7.215803 0.283886
v 2.195578 6.709587 -0.145690
v 2.195578 7.215803 0.024499
v 2.364751 6.709587 0.430546
v 2.364751 7.215803 0.283886
v 2.364751 6.709587 -0.145690
v 2.364751 7.215803 0.024499
v 2.173061 4.819012 3.009316
v 2.173061 5.302127 2.598767
v 2.173061 4.819012 -2.700932
v 2.173061 5.302127 -2.301064
v 2.330973 4.819012 3.009316
v 2.330973 5.302127 2.598767
v 2.330973 4.819012 -2.700932
v 2.330973 5.302127 -2.301064
v 2.167430 5.316842 2.578029
v 2.167430 5.823058 1.955361
v 2.167430 5.316842 -2.272127
v 2.167430 5.823058 -1.641063
v 2.336603 5.316842 2.578029
v 2.336603 5.823058 1.955361
v 2.336603 5.316842 -2.272127
v 2.336603 5.823058 -1.641063
v 2.195578 5.836022 1.943901
v 2.195578 6.342238 1.334037
v 2.195578 5.836022 -1.709666
v 2.195578 6.342238 -1.085256
v 2.364751 5.836022 1.943901
v 2.364751 6.342238 1.334037
v 2.364751 5.836022 -1.709666
v 2.364751 6.342238 -1.085256
v -1.788074 4.672670 1.220237
v -1.788074 4.887942 1.220237
v -1.788074 4.672670 -0.902510
v -1.788074 4.887942 -0.902510
v -1.533478 4.672670 1.220237
v -1.533478 4.887942 1.220237
v -1.533478 4.672670 -0.902510
v -1.533478 4.887942 -0.902510
v -1.788074 5.749921 0.730489
v -1.788074 5.965193 0.730489
v -1.788074 5.749921 -0.412762
v -1.788074 5.965193 -0.412762
v -1.533478 5.749921 0.730489
v -1.533478 5.965193 0.730489
v -1.533478 5.749921 -0.412762
v -1.533478 5.965193 -0.412762
v -1.788074 5.915335 0.738271
v -1.788074 5.824358 0.543168
v -1.788074 4.879199 1.221429
v -1.788074 4.788221 1.026327
v -1.533478 5.915335 0.738271
v -1.533478 5.824358 0.543168
v -1.533478 4.879199 1.221429
v -1.533478 4.788221 1.026327
v -1.788074 5.824358 -0.217245
v -1.788074 5.915335 -0.412347
v -1.788074 4.788221 -0.700403
v -1.788074 4.879199 -0.895506
v -1.533478 5.824358 -0.217245
v -1.533478 5.915335 -0.412347
v -1.533478 4.788221 -0.700403
v -1.533478 4.879199 -0.895506
v -1.696450 5.222202 -0.590023
v -1.568145 5.222202 -0.590023
v -1.696450 5.222202 0.883051
v -1.568146 5.222202 0.883051
v -1.696450 5.392225 -0.590023
v -1.568145 5.392225 -0.590023
v -1.696450 5.392225 0.883051
v -1.568146 5.392225 0.883051
v -1.696450 4.762376 0.231525
v -1.568145 4.762376 0.231525
v -1.696450 5.288378 0.231525
v -1.568145 5.288378 0.231525
v -1.696450 4.762376 0.061502
v -1.568145 4.762376 0.061502
v -1.696450 5.288378 0.061502
v -1.568145 5.288378 0.061502
v -1.692427 4.675768 1.054151
v -1.625033 4.675768 1.054151
v -1.692427 5.787180 1.054151
v -1.625033 5.787180 1.054151
v -1.692427 4.675768 -0.717558
v -1.625033 4.675768 -0.717558
v -1.692427 5.787180 -0.717558
v -1.625033 5.787180 -0.717558
v 1.198230 0.765648 0.419735
v 1.198230 1.241341 -0.133860
v 1.198230 1.251985 0.425686
v 2.226851 0.774961 0.426837
v 2.226851 1.241341 -0.133860
v 2.226851 1.251985 0.425686
v 1.198229 0.786568 0.333756
v 1.198229 0.792402 0.389705
v 1.198229 3.404490 -2.783339
v 1.198229 3.457529 -2.738146
v 2.226850 0.786568 0.333756
v 2.226850 0.839607 0.378948
v 2.226850 3.404490 -2.783339
v 2.226850 3.457529 -2.738146
v 1.198229 1.206215 -0.125404
v 1.198229 1.681908 -0.678999
v 1.198229 1.692553 -0.119452
v 2.226850 1.215528 -0.118302
v 2.226850 1.681908 -0.678999
v 2.226850 1.692553 -0.119452
v 1.198229 2.150236 -1.210308
v 1.198229 2.625929 -1.763903
v 1.198229 2.636573 -1.204357
v 2.226850 2.159549 -1.203206
v 2.226850 2.625929 -1.763903
v 2.226850 2.636573 -1.204357
v 1.198229 1.656500 -0.665170
v 1.198229 2.132193 -1.218765
v 1.198229 2.142837 -0.659219
v 2.226850 1.665813 -0.658067
v 2.226850 2.132193 -1.218765
v 2.226850 2.142837 -0.659219
v 1.198229 2.568353 -1.714043
v 1.198229 3.044046 -2.267638
v 1.198229 3.054691 -1.708092
v 2.226850 2.577666 -1.706941
v 2.226850 3.044046 -2.267638
v 2.226850 3.054691 -1.708092
v 1.198229 3.008920 -2.259181
v 1.198229 3.484613 -2.812776
v 1.198229 3.495258 -2.253230
v 2.226850 3.018234 -2.252079
v 2.226850 3.484613 -2.812776
v 2.226850 3.495258 -2.253230
v 1.849189 0.790258 -1.774226
v 1.849189 2.790258 -1.774226
v 1.849189 0.790258 -1.954226
v 1.849189 2.790258 -1.954226
v 2.049189 0.790258 -1.774226
v 2.049189 2.790258 -1.774226
v 2.049189 0.790258 -1.954226
v 2.049189 2.790258 -1.954226
v -1.836762 1.162255 -0.567539
v -1.836762 1.451330 -0.567539
v -1.836762 1.162255 -0.657949
v -1.836762 1.451330 -0.657949
v -1.769878 1.162255 -0.567539
v -1.769878 1.451330 -0.567539
v -1.769878 1.162255 -0.657949
v -1.769878 1.451330 -0.657949
v -1.836762 2.538857 -0.567539
v -1.836762 2.827933 -0.567539
v -1.836762 2.538857 -0.657949
v -1.836762 2.827933 -0.657949
v -1.769878 2.538857 -0.567539
v -1.769878 2.827933 -0.567539
v -1.769878 2.538857 -0.657949
v -1.769878 2.827933 -0.657949
vn -1.0000 -0.0000 -0.0000
vn -0.0000 -0.0000 -1.0000
vn 1.0000 -0.0000 -0.0000
vn -0.0000 -0.0000 1.0000
vn -0.0000 -1.0000 -0.0000
vn -0.0000 0.7703 -0.6376
vn -0.0000 1.0000 -0.0000
vn -0.0000 -0.9554 0.2953
vn -0.0000 0.9554 -0.2953
vn -0.0000 -0.9520 -0.3061
vn -0.0000 0.9520 0.3061
vn -0.0000 0.9063 0.4226
vn -0.0000 -0.9063 -0.4226
vn -0.0000 -0.9063 0.4226
vn -0.0000 0.9063 -0.4226
vn 0.2953 -0.9554 -0.0000
vn -0.2953 0.9554 -0.0000
vn -0.3061 -0.9520 -0.0000
vn 0.3061 0.9520 -0.0000
vn 0.4226 0.9063 -0.0000
vn -0.4226 -0.9063 -0.0000
vn 0.4226 -0.9063 -0.0000
vn -0.4226 0.9063 -0.0000
vn -0.0000 0.2588 -0.9659
vn -0.0000 -0.2588 0.9659
vn -0.0000 -0.9659 -0.2588
vn -0.0000 0.9659 0.2588
vn -0.0000 0.7703 0.6376
vn -0.0000 -0.7660 -0.6428
vn -0.0000 0.7660 0.6428
vn -0.0000 -0.6428 0.7660
vn -0.0000 0.6428 -0.7660
vn -0.0000 0.7660 -0.6428
vn -0.0000 -0.7660 0.6428
vn -0.0000 -0.6428 -0.7660
vn -0.0000 0.6428 0.7660
vn -0.0000 0.7605 0.6493
vn -0.0000 0.7605 -0.6494
vn 0.7226 0.4199 0.5490
vn -0.0000 0.7759 0.6308
vn -0.0000 0.6476 0.7620
vn -0.0000 0.7305 0.6829
vn -0.0000 0.2783 0.9605
vn -0.0000 0.7695 0.6387
vn -0.0000 0.4226 0.9063
vn -0.0000 -0.4226 -0.9063
vn -0.0000 -0.4226 0.9063
vn -0.0000 0.4226 -0.9063
vn -0.0000 0.9998 -0.0190
vn 0.0057 -0.7636 -0.6456
vn -0.0034 -0.0050 1.0000
vn -0.0000 0.6486 -0.7612
vn 0.0225 -0.8640 0.5029
vn -0.0000 -0.7658 -0.6431
vn -0.0141 0.7634 0.6458
vn 0.9998 -0.0000 0.0187
vt 0.375000 0.000000
vt 0.625000 0.000000
vt 0.625000 0.250000
vt 0.375000 0.250000
vt 0.625000 0.500000
vt 0.375000 0.500000
vt 0.625000 0.750000
vt 0.375000 0.750000
vt 0.625000 1.000000
vt 0.375000 1.000000
vt 0.125000 0.500000
vt 0.125000 0.750000
vt 0.875000 0.500000
vt 0.875000 0.750000
vt 0.375000 0.125000
vt 0.625000 0.125000
vt 0.375000 0.625000
vt 0.625000 0.625000
vt 0.125000 0.625000
vt 0.875000 0.625000
vt 0.375000 0.187500
vt 0.625000 0.187500
vt 0.375000 0.687500
vt 0.625000 0.687500
vt 0.125000 0.687500
vt 0.875000 0.687500
vt 0.625000 0.562500
vt 0.375000 0.562500
vt 0.125000 0.562500
vt 0.875000 0.562500
vt 0.625000 0.062500
vt 0.375000 0.062500
vt 0.375000 0.687500
vt 0.625000 0.687500
vt 0.375000 0.562500
s 0
usemtl Материал.068
f 1/1/1 2/2/1 4/3/1 3/4/1
f 3/4/2 4/3/2 8/5/2 7/6/2
f 7/6/3 8/5/3 6/7/3 5/8/3
f 5/8/4 6/7/4 2/9/4 1/10/4
f 3/11/5 7/6/5 5/8/5 1/12/5
f 8/5/6 4/13/6 2/14/6 6/7/6
usemtl Материал.001
f 9/1/2 10/2/2 12/3/2 11/4/2
f 11/4/3 12/3/3 16/5/3 15/6/3
f 15/6/4 16/5/4 14/7/4 13/8/4
f 13/8/1 14/7/1 10/9/1 9/10/1
f 11/11/5 15/6/5 13/8/5 9/12/5
f 16/5/7 12/13/7 10/14/7 14/7/7
f 17/1/1 18/2/1 20/3/1 19/4/1
f 19/4/2 20/3/2 24/5/2 23/6/2
f 23/6/3 24/5/3 22/7/3 21/8/3
f 21/8/4 22/7/4 18/9/4 17/10/4
f 19/11/5 23/6/5 21/8/5 17/12/5
f 24/5/7 20/13/7 18/14/7 22/7/7
f 25/1/1 26/2/1 28/3/1 27/4/1
f 27/4/2 28/3/2 32/5/2 31/6/2
f 31/6/3 32/5/3 30/7/3 29/8/3
f 29/8/4 30/7/4 26/9/4 25/10/4
f 32/5/7 28/13/7 26/14/7 30/7/7
f 33/4/1 34/3/1 38/5/1 37/6/1
f 37/6/2 38/5/2 36/7/2 35/8/2
f 38/5/7 34/13/7 36/7/7
f 39/1/4 40/2/4 42/3/4 41/4/4
f 41/4/1 42/3/1 46/5/1 45/6/1
f 45/6/2 46/5/2 44/7/2 43/8/2
f 43/8/3 44/7/3 40/9/3 39/10/3
f 41/11/5 45/6/5 43/8/5 39/12/5
f 46/5/7 42/13/7 40/14/7 44/7/7
f 47/1/2 48/2/2 50/3/2 49/4/2
f 49/4/3 50/3/3 54/5/3 53/6/3
f 53/6/4 54/5/4 52/7/4 51/8/4
f 51/8/1 52/7/1 48/9/1 47/10/1
f 54/5/7 50/13/7 48/14/7 52/7/7
f 55/1/3 56/2/3 58/3/3 57/4/3
f 57/4/4 58/3/4 62/5/4 61/6/4
f 61/6/1 62/5/1 60/7/1 59/8/1
f 59/8/2 60/7/2 56/9/2 55/10/2
f 62/5/7 58/13/7 56/14/7 60/7/7
f 63/1/3 64/2/3 66/3/3 65/4/3
f 65/4/4 66/3/4 70/5/4 69/6/4
f 69/6/1 70/5/1 68/7/1 67/8/1
f 67/8/2 68/7/2 64/9/2 63/10/2
f 65/11/5 69/6/5 67/8/5 63/12/5
f 70/5/7 66/13/7 64/14/7 68/7/7
f 73/4/2 74/3/2 78/5/2 77/6/2
f 75/8/4 76/7/4 72/9/4 71/10/4
f 73/11/3 77/6/3 75/8/3 71/12/3
f 78/5/1 74/13/1 72/14/1 76/7/1
f 81/4/2 82/3/2 86/5/2 85/6/2
f 83/8/4 84/7/4 80/9/4 79/10/4
f 81/11/3 85/6/3 83/8/3 79/12/3
f 86/5/1 82/13/1 80/14/1 84/7/1
f 89/4/2 90/3/2 94/5/2 93/6/2
f 91/8/4 92/7/4 88/9/4 87/10/4
f 89/11/3 93/6/3 91/8/3 87/12/3
f 94/5/1 90/13/1 88/14/1 92/7/1
f 97/4/2 98/3/2 102/5/2 101/6/2
f 99/8/4 100/7/4 96/9/4 95/10/4
f 97/11/3 101/6/3 99/8/3 95/12/3
f 102/5/1 98/13/1 96/14/1 100/7/1
f 105/4/2 106/3/2 110/5/2 109/6/2
f 107/8/4 108/7/4 104/9/4 103/10/4
f 105/11/3 109/6/3 107/8/3 103/12/3
f 110/5/1 106/13/1 104/14/1 108/7/1
f 113/4/2 114/3/2 118/5/2 117/6/2
f 115/8/4 116/7/4 112/9/4 111/10/4
f 113/11/3 117/6/3 115/8/3 111/12/3
f 118/5/1 114/13/1 112/14/1 116/7/1
f 121/4/2 122/3/2 126/5/2 125/6/2
f 123/8/4 124/7/4 120/9/4 119/10/4
f 121/11/3 125/6/3 123/8/3 119/12/3
f 126/5/1 122/13/1 120/14/1 124/7/1
f 129/4/2 130/3/2 134/5/2 133/6/2
f 131/8/4 132/7/4 128/9/4 127/10/4
f 129/11/3 133/6/3 131/8/3 127/12/3
f 134/5/1 130/13/1 128/14/1 132/7/1
f 137/4/2 138/3/2 142/5/2 141/6/2
f 139/8/4 140/7/4 136/9/4 135/10/4
f 137/11/3 141/6/3 139/8/3 135/12/3
f 142/5/1 138/13/1 136/14/1 140/7/1
f 145/4/2 146/3/2 150/5/2 149/6/2
f 147/8/4 148/7/4 144/9/4 143/10/4
f 145/11/3 149/6/3 147/8/3 143/12/3
f 150/5/1 146/13/1 144/14/1 148/7/1
f 153/4/2 154/3/2 158/5/2 157/6/2
f 155/8/4 156/7/4 152/9/4 151/10/4
f 153/11/3 157/6/3 155/8/3 151/12/3
f 158/5/1 154/13/1 152/14/1 156/7/1
f 161/4/1 162/3/1 166/5/1 165/6/1
f 163/8/3 164/7/3 160/9/3 159/10/3
f 161/11/2 165/6/2 163/8/2 159/12/2
f 166/5/4 162/13/4 160/14/4 164/7/4
f 169/4/1 170/3/1 174/5/1 173/6/1
f 171/8/3 172/7/3 168/9/3 167/10/3
f 169/11/2 173/6/2 171/8/2 167/12/2
f 174/5/4 170/13/4 168/14/4 172/7/4
f 177/4/1 178/3/1 182/5/1 181/6/1
f 179/8/3 180/7/3 176/9/3 175/10/3
f 177/11/2 181/6/2 179/8/2 175/12/2
f 182/5/4 178/13/4 176/14/4 180/7/4
f 185/4/1 186/3/1 190/5/1 189/6/1
f 187/8/3 188/7/3 184/9/3 183/10/3
f 185/11/2 189/6/2 187/8/2 183/12/2
f 190/5/4 186/13/4 184/14/4 188/7/4
f 193/4/1 194/3/1 198/5/1 197/6/1
f 195/8/3 196/7/3 192/9/3 191/10/3
f 193/11/2 197/6/2 195/8/2 191/12/2
f 198/5/4 194/13/4 192/14/4 196/7/4
f 201/4/1 202/3/1 206/5/1 205/6/1
f 203/8/3 204/7/3 200/9/3 199/10/3
f 201/11/2 205/6/2 203/8/2 199/12/2
f 206/5/4 202/13/4 200/14/4 204/7/4
f 209/4/1 210/3/1 214/5/1 213/6/1
f 211/8/3 212/7/3 208/9/3 207/10/3
f 209/11/2 213/6/2 211/8/2 207/12/2
f 214/5/4 210/13/4 208/14/4 212/7/4
f 217/4/1 218/3/1 222/5/1 221/6/1
f 219/8/3 220/7/3 216/9/3 215/10/3
f 217/11/2 221/6/2 219/8/2 215/12/2
f 222/5/4 218/13/4 216/14/4 220/7/4
f 629/4/2 630/3/2 634/5/2 633/6/2
f 631/8/4 632/7/4 628/9/4 627/10/4
f 629/11/3 633/6/3 631/8/3 627/12/3
f 634/5/1 630/13/1 628/14/1 632/7/1
f 35/8/56 36/7/56 34/3/56 33/4/56
usemtl Материал.002
f 225/11/5 229/6/5 227/8/5 223/12/5
f 230/5/7 226/13/7 224/14/7 228/7/7
usemtl Материал.017
f 233/4/2 234/3/2 238/5/2 237/6/2
f 235/8/4 236/7/4 232/9/4 231/10/4
f 233/11/3 237/6/3 235/8/3 231/12/3
f 238/5/1 234/13/1 232/14/1 236/7/1
usemtl Материал.005
f 239/1/1 240/2/1 242/3/1 241/4/1
f 241/4/2 242/3/2 246/5/2 245/6/2
f 243/8/4 244/7/4 240/9/4 239/10/4
f 241/11/5 245/6/5 243/8/5 239/12/5
f 246/5/7 242/13/7 240/14/7 244/7/7
f 247/1/3 248/2/3 250/3/3 249/4/3
f 249/4/4 250/3/4 254/5/4 253/6/4
f 253/6/1 254/5/1 252/7/1 251/8/1
f 251/8/2 252/7/2 248/9/2 247/10/2
f 249/11/5 253/6/5 251/8/5 247/12/5
f 254/5/7 250/13/7 248/14/7 252/7/7
f 279/1/2 280/2/2 282/3/2 281/4/2
f 281/4/3 282/3/3 286/5/3 285/6/3
f 283/8/1 284/7/1 280/9/1 279/10/1
f 281/11/5 285/6/5 283/8/5 279/12/5
f 286/5/7 282/13/7 280/14/7 284/7/7
usemtl Материал.015
f 289/4/2 290/3/2 294/5/2 293/6/2
f 291/8/4 292/7/4 288/9/4 287/10/4
f 289/11/3 293/6/3 291/8/3 287/12/3
f 294/5/1 290/13/1 288/14/1 292/7/1
f 297/4/2 298/3/2 302/5/2 301/6/2
f 299/8/4 300/7/4 296/9/4 295/10/4
f 297/11/3 301/6/3 299/8/3 295/12/3
f 302/5/1 298/13/1 296/14/1 300/7/1
f 305/4/2 306/3/2 310/5/2 309/6/2
f 307/8/4 308/7/4 304/9/4 303/10/4
f 305/11/3 309/6/3 307/8/3 303/12/3
f 310/5/1 306/13/1 304/14/1 308/7/1
f 313/4/2 314/3/2 318/5/2 317/6/2
f 315/8/4 316/7/4 312/9/4 311/10/4
f 313/11/3 317/6/3 315/8/3 311/12/3
f 318/5/1 314/13/1 312/14/1 316/7/1
f 321/4/2 322/3/2 326/5/2 325/6/2
f 323/8/4 324/7/4 320/9/4 319/10/4
f 321/11/3 325/6/3 323/8/3 319/12/3
f 326/5/1 322/13/1 320/14/1 324/7/1
f 329/4/2 330/3/2 334/5/2 333/6/2
f 331/8/4 332/7/4 328/9/4 327/10/4
f 329/11/3 333/6/3 331/8/3 327/12/3
f 334/5/1 330/13/1 328/14/1 332/7/1
f 337/4/2 338/3/2 342/5/2 341/6/2
f 339/8/4 340/7/4 336/9/4 335/10/4
f 337/11/3 341/6/3 339/8/3 335/12/3
f 342/5/1 338/13/1 336/14/1 340/7/1
f 345/4/2 346/3/2 350/5/2 349/6/2
f 347/8/4 348/7/4 344/9/4 343/10/4
f 345/11/3 349/6/3 347/8/3 343/12/3
f 350/5/1 346/13/1 344/14/1 348/7/1
f 353/4/1 354/3/1 358/5/1 357/6/1
f 355/8/3 356/7/3 352/9/3 351/10/3
f 353/11/2 357/6/2 355/8/2 351/12/2
f 358/5/4 354/13/4 352/14/4 356/7/4
f 361/4/1 362/3/1 366/5/1 365/6/1
f 363/8/3 364/7/3 360/9/3 359/10/3
f 361/11/2 365/6/2 363/8/2 359/12/2
f 366/5/4 362/13/4 360/14/4 364/7/4
f 369/4/1 370/3/1 374/5/1 373/6/1
f 371/8/3 372/7/3 368/9/3 367/10/3
f 369/11/2 373/6/2 371/8/2 367/12/2
f 374/5/4 370/13/4 368/14/4 372/7/4
f 377/4/1 378/3/1 382/5/1 381/6/1
f 379/8/3 380/7/3 376/9/3 375/10/3
f 377/11/2 381/6/2 379/8/2 375/12/2
f 382/5/4 378/13/4 376/14/4 380/7/4
f 385/4/1 386/3/1 390/5/1 389/6/1
f 387/8/3 388/7/3 384/9/3 383/10/3
f 385/11/2 389/6/2 387/8/2 383/12/2
f 390/5/4 386/13/4 384/14/4 388/7/4
f 393/4/1 394/3/1 398/5/1 397/6/1
f 395/8/3 396/7/3 392/9/3 391/10/3
f 393/11/2 397/6/2 395/8/2 391/12/2
f 398/5/4 394/13/4 392/14/4 396/7/4
f 401/4/1 402/3/1 406/5/1 405/6/1
f 403/8/3 404/7/3 400/9/3 399/10/3
f 401/11/2 405/6/2 403/8/2 399/12/2
f 406/5/4 402/13/4 400/14/4 404/7/4
f 409/4/1 410/3/1 414/5/1 413/6/1
f 411/8/3 412/7/3 408/9/3 407/10/3
f 409/11/2 413/6/2 411/8/2 407/12/2
f 414/5/4 410/13/4 408/14/4 412/7/4
usemtl Материал.011
f 415/1/2 416/2/2 418/3/2 417/4/2
f 417/4/3 418/3/3 422/5/3 421/6/3
f 419/8/1 420/7/1 416/9/1 415/10/1
f 417/11/5 421/6/5 419/8/5 415/12/5
f 422/5/7 418/13/7 416/14/7 420/7/7
f 421/6/4 422/5/4 420/7/4 419/8/4
usemtl Материал.013
f 423/1/4 424/2/4 426/3/4 425/4/4
f 425/4/1 426/3/1 430/5/1 429/6/1
f 427/8/3 428/7/3 424/9/3 423/10/3
f 425/11/5 429/6/5 427/8/5 423/12/5
f 430/5/7 426/13/7 424/14/7 428/7/7
f 429/6/2 430/5/2 428/7/2 427/8/2
usemtl Материал.019
f 433/4/2 434/3/2 438/5/2 437/6/2
f 435/8/4 436/7/4 432/9/4 431/10/4
f 433/11/3 437/6/3 435/8/3 431/12/3
f 438/5/1 434/13/1 432/14/1 436/7/1
usemtl Материал.021
f 441/4/2 442/3/2 446/5/2 445/6/2
f 443/8/4 444/7/4 440/9/4 439/10/4
f 441/11/3 445/6/3 443/8/3 439/12/3
f 446/5/1 442/13/1 440/14/1 444/7/1
usemtl Материал.023
f 449/4/2 450/3/2 454/5/2 453/6/2
f 451/8/4 452/7/4 448/9/4 447/10/4
f 449/11/3 453/6/3 451/8/3 447/12/3
f 454/5/1 450/13/1 448/14/1 452/7/1
usemtl Материал.027
f 455/1/3 457/4/3 458/3/3 456/2/3
f 457/4/8 461/6/8 462/5/8 458/3/8
f 461/6/1 459/8/1 460/7/1 462/5/1
f 459/8/9 455/10/9 456/9/9 460/7/9
usemtl Материал.025
f 463/1/3 465/4/3 466/3/3 464/2/3
f 465/4/10 469/6/10 470/5/10 466/3/10
f 469/6/1 467/8/1 468/7/1 470/5/1
f 467/8/11 463/10/11 464/9/11 468/7/11
usemtl Материал.028
f 471/1/3 473/4/3 474/3/3 472/2/3
f 473/4/12 477/6/12 478/5/12 474/3/12
f 477/6/1 475/8/1 476/7/1 478/5/1
f 475/8/13 471/10/13 472/9/13 476/7/13
usemtl Материал.026
f 479/1/3 481/4/3 482/3/3 480/2/3
f 481/4/14 485/6/14 486/5/14 482/3/14
f 485/6/1 483/8/1 484/7/1 486/5/1
f 483/8/15 479/10/15 480/9/15 484/7/15
usemtl Материал.029
f 487/1/3 489/4/3 490/3/3 488/2/3
f 489/4/8 493/6/8 494/5/8 490/3/8
f 493/6/1 491/8/1 492/7/1 494/5/1
f 491/8/9 487/10/9 488/9/9 492/7/9
usemtl Материал.030
f 495/1/3 497/4/3 498/3/3 496/2/3
f 497/4/10 501/6/10 502/5/10 498/3/10
f 501/6/1 499/8/1 500/7/1 502/5/1
f 499/8/11 495/10/11 496/9/11 500/7/11
usemtl Материал.031
f 503/1/3 505/4/3 506/3/3 504/2/3
f 505/4/8 509/6/8 510/5/8 506/3/8
f 509/6/1 507/8/1 508/7/1 510/5/1
f 507/8/9 503/10/9 504/9/9 508/7/9
usemtl Материал.032
f 511/1/1 512/2/1 514/3/1 513/4/1
f 513/4/11 514/3/11 518/5/11 517/6/11
f 517/6/3 518/5/3 516/7/3 515/8/3
f 515/8/10 516/7/10 512/9/10 511/10/10
usemtl Материал.033
f 519/1/3 521/4/3 522/3/3 520/2/3
f 521/4/12 525/6/12 526/5/12 522/3/12
f 525/6/1 523/8/1 524/7/1 526/5/1
f 523/8/13 519/10/13 520/9/13 524/7/13
usemtl Материал.034
f 527/1/3 529/4/3 530/3/3 528/2/3
f 529/4/14 533/6/14 534/5/14 530/3/14
f 533/6/1 531/8/1 532/7/1 534/5/1
f 531/8/15 527/10/15 528/9/15 532/7/15
usemtl Материал.049
f 535/1/2 537/4/2 538/3/2 536/2/2
f 537/4/16 541/6/16 542/5/16 538/3/16
f 541/6/4 539/8/4 540/7/4 542/5/4
f 539/8/17 535/10/17 536/9/17 540/7/17
usemtl Материал.050
f 543/1/2 545/4/2 546/3/2 544/2/2
f 545/4/18 549/6/18 550/5/18 546/3/18
f 549/6/4 547/8/4 548/7/4 550/5/4
f 547/8/19 543/10/19 544/9/19 548/7/19
usemtl Материал.051
f 551/1/2 553/4/2 554/3/2 552/2/2
f 553/4/20 557/6/20 558/5/20 554/3/20
f 557/6/4 555/8/4 556/7/4 558/5/4
f 555/8/21 551/10/21 552/9/21 556/7/21
usemtl Материал.052
f 559/1/2 561/4/2 562/3/2 560/2/2
f 561/4/22 565/6/22 566/5/22 562/3/22
f 565/6/4 563/8/4 564/7/4 566/5/4
f 563/8/23 559/10/23 560/9/23 564/7/23
usemtl Материал.057
f 567/1/2 569/4/2 570/3/2 568/2/2
f 569/4/20 573/6/20 574/5/20 570/3/20
f 573/6/4 571/8/4 572/7/4 574/5/4
f 571/8/21 567/10/21 568/9/21 572/7/21
usemtl Материал.058
f 575/1/2 577/4/2 578/3/2 576/2/2
f 577/4/22 581/6/22 582/5/22 578/3/22
f 581/6/4 579/8/4 580/7/4 582/5/4
f 579/8/23 575/10/23 576/9/23 580/7/23
usemtl Материал.059
f 583/1/2 585/4/2 586/3/2 584/2/2
f 585/4/16 589/6/16 590/5/16 586/3/16
f 589/6/4 587/8/4 588/7/4 590/5/4
f 587/8/17 583/10/17 584/9/17 588/7/17
usemtl Материал.060
f 591/1/2 593/4/2 594/3/2 592/2/2
f 593/4/18 597/6/18 598/5/18 594/3/18
f 597/6/4 595/8/4 596/7/4 598/5/4
f 595/8/19 591/10/19 592/9/19 596/7/19
usemtl Материал.065
f 602/8/3 604/5/3 603/7/3
f 600/14/1 601/13/1 599/10/1
f 602/8/4 603/7/4 600/9/4 599/10/4
f 604/5/7 601/13/7 600/14/7 603/7/7
usemtl Материал.007
f 605/1/1 606/2/1 608/3/1 607/4/1
f 607/4/24 608/3/24 612/5/24 611/6/24
f 611/6/3 612/5/3 610/7/3 609/8/3
f 609/8/25 610/7/25 606/9/25 605/10/25
f 607/11/26 611/6/26 609/8/26 605/12/26
f 612/5/27 608/13/27 606/14/27 610/7/27
usemtl Материал.008
f 613/1/1 614/2/1 616/3/1 615/4/1
f 615/4/2 616/3/2 620/5/2 619/6/2
f 619/6/3 620/5/3 618/7/3 617/8/3
f 617/8/4 618/7/4 614/9/4 613/10/4
f 615/11/5 619/6/5 617/8/5 613/12/5
f 620/5/7 616/13/7 614/14/7 618/7/7
usemtl Материал.066
f 624/8/3 626/5/3 625/7/3
f 622/14/1 623/13/1 621/10/1
f 624/8/4 625/7/4 622/9/4 621/10/4
f 626/5/7 623/13/7 622/14/7 625/7/7
usemtl Материал.035
f 635/1/3 637/4/3 638/3/3 636/2/3
f 637/4/12 641/6/12 642/5/12 638/3/12
f 641/6/1 639/8/1 640/7/1 642/5/1
f 639/8/13 635/10/13 636/9/13 640/7/13
usemtl Материал.036
f 643/1/3 645/4/3 646/3/3 644/2/3
f 645/4/14 649/6/14 650/5/14 646/3/14
f 649/6/1 647/8/1 648/7/1 650/5/1
f 647/8/15 643/10/15 644/9/15 648/7/15
usemtl Материал.037
f 651/1/3 653/4/3 654/3/3 652/2/3
f 653/4/12 657/6/12 658/5/12 654/3/12
f 657/6/1 655/8/1 656/7/1 658/5/1
f 655/8/13 651/10/13 652/9/13 656/7/13
usemtl Материал.038
f 659/1/3 661/4/3 662/3/3 660/2/3
f 661/4/14 665/6/14 666/5/14 662/3/14
f 665/6/1 663/8/1 664/7/1 666/5/1
f 663/8/15 659/10/15 660/9/15 664/7/15
usemtl Материал.039
f 667/1/3 669/4/3 670/3/3 668/2/3
f 669/4/8 673/6/8 674/5/8 670/3/8
f 673/6/1 671/8/1 672/7/1 674/5/1
f 671/8/9 667/10/9 668/9/9 672/7/9
usemtl Материал.040
f 675/1/3 677/4/3 678/3/3 676/2/3
f 677/4/10 681/6/10 682/5/10 678/3/10
f 681/6/1 679/8/1 680/7/1 682/5/1
f 679/8/11 675/10/11 676/9/11 680/7/11
usemtl Материал.041
f 683/1/3 685/4/3 686/3/3 684/2/3
f 685/4/8 689/6/8 690/5/8 686/3/8
f 689/6/1 687/8/1 688/7/1 690/5/1
f 687/8/9 683/10/9 684/9/9 688/7/9
usemtl Материал.042
f 691/1/3 693/4/3 694/3/3 692/2/3
f 693/4/10 697/6/10 698/5/10 694/3/10
f 697/6/1 695/8/1 696/7/1 698/5/1
f 695/8/11 691/10/11 692/9/11 696/7/11
usemtl Материал.043
f 699/1/3 701/4/3 702/3/3 700/2/3
f 701/4/8 705/6/8 706/5/8 702/3/8
f 705/6/1 703/8/1 704/7/1 706/5/1
f 703/8/9 699/10/9 700/9/9 704/7/9
usemtl Материал.044
f 707/1/3 709/4/3 710/3/3 708/2/3
f 709/4/10 713/6/10 714/5/10 710/3/10
f 713/6/1 711/8/1 712/7/1 714/5/1
f 711/8/11 707/10/11 708/9/11 712/7/11
usemtl Материал.045
f 715/1/2 717/4/2 718/3/2 716/2/2
f 717/4/16 721/6/16 722/5/16 718/3/16
f 721/6/4 719/8/4 720/7/4 722/5/4
f 719/8/17 715/10/17 716/9/17 720/7/17
usemtl Материал.046
f 723/1/2 725/4/2 726/3/2 724/2/2
f 725/4/18 729/6/18 730/5/18 726/3/18
f 729/6/4 727/8/4 728/7/4 730/5/4
f 727/8/19 723/10/19 724/9/19 728/7/19
usemtl Материал.047
f 731/1/2 733/4/2 734/3/2 732/2/2
f 733/4/16 737/6/16 738/5/16 734/3/16
f 737/6/4 735/8/4 736/7/4 738/5/4
f 735/8/17 731/10/17 732/9/17 736/7/17
usemtl Материал.048
f 739/1/2 741/4/2 742/3/2 740/2/2
f 741/4/18 745/6/18 746/5/18 742/3/18
f 745/6/4 743/8/4 744/7/4 746/5/4
f 743/8/19 739/10/19 740/9/19 744/7/19
usemtl Материал.053
f 747/1/2 749/4/2 750/3/2 748/2/2
f 749/4/20 753/6/20 754/5/20 750/3/20
f 753/6/4 751/8/4 752/7/4 754/5/4
f 751/8/21 747/10/21 748/9/21 752/7/21
usemtl Материал.054
f 755/1/2 757/4/2 758/3/2 756/2/2
f 757/4/22 761/6/22 762/5/22 758/3/22
f 761/6/4 759/8/4 760/7/4 762/5/4
f 759/8/23 755/10/23 756/9/23 760/7/23
usemtl Материал.055
f 763/1/2 765/4/2 766/3/2 764/2/2
f 765/4/20 769/6/20 770/5/20 766/3/20
f 769/6/4 767/8/4 768/7/4 770/5/4
f 767/8/21 763/10/21 764/9/21 768/7/21
usemtl Материал.056
f 771/1/2 773/4/2 774/3/2 772/2/2
f 773/4/22 777/6/22 778/5/22 774/3/22
f 777/6/4 775/8/4 776/7/4 778/5/4
f 775/8/23 771/10/23 772/9/23 776/7/23
usemtl Материал.061
f 779/1/2 781/4/2 782/3/2 780/2/2
f 781/4/16 785/6/16 786/5/16 782/3/16
f 785/6/4 783/8/4 784/7/4 786/5/4
f 783/8/17 779/10/17 780/9/17 784/7/17
usemtl Материал.062
f 787/1/2 789/4/2 790/3/2 788/2/2
f 789/4/18 793/6/18 794/5/18 790/3/18
f 793/6/4 791/8/4 792/7/4 794/5/4
f 791/8/19 787/10/19 788/9/19 792/7/19
usemtl Материал.063
f 795/1/2 797/4/2 798/3/2 796/2/2
f 797/4/16 801/6/16 802/5/16 798/3/16
f 801/6/4 799/8/4 800/7/4 802/5/4
f 799/8/17 795/10/17 796/9/17 800/7/17
usemtl Материал.064
f 803/1/2 805/4/2 806/3/2 804/2/2
f 805/4/18 809/6/18 810/5/18 806/3/18
f 809/6/4 807/8/4 808/7/4 810/5/4
f 807/8/19 803/10/19 804/9/19 808/7/19
usemtl Материал.069
f 811/1/1 812/2/1 814/3/1 813/4/1
f 813/4/2 814/3/2 818/5/2 817/6/2
f 817/6/3 818/5/3 816/7/3 815/8/3
f 815/8/4 816/7/4 812/9/4 811/10/4
f 813/11/5 817/6/5 815/8/5 811/12/5
f 818/5/28 814/13/28 812/14/28 816/7/28
usemtl Материал.070
f 819/1/1 820/2/1 822/3/1 821/4/1
f 821/4/2 822/3/2 826/5/2 825/6/2
f 825/6/3 826/5/3 824/7/3 823/8/3
f 823/8/4 824/7/4 820/9/4 819/10/4
f 821/11/5 825/6/5 823/8/5 819/12/5
f 826/5/28 822/13/28 820/14/28 824/7/28
usemtl Материал.071
f 827/1/1 828/2/1 830/3/1 829/4/1
f 829/4/2 830/3/2 834/5/2 833/6/2
f 833/6/3 834/5/3 832/7/3 831/8/3
f 831/8/4 832/7/4 828/9/4 827/10/4
f 829/11/5 833/6/5 831/8/5 827/12/5
f 834/5/6 830/13/6 828/14/6 832/7/6
usemtl Материал.072
f 835/1/1 836/2/1 838/3/1 837/4/1
f 841/6/3 842/5/3 840/7/3 839/8/3
f 837/11/5 841/6/5 839/8/5 835/12/5
f 842/5/7 838/13/7 836/14/7 840/7/7
f 835/12/4 839/8/4 840/7/4 836/14/4
usemtl Материал.073
f 843/1/1 844/2/1 846/3/1 845/4/1
f 849/6/3 850/5/3 848/7/3 847/8/3
f 845/11/5 849/6/5 847/8/5 843/12/5
f 850/5/7 846/13/7 844/14/7 848/7/7
f 843/12/4 847/8/4 848/7/4 844/14/4
usemtl Материал.074
f 851/1/1 852/2/1 854/3/1 853/4/1
f 857/6/3 858/5/3 856/7/3 855/8/3
f 853/11/5 857/6/5 855/8/5 851/12/5
f 858/5/7 854/13/7 852/14/7 856/7/7
f 851/12/4 855/8/4 856/7/4 852/14/4
usemtl Материал.075
f 859/1/1 860/2/1 862/3/1 861/4/1
f 865/6/3 866/5/3 864/7/3 863/8/3
f 861/11/5 865/6/5 863/8/5 859/12/5
f 866/5/7 862/13/7 860/14/7 864/7/7
f 859/12/4 863/8/4 864/7/4 860/14/4
usemtl Материал.076
f 867/1/1 868/2/1 870/3/1 869/4/1
f 873/6/3 874/5/3 872/7/3 871/8/3
f 869/11/5 873/6/5 871/8/5 867/12/5
f 874/5/7 870/13/7 868/14/7 872/7/7
f 867/12/4 871/8/4 872/7/4 868/14/4
usemtl Материал.077
f 875/1/1 876/2/1 878/3/1 877/4/1
f 881/6/3 882/5/3 880/7/3 879/8/3
f 877/11/5 881/6/5 879/8/5 875/12/5
f 882/5/7 878/13/7 876/14/7 880/7/7
f 875/12/4 879/8/4 880/7/4 876/14/4
usemtl Материал.078
f 883/1/1 884/2/1 886/3/1 885/4/1
f 889/6/3 890/5/3 888/7/3 887/8/3
f 885/11/5 889/6/5 887/8/5 883/12/5
f 890/5/7 886/13/7 884/14/7 888/7/7
f 883/12/4 887/8/4 888/7/4 884/14/4
usemtl Материал.079
f 891/1/1 892/2/1 894/3/1 893/4/1
f 897/6/3 898/5/3 896/7/3 895/8/3
f 893/11/5 897/6/5 895/8/5 891/12/5
f 898/5/7 894/13/7 892/14/7 896/7/7
f 891/12/4 895/8/4 896/7/4 892/14/4
usemtl Материал.081
f 899/1/1 900/2/1 902/3/1 901/4/1
f 905/6/3 906/5/3 904/7/3 903/8/3
f 901/11/5 905/6/5 903/8/5 899/12/5
f 906/5/7 902/13/7 900/14/7 904/7/7
f 899/12/4 903/8/4 904/7/4 900/14/4
usemtl Материал.082
f 907/1/1 908/2/1 910/3/1 909/4/1
f 913/6/3 914/5/3 912/7/3 911/8/3
f 909/11/5 913/6/5 911/8/5 907/12/5
f 914/5/7 910/13/7 908/14/7 912/7/7
f 907/12/4 911/8/4 912/7/4 908/14/4
usemtl Материал.083
f 915/1/1 916/2/1 918/3/1 917/4/1
f 921/6/3 922/5/3 920/7/3 919/8/3
f 917/11/5 921/6/5 919/8/5 915/12/5
f 922/5/7 918/13/7 916/14/7 920/7/7
f 915/12/4 919/8/4 920/7/4 916/14/4
usemtl Материал.084
f 923/1/1 924/2/1 926/3/1 925/4/1
f 929/6/3 930/5/3 928/7/3 927/8/3
f 925/11/5 929/6/5 927/8/5 923/12/5
f 930/5/7 926/13/7 924/14/7 928/7/7
f 923/12/4 927/8/4 928/7/4 924/14/4
usemtl Материал.085
f 931/1/1 932/2/1 934/3/1 933/4/1
f 937/6/3 938/5/3 936/7/3 935/8/3
f 933/11/2 937/6/2 935/8/2 931/12/2
f 938/5/4 934/13/4 932/14/4 936/7/4
usemtl Материал.086
f 939/1/1 940/2/1 942/3/1 941/4/1
f 945/6/3 946/5/3 944/7/3 943/8/3
f 941/11/2 945/6/2 943/8/2 939/12/2
f 946/5/4 942/13/4 940/14/4 944/7/4
usemtl Материал.087
f 947/1/1 948/2/1 950/3/1 949/4/1
f 953/6/3 954/5/3 952/7/3 951/8/3
f 949/11/5 953/6/5 951/8/5 947/12/5
f 954/5/7 950/13/7 948/14/7 952/7/7
f 947/12/4 951/8/4 952/7/4 948/14/4
usemtl Материал.088
f 955/1/1 956/2/1 958/3/1 957/4/1
f 961/6/3 962/5/3 960/7/3 959/8/3
f 957/11/5 961/6/5 959/8/5 955/12/5
f 962/5/7 958/13/7 956/14/7 960/7/7
f 955/12/4 959/8/4 960/7/4 956/14/4
usemtl Материал.089
f 963/1/1 964/2/1 966/3/1 965/4/1
f 969/6/3 970/5/3 968/7/3 967/8/3
f 965/11/29 969/6/29 967/8/29 963/12/29
f 970/5/30 966/13/30 964/14/30 968/7/30
f 963/12/31 967/8/31 968/7/31 964/14/31
f 965/11/32 966/13/32 970/5/32 969/6/32
usemtl Материал.090
f 971/1/1 972/2/1 974/3/1 973/4/1
f 977/6/3 978/5/3 976/7/3 975/8/3
f 973/11/33 977/6/33 975/8/33 971/12/33
f 978/5/34 974/13/34 972/14/34 976/7/34
f 971/12/35 975/8/35 976/7/35 972/14/35
f 973/11/36 974/13/36 978/5/36 977/6/36
usemtl Материал.091
f 979/1/1 980/2/1 982/3/1 981/4/1
f 985/6/3 986/5/3 984/7/3 983/8/3
f 981/11/33 985/6/33 983/8/33 979/12/33
f 986/5/34 982/13/34 980/14/34 984/7/34
f 979/12/35 983/8/35 984/7/35 980/14/35
f 981/11/36 982/13/36 986/5/36 985/6/36
usemtl Материал.092
f 987/1/1 988/2/1 990/3/1 989/4/1
f 993/6/3 994/5/3 992/7/3 991/8/3
f 989/11/29 993/6/29 991/8/29 987/12/29
f 994/5/30 990/13/30 988/14/30 992/7/30
f 987/12/31 991/8/31 992/7/31 988/14/31
f 989/11/32 990/13/32 994/5/32 993/6/32
usemtl Материал.093
f 995/1/4 996/2/4 998/3/4 997/4/4
f 1001/6/2 1002/5/2 1000/7/2 999/8/2
f 997/11/5 1001/6/5 999/8/5 995/12/5
f 1002/5/7 998/13/7 996/14/7 1000/7/7
f 995/12/3 999/8/3 1000/7/3 996/14/3
usemtl Материал.094
f 1003/1/4 1004/2/4 1006/3/4 1005/4/4
f 1009/6/2 1010/5/2 1008/7/2 1007/8/2
f 1005/11/5 1009/6/5 1007/8/5 1003/12/5
f 1010/5/7 1006/13/7 1004/14/7 1008/7/7
f 1003/12/3 1007/8/3 1008/7/3 1004/14/3
usemtl Материал.095
f 1011/1/4 1012/2/4 1014/3/4 1013/4/4
f 1017/6/2 1018/5/2 1016/7/2 1015/8/2
f 1013/11/5 1017/6/5 1015/8/5 1011/12/5
f 1018/5/7 1014/13/7 1012/14/7 1016/7/7
f 1011/12/3 1015/8/3 1016/7/3 1012/14/3
usemtl Материал.096
f 1019/1/4 1020/2/4 1022/3/4 1021/4/4
f 1025/6/2 1026/5/2 1024/7/2 1023/8/2
f 1021/11/5 1025/6/5 1023/8/5 1019/12/5
f 1026/5/7 1022/13/7 1020/14/7 1024/7/7
f 1019/12/3 1023/8/3 1024/7/3 1020/14/3
usemtl Материал.097
f 1027/1/4 1028/2/4 1030/3/4 1029/4/4
f 1033/6/2 1034/5/2 1032/7/2 1031/8/2
f 1029/11/5 1033/6/5 1031/8/5 1027/12/5
f 1034/5/7 1030/13/7 1028/14/7 1032/7/7
f 1027/12/3 1031/8/3 1032/7/3 1028/14/3
usemtl Материал.098
f 1035/1/4 1036/2/4 1038/3/4 1037/4/4
f 1041/6/2 1042/5/2 1040/7/2 1039/8/2
f 1037/11/5 1041/6/5 1039/8/5 1035/12/5
f 1042/5/7 1038/13/7 1036/14/7 1040/7/7
f 1035/12/3 1039/8/3 1040/7/3 1036/14/3
usemtl Материал.100
f 1043/1/4 1044/2/4 1046/3/4 1045/4/4
f 1049/6/2 1050/5/2 1048/7/2 1047/8/2
f 1045/11/5 1049/6/5 1047/8/5 1043/12/5
f 1050/5/37 1046/13/37 1044/14/37 1048/7/37
f 1043/12/3 1047/8/3 1048/7/3 1044/14/3
usemtl Материал.101
f 1051/1/4 1052/2/4 1054/3/4 1053/4/4
f 1057/6/2 1058/5/2 1056/7/2 1055/8/2
f 1053/11/5 1057/6/5 1055/8/5 1051/12/5
f 1058/5/7 1054/13/7 1052/14/7 1056/7/7
f 1051/12/3 1055/8/3 1056/7/3 1052/14/3
usemtl Материал.102
f 1059/1/2 1060/2/2 1062/3/2 1061/4/2
f 1065/6/4 1066/5/4 1064/7/4 1063/8/4
f 1061/11/5 1065/6/5 1063/8/5 1059/12/5
f 1066/5/7 1062/13/7 1060/14/7 1064/7/7
f 1059/12/1 1063/8/1 1064/7/1 1060/14/1
usemtl Материал.103
f 1067/1/2 1068/2/2 1070/3/2 1069/4/2
f 1073/6/4 1074/5/4 1072/7/4 1071/8/4
f 1069/11/5 1073/6/5 1071/8/5 1067/12/5
f 1074/5/38 1070/13/38 1068/14/38 1072/7/38
f 1067/12/1 1071/8/1 1072/7/1 1068/14/1
usemtl Материал.104
f 1075/1/2 1076/2/2 1078/3/2 1077/4/2
f 1081/6/4 1082/5/4 1080/7/4 1079/8/4
f 1077/11/5 1081/6/5 1079/8/5 1075/12/5
f 1082/5/7 1078/13/7 1076/14/7 1080/7/7
f 1075/12/1 1079/8/1 1080/7/1 1076/14/1
usemtl Материал.105
f 1083/1/2 1084/2/2 1086/3/2 1085/4/2
f 1089/6/4 1090/5/4 1088/7/4 1087/8/4
f 1085/11/5 1089/6/5 1087/8/5 1083/12/5
f 1090/5/7 1086/13/7 1084/14/7 1088/7/7
f 1083/12/1 1087/8/1 1088/7/1 1084/14/1
usemtl Материал.106
f 1091/1/2 1092/2/2 1094/3/2 1093/4/2
f 1097/6/4 1098/5/4 1096/7/4 1095/8/4
f 1093/11/5 1097/6/5 1095/8/5 1091/12/5
f 1098/5/7 1094/13/7 1092/14/7 1096/7/7
f 1091/12/1 1095/8/1 1096/7/1 1092/14/1
usemtl Материал.107
f 1099/1/2 1100/2/2 1102/3/2 1101/4/2
f 1105/6/4 1106/5/4 1104/7/4 1103/8/4
f 1101/11/5 1105/6/5 1103/8/5 1099/12/5
f 1106/5/7 1102/13/7 1100/14/7 1104/7/7
f 1099/12/1 1103/8/1 1104/7/1 1100/14/1
usemtl Материал.108
f 1107/1/2 1108/2/2 1110/3/2 1109/4/2
f 1113/6/4 1114/5/4 1112/7/4 1111/8/4
f 1109/11/5 1113/6/5 1111/8/5 1107/12/5
f 1114/5/7 1110/13/7 1108/14/7 1112/7/7
f 1107/12/1 1111/8/1 1112/7/1 1108/14/1
usemtl Материал.109
f 1115/1/2 1116/2/2 1118/3/2 1117/4/2
f 1121/6/4 1122/5/4 1120/7/4 1119/8/4
f 1117/11/5 1121/6/5 1119/8/5 1115/12/5
f 1122/5/7 1118/13/7 1116/14/7 1120/7/7
f 1115/12/1 1119/8/1 1120/7/1 1116/14/1
usemtl Материал.110
f 1123/1/4 1124/2/4 1126/3/4 1125/4/4
f 1129/6/2 1130/5/2 1128/7/2 1127/8/2
f 1125/11/5 1129/6/5 1127/8/5 1123/12/5
f 1130/5/7 1126/13/7 1124/14/7 1128/7/7
f 1123/12/3 1127/8/3 1128/7/3 1124/14/3
usemtl Материал.111
f 1131/1/4 1132/2/4 1134/3/4 1133/4/4
f 1137/6/2 1138/5/2 1136/7/2 1135/8/2
f 1133/11/5 1137/6/5 1135/8/5 1131/12/5
f 1138/5/7 1134/13/7 1132/14/7 1136/7/7
f 1131/12/3 1135/8/3 1136/7/3 1132/14/3
usemtl Материал.112
f 1139/1/4 1140/2/4 1142/3/4 1141/4/4
f 1145/6/2 1146/5/2 1144/7/2 1143/8/2
f 1141/11/5 1145/6/5 1143/8/5 1139/12/5
f 1146/5/7 1142/13/7 1140/14/7 1144/7/7
f 1139/12/3 1143/8/3 1144/7/3 1140/14/3
usemtl Материал.113
f 1147/1/1 1148/2/1 1150/3/1 1149/4/1
f 1153/6/3 1154/5/3 1152/7/3 1151/8/3
f 1149/11/2 1153/6/2 1151/8/2 1147/12/2
f 1154/5/4 1150/13/4 1148/14/4 1152/7/4
f 1147/12/5 1151/8/5 1152/7/5 1148/14/5
usemtl Материал.114
f 1155/1/1 1156/2/1 1158/3/1 1157/4/1
f 1161/6/3 1162/5/3 1160/7/3 1159/8/3
f 1157/11/2 1161/6/2 1159/8/2 1155/12/2
f 1162/5/4 1158/13/4 1156/14/4 1160/7/4
f 1155/12/5 1159/8/5 1160/7/5 1156/14/5
usemtl Материал.115
f 1163/1/5 1164/2/5 1166/3/5 1165/4/5
f 1169/6/7 1170/5/7 1168/7/7 1167/8/7
f 1165/11/2 1169/6/2 1167/8/2 1163/12/2
f 1170/5/4 1166/13/4 1164/14/4 1168/7/4
f 1163/12/3 1167/8/3 1168/7/3 1164/14/3
usemtl Материал.116
f 1171/1/5 1172/2/5 1174/3/5 1173/4/5
f 1177/6/7 1178/5/7 1176/7/7 1175/8/7
f 1173/11/2 1177/6/2 1175/8/2 1171/12/2
f 1178/5/4 1174/13/4 1172/14/4 1176/7/4
f 1171/12/3 1175/8/3 1176/7/3 1172/14/3
usemtl Материал.117
f 1179/1/1 1180/2/1 1182/3/1 1181/4/1
f 1185/6/3 1186/5/3 1184/7/3 1183/8/3
f 1181/11/2 1185/6/2 1183/8/2 1179/12/2
f 1186/5/4 1182/13/4 1180/14/4 1184/7/4
f 1179/12/5 1183/8/5 1184/7/5 1180/14/5
usemtl Материал.118
f 1187/1/5 1188/2/5 1190/3/5 1189/4/5
f 1193/6/7 1194/5/7 1192/7/7 1191/8/7
f 1189/11/2 1193/6/2 1191/8/2 1187/12/2
f 1194/5/4 1190/13/4 1188/14/4 1192/7/4
f 1187/12/3 1191/8/3 1192/7/3 1188/14/3
usemtl Материал.119
f 1195/1/1 1196/2/1 1198/3/1 1197/4/1
f 1201/6/3 1202/5/3 1200/7/3 1199/8/3
f 1197/11/2 1201/6/2 1199/8/2 1195/12/2
f 1202/5/4 1198/13/4 1196/14/4 1200/7/4
f 1195/12/5 1199/8/5 1200/7/5 1196/14/5
usemtl Материал.120
f 1203/1/1 1204/2/1 1206/3/1 1205/4/1
f 1209/6/3 1210/5/3 1208/7/3 1207/8/3
f 1205/11/5 1209/6/5 1207/8/5 1203/12/5
f 1210/5/7 1206/13/7 1204/14/7 1208/7/7
f 1203/12/4 1207/8/4 1208/7/4 1204/14/4
usemtl Материал.121
f 1211/1/1 1212/2/1 1214/3/1 1213/4/1
f 1217/6/3 1218/5/3 1216/7/3 1215/8/3
f 1213/11/5 1217/6/5 1215/8/5 1211/12/5
f 1218/5/7 1214/13/7 1212/14/7 1216/7/7
f 1211/12/4 1215/8/4 1216/7/4 1212/14/4
usemtl Материал.122
f 1219/1/1 1220/2/1 1222/3/1 1221/4/1
f 1225/6/3 1226/5/3 1224/7/3 1223/8/3
f 1221/11/5 1225/6/5 1223/8/5 1219/12/5
f 1226/5/7 1222/13/7 1220/14/7 1224/7/7
f 1219/12/4 1223/8/4 1224/7/4 1220/14/4
usemtl Материал.123
f 1227/1/1 1228/2/1 1230/3/1 1229/4/1
f 1233/6/3 1234/5/3 1232/7/3 1231/8/3
f 1229/11/5 1233/6/5 1231/8/5 1227/12/5
f 1234/5/7 1230/13/7 1228/14/7 1232/7/7
f 1227/12/4 1231/8/4 1232/7/4 1228/14/4
usemtl Материал.124
f 1235/1/1 1236/2/1 1238/3/1 1237/4/1
f 1241/6/3 1242/5/3 1240/7/3 1239/8/3
f 1237/11/5 1241/6/5 1239/8/5 1235/12/5
f 1242/5/7 1238/13/7 1236/14/7 1240/7/7
f 1235/12/4 1239/8/4 1240/7/4 1236/14/4
usemtl Материал.125
f 1243/1/1 1244/2/1 1246/3/1 1245/4/1
f 1249/6/3 1250/5/3 1248/7/3 1247/8/3
f 1245/11/5 1249/6/5 1247/8/5 1243/12/5
f 1250/5/7 1246/13/7 1244/14/7 1248/7/7
f 1243/12/4 1247/8/4 1248/7/4 1244/14/4
usemtl Материал.127
f 1251/1/1 1252/2/1 1254/3/1 1253/4/1
f 1257/6/3 1258/5/3 1256/7/3 1255/8/3
f 1253/11/5 1257/6/5 1255/8/5 1251/12/5
f 1258/5/7 1254/13/7 1252/14/7 1256/7/7
f 1251/12/4 1255/8/4 1256/7/4 1252/14/4
usemtl Материал.128
f 1259/1/1 1260/2/1 1262/3/1 1261/4/1
f 1265/6/3 1266/5/3 1264/7/3 1263/8/3
f 1261/11/5 1265/6/5 1263/8/5 1259/12/5
f 1266/5/7 1262/13/7 1260/14/7 1264/7/7
f 1259/12/4 1263/8/4 1264/7/4 1260/14/4
usemtl Материал.129
f 1269/11/5 1273/6/5 1271/8/5 1267/12/5
f 1274/5/7 1270/13/7 1268/14/7 1272/7/7
f 1273/6/3 1274/5/3 1272/7/3 1271/8/3
usemtl Материал.130
f 1277/11/5 1281/6/5 1279/8/5 1275/12/5
f 1282/5/7 1278/13/7 1276/14/7 1280/7/7
f 1281/6/3 1282/5/3 1280/7/3 1279/8/3
f 1277/11/2 1278/13/2 1282/5/2 1281/6/2
usemtl Материал.134
f 1283/1/30 1284/2/30 1286/3/30 1285/4/30
f 1289/6/29 1290/5/29 1288/7/29 1287/8/29
f 1285/11/31 1289/6/31 1287/8/31 1283/12/31
f 1290/5/32 1286/13/32 1284/14/32 1288/7/32
f 1283/12/3 1287/8/3 1288/7/3 1284/14/3
usemtl Материал.135
f 1291/1/30 1292/2/30 1294/3/30 1293/4/30
f 1297/6/29 1298/5/29 1296/7/29 1295/8/29
f 1293/11/31 1297/6/31 1295/8/31 1291/12/31
f 1298/5/32 1294/13/32 1292/14/32 1296/7/32
f 1291/12/3 1295/8/3 1296/7/3 1292/14/3
usemtl Материал.136
f 1299/1/30 1300/2/30 1302/3/30 1301/4/30
f 1305/6/29 1306/5/29 1304/7/29 1303/8/29
f 1301/11/31 1305/6/31 1303/8/31 1299/12/31
f 1306/5/32 1302/13/32 1300/14/32 1304/7/32
f 1299/12/3 1303/8/3 1304/7/3 1300/14/3
usemtl Материал.137
f 1307/1/30 1308/2/30 1310/3/30 1309/4/30
f 1313/6/29 1314/5/29 1312/7/29 1311/8/29
f 1309/11/31 1313/6/31 1311/8/31 1307/12/31
f 1314/5/32 1310/13/32 1308/14/32 1312/7/32
f 1307/12/3 1311/8/3 1312/7/3 1308/14/3
usemtl Материал.138
f 1315/1/30 1316/2/30 1318/3/30 1317/4/30
f 1321/6/29 1322/5/29 1320/7/29 1319/8/29
f 1317/11/31 1321/6/31 1319/8/31 1315/12/31
f 1322/5/32 1318/13/32 1316/14/32 1320/7/32
f 1315/12/3 1319/8/3 1320/7/3 1316/14/3
usemtl Материал.139
f 1323/1/30 1324/2/30 1326/3/30 1325/4/30
f 1329/6/29 1330/5/29 1328/7/29 1327/8/29
f 1325/11/31 1329/6/31 1327/8/31 1323/12/31
f 1330/5/32 1326/13/32 1324/14/32 1328/7/32
f 1323/12/3 1327/8/3 1328/7/3 1324/14/3
usemtl Материал.140
f 1331/1/30 1332/2/30 1334/3/30 1333/4/30
f 1337/6/29 1338/5/29 1336/7/29 1335/8/29
f 1333/11/31 1337/6/31 1335/8/31 1331/12/31
f 1338/5/32 1334/13/32 1332/14/32 1336/7/32
f 1331/12/3 1335/8/3 1336/7/3 1332/14/3
usemtl Материал.141
f 1339/1/30 1340/2/30 1342/3/30 1341/4/30
f 1345/6/29 1346/5/29 1344/7/29 1343/8/29
f 1341/11/31 1345/6/31 1343/8/31 1339/12/31
f 1346/5/32 1342/13/32 1340/14/32 1344/7/32
f 1339/12/3 1343/8/3 1344/7/3 1340/14/3
usemtl Материал.142
f 1347/1/30 1348/2/30 1350/3/30 1349/4/30
f 1353/6/29 1354/5/29 1352/7/29 1351/8/29
f 1349/11/31 1353/6/31 1351/8/31 1347/12/31
f 1354/5/32 1350/13/32 1348/14/32 1352/7/32
f 1347/12/3 1351/8/3 1352/7/3 1348/14/3
usemtl Материал.143
f 1355/1/30 1356/2/30 1358/3/30 1357/4/30
f 1361/6/29 1362/5/29 1360/7/29 1359/8/29
f 1357/11/31 1361/6/31 1359/8/31 1355/12/31
f 1362/5/32 1358/13/32 1356/14/32 1360/7/32
f 1355/12/3 1359/8/3 1360/7/3 1356/14/3
usemtl Материал.144
f 1363/1/33 1364/2/33 1366/3/33 1365/4/33
f 1369/6/34 1370/5/34 1368/7/34 1367/8/34
f 1365/11/35 1369/6/35 1367/8/35 1363/12/35
f 1370/5/36 1366/13/36 1364/14/36 1368/7/36
f 1363/12/1 1367/8/1 1368/7/1 1364/14/1
usemtl Материал.145
f 1371/1/33 1372/2/33 1374/3/33 1373/4/33
f 1377/6/34 1378/5/34 1376/7/34 1375/8/34
f 1373/11/35 1377/6/35 1375/8/35 1371/12/35
f 1378/5/36 1374/13/36 1372/14/36 1376/7/36
f 1371/12/1 1375/8/1 1376/7/1 1372/14/1
usemtl Материал.146
f 1379/1/33 1380/2/33 1382/3/33 1381/4/33
f 1385/6/34 1386/5/34 1384/7/34 1383/8/34
f 1381/11/35 1385/6/35 1383/8/35 1379/12/35
f 1386/5/36 1382/13/36 1380/14/36 1384/7/36
f 1379/12/1 1383/8/1 1384/7/1 1380/14/1
usemtl Материал.147
f 1387/1/33 1388/2/33 1390/3/33 1389/4/33
f 1393/6/34 1394/5/34 1392/7/34 1391/8/34
f 1389/11/35 1393/6/35 1391/8/35 1387/12/35
f 1394/5/36 1390/13/36 1388/14/36 1392/7/36
f 1387/12/1 1391/8/1 1392/7/1 1388/14/1
usemtl Материал.148
f 1395/1/33 1396/2/33 1398/3/33 1397/4/33
f 1401/6/34 1402/5/34 1400/7/34 1399/8/34
f 1397/11/35 1401/6/35 1399/8/35 1395/12/35
f 1402/5/36 1398/13/36 1396/14/36 1400/7/36
f 1395/12/1 1399/8/1 1400/7/1 1396/14/1
usemtl Материал.149
f 1403/1/33 1404/2/33 1406/3/33 1405/4/33
f 1409/6/34 1410/5/34 1408/7/34 1407/8/34
f 1405/11/35 1409/6/35 1407/8/35 1403/12/35
f 1410/5/36 1406/13/36 1404/14/36 1408/7/36
f 1403/12/1 1407/8/1 1408/7/1 1404/14/1
usemtl Материал.150
f 1411/1/33 1412/2/33 1414/3/33 1413/4/33
f 1417/6/34 1418/5/34 1416/7/34 1415/8/34
f 1413/11/35 1417/6/35 1415/8/35 1411/12/35
f 1418/5/36 1414/13/36 1412/14/36 1416/7/36
f 1411/12/1 1415/8/1 1416/7/1 1412/14/1
usemtl Материал.151
f 1419/1/33 1420/2/33 1422/3/33 1421/4/33
f 1425/6/34 1426/5/34 1424/7/34 1423/8/34
f 1421/11/35 1425/6/35 1423/8/35 1419/12/35
f 1426/5/36 1422/13/36 1420/14/36 1424/7/36
f 1419/12/1 1423/8/1 1424/7/1 1420/14/1
usemtl Материал.152
f 1427/1/33 1428/2/33 1430/3/33 1429/4/33
f 1433/6/34 1434/5/34 1432/7/34 1431/8/34
f 1429/11/35 1433/6/35 1431/8/35 1427/12/35
f 1434/5/36 1430/13/36 1428/14/36 1432/7/36
f 1427/12/1 1431/8/1 1432/7/1 1428/14/1
usemtl Материал.153
f 1435/1/33 1436/2/33 1438/3/33 1437/4/33
f 1441/6/34 1442/5/34 1440/7/34 1439/8/34
f 1437/11/35 1441/6/35 1439/8/35 1435/12/35
f 1442/5/36 1438/13/36 1436/14/36 1440/7/36
f 1435/12/1 1439/8/1 1440/7/1 1436/14/1
usemtl Материал.154
f 1443/1/30 1444/2/30 1446/3/30 1445/4/30
f 1449/6/29 1450/5/29 1448/7/29 1447/8/29
f 1445/11/31 1449/6/31 1447/8/31 1443/12/31
f 1450/5/32 1446/13/32 1444/14/32 1448/7/32
f 1443/12/3 1447/8/3 1448/7/3 1444/14/3
f 1445/11/1 1446/13/1 1450/5/1 1449/6/1
usemtl Материал.155
f 1451/1/33 1452/2/33 1454/3/33 1453/4/33
f 1457/6/34 1458/5/34 1456/7/34 1455/8/34
f 1453/11/36 1457/6/36 1455/8/36 1451/12/36
f 1458/5/35 1454/13/35 1452/14/35 1456/7/35
f 1451/12/3 1455/8/3 1456/7/3 1452/14/3
f 1453/11/1 1454/13/1 1458/5/1 1457/6/1
usemtl Материал.156
f 1467/15/1 1468/16/1 1462/3/1 1461/4/1
f 1469/17/3 1470/18/3 1464/7/3 1463/8/3
f 1467/19/5 1469/17/5 1463/8/5 1459/12/5
f 1470/18/7 1468/20/7 1460/14/7 1464/7/7
f 1459/12/39 1463/8/39 1464/7/39 1460/14/39
f 1466/5/7 1462/13/7 1468/20/7 1470/18/7
f 1461/11/5 1465/6/5 1469/17/5 1467/19/5
f 1465/6/3 1466/5/3 1470/18/3 1469/17/3
f 1459/1/1 1460/2/1 1468/16/1 1467/15/1
usemtl Материал.157
f 1482/21/1 1480/22/1 1474/3/1 1473/4/1
f 1487/23/3 1485/24/3 1476/7/3 1475/8/3
f 1484/25/5 1487/23/5 1475/8/5 1471/12/5
f 1485/24/7 1486/26/7 1472/14/7 1476/7/7
f 1471/12/40 1475/8/40 1476/7/40 1472/14/40
f 1477/6/3 1478/5/3 1483/27/3 1481/28/3
f 1473/11/5 1477/6/5 1481/28/5 1482/29/5
f 1478/5/7 1474/13/7 1480/30/7 1483/27/7
f 1471/1/1 1472/2/1 1486/31/1 1484/32/1
usemtl Материал.158
f 1498/21/1 1496/22/1 1491/3/1 1490/4/1
f 1503/33/3 1501/34/3 1493/7/3 1492/8/3
f 1500/25/5 1503/33/5 1492/8/5 1488/12/5
f 1501/34/7 1502/26/7 1489/14/7 1493/7/7
f 1488/12/41 1492/8/41 1493/7/41 1489/14/41
f 1494/6/3 1495/5/3 1499/27/3 1497/35/3
f 1490/11/5 1494/6/5 1497/35/5 1498/29/5
f 1495/5/7 1491/13/7 1496/30/7 1499/27/7
f 1488/1/1 1489/2/1 1502/31/1 1500/32/1
usemtl Материал.160
f 1504/1/1 1505/2/1 1507/3/1 1506/4/1
f 1510/6/3 1511/5/3 1509/7/3 1508/8/3
f 1506/11/5 1510/6/5 1508/8/5 1504/12/5
f 1511/5/7 1507/13/7 1505/14/7 1509/7/7
f 1504/12/42 1508/8/42 1509/7/42 1505/14/42
usemtl Материал.161
f 1512/1/1 1513/2/1 1515/3/1 1514/4/1
f 1518/6/3 1519/5/3 1517/7/3 1516/8/3
f 1514/11/5 1518/6/5 1516/8/5 1512/12/5
f 1519/5/7 1515/13/7 1513/14/7 1517/7/7
f 1512/12/43 1516/8/43 1517/7/43 1513/14/43
usemtl Материал.162
f 1520/1/1 1521/2/1 1523/3/1 1522/4/1
f 1526/6/3 1527/5/3 1525/7/3 1524/8/3
f 1522/11/5 1526/6/5 1524/8/5 1520/12/5
f 1527/5/7 1523/13/7 1521/14/7 1525/7/7
f 1520/12/42 1524/8/42 1525/7/42 1521/14/42
usemtl Материал.163
f 1528/1/1 1529/2/1 1531/3/1 1530/4/1
f 1534/6/3 1535/5/3 1533/7/3 1532/8/3
f 1530/11/5 1534/6/5 1532/8/5 1528/12/5
f 1535/5/7 1531/13/7 1529/14/7 1533/7/7
f 1528/12/43 1532/8/43 1533/7/43 1529/14/43
usemtl Материал.164
f 1536/1/1 1537/2/1 1539/3/1 1538/4/1
f 1542/6/3 1543/5/3 1541/7/3 1540/8/3
f 1538/11/5 1542/6/5 1540/8/5 1536/12/5
f 1543/5/7 1539/13/7 1537/14/7 1541/7/7
f 1536/12/41 1540/8/41 1541/7/41 1537/14/41
usemtl Материал.165
f 1544/1/1 1545/2/1 1547/3/1 1546/4/1
f 1550/6/3 1551/5/3 1549/7/3 1548/8/3
f 1546/11/5 1550/6/5 1548/8/5 1544/12/5
f 1551/5/7 1547/13/7 1545/14/7 1549/7/7
f 1544/12/40 1548/8/40 1549/7/40 1545/14/40
usemtl Материал.166
f 1552/1/1 1553/2/1 1555/3/1 1554/4/1
f 1558/6/3 1559/5/3 1557/7/3 1556/8/3
f 1554/11/5 1558/6/5 1556/8/5 1552/12/5
f 1559/5/7 1555/13/7 1553/14/7 1557/7/7
f 1552/12/44 1556/8/44 1557/7/44 1553/14/44
usemtl Материал.167
f 1560/1/1 1561/2/1 1563/3/1 1562/4/1
f 1566/6/3 1567/5/3 1565/7/3 1564/8/3
f 1562/11/5 1566/6/5 1564/8/5 1560/12/5
f 1567/5/7 1563/13/7 1561/14/7 1565/7/7
f 1560/12/4 1564/8/4 1565/7/4 1561/14/4
usemtl Материал.168
f 1568/1/1 1569/2/1 1571/3/1 1570/4/1
f 1574/6/3 1575/5/3 1573/7/3 1572/8/3
f 1570/11/5 1574/6/5 1572/8/5 1568/12/5
f 1575/5/7 1571/13/7 1569/14/7 1573/7/7
f 1568/12/4 1572/8/4 1573/7/4 1569/14/4
usemtl Материал.169
f 1576/1/1 1577/2/1 1579/3/1 1578/4/1
f 1582/6/3 1583/5/3 1581/7/3 1580/8/3
f 1578/11/45 1582/6/45 1580/8/45 1576/12/45
f 1583/5/46 1579/13/46 1577/14/46 1581/7/46
f 1576/12/15 1580/8/15 1581/7/15 1577/14/15
usemtl Материал.170
f 1584/1/1 1585/2/1 1587/3/1 1586/4/1
f 1590/6/3 1591/5/3 1589/7/3 1588/8/3
f 1586/11/47 1590/6/47 1588/8/47 1584/12/47
f 1591/5/48 1587/13/48 1585/14/48 1589/7/48
f 1584/12/12 1588/8/12 1589/7/12 1585/14/12
usemtl Материал.171
f 1592/1/5 1593/2/5 1595/3/5 1594/4/5
f 1598/6/7 1599/5/7 1597/7/7 1596/8/7
f 1594/11/1 1598/6/1 1596/8/1 1592/12/1
f 1599/5/3 1595/13/3 1593/14/3 1597/7/3
f 1592/12/2 1596/8/2 1597/7/2 1593/14/2
usemtl Материал.172
f 1600/1/4 1601/2/4 1603/3/4 1602/4/4
f 1606/6/2 1607/5/2 1605/7/2 1604/8/2
f 1602/11/1 1606/6/1 1604/8/1 1600/12/1
f 1607/5/3 1603/13/3 1601/14/3 1605/7/3
f 1600/12/5 1604/8/5 1605/7/5 1601/14/5
usemtl Материал.173
f 1608/1/4 1609/2/4 1611/3/4 1610/4/4
f 1614/6/2 1615/5/2 1613/7/2 1612/8/2
f 1610/11/1 1614/6/1 1612/8/1 1608/12/1
f 1615/5/3 1611/13/3 1609/14/3 1613/7/3
f 1608/12/5 1612/8/5 1613/7/5 1609/14/5
usemtl Материал.175
f 1620/6/3 1621/5/3 1619/7/3
f 1617/4/49 1618/3/49 1621/5/49 1620/6/49
f 1618/3/1 1617/4/1 1616/14/1
f 1617/4/50 1620/6/50 1619/7/50 1616/14/50
f 1621/5/51 1618/13/51 1616/14/51 1619/7/51
usemtl Материал.174
f 1622/1/1 1623/2/1 1625/3/1 1624/4/1
f 1624/4/52 1625/3/52 1629/5/52 1628/6/52
f 1628/6/3 1629/5/3 1627/7/3 1626/8/3
f 1626/8/53 1627/7/53 1623/9/53 1622/10/53
f 1624/11/54 1628/6/54 1626/8/54 1622/12/54
f 1629/5/55 1625/13/55 1623/14/55 1627/7/55
usemtl Материал.176
f 1634/6/3 1635/5/3 1633/7/3
f 1631/4/49 1632/3/49 1635/5/49 1634/6/49
f 1632/3/1 1631/4/1 1630/14/1
f 1631/4/50 1634/6/50 1633/7/50 1630/14/50
f 1635/5/51 1632/13/51 1630/14/51 1633/7/51
usemtl Материал.177
f 1640/6/3 1641/5/3 1639/7/3
f 1637/4/49 1638/3/49 1641/5/49 1640/6/49
f 1638/3/1 1637/4/1 1636/14/1
f 1637/4/50 1640/6/50 1639/7/50 1636/14/50
f 1641/5/51 1638/13/51 1636/14/51 1639/7/51
usemtl Материал.178
f 1646/6/3 1647/5/3 1645/7/3
f 1643/4/49 1644/3/49 1647/5/49 1646/6/49
f 1644/3/1 1643/4/1 1642/14/1
f 1643/4/50 1646/6/50 1645/7/50 1642/14/50
f 1647/5/51 1644/13/51 1642/14/51 1645/7/51
usemtl Материал.179
f 1652/6/3 1653/5/3 1651/7/3
f 1649/4/49 1650/3/49 1653/5/49 1652/6/49
f 1650/3/1 1649/4/1 1648/14/1
f 1649/4/50 1652/6/50 1651/7/50 1648/14/50
f 1653/5/51 1650/13/51 1648/14/51 1651/7/51
usemtl Материал.180
f 1658/6/3 1659/5/3 1657/7/3
f 1655/4/49 1656/3/49 1659/5/49 1658/6/49
f 1656/3/1 1655/4/1 1654/14/1
f 1655/4/50 1658/6/50 1657/7/50 1654/14/50
f 1659/5/51 1656/13/51 1654/14/51 1657/7/51
usemtl Материал.181
f 1660/1/1 1661/2/1 1663/3/1 1662/4/1
f 1662/4/2 1663/3/2 1667/5/2 1666/6/2
f 1666/6/3 1667/5/3 1665/7/3 1664/8/3
f 1664/8/4 1665/7/4 1661/9/4 1660/10/4
f 1662/11/5 1666/6/5 1664/8/5 1660/12/5
f 1667/5/7 1663/13/7 1661/14/7 1665/7/7
usemtl Материал.183
f 1668/1/1 1669/2/1 1671/3/1 1670/4/1
f 1670/4/2 1671/3/2 1675/5/2 1674/6/2
f 1674/6/3 1675/5/3 1673/7/3 1672/8/3
f 1672/8/4 1673/7/4 1669/9/4 1668/10/4
f 1670/11/5 1674/6/5 1672/8/5 1668/12/5
f 1675/5/7 1671/13/7 1669/14/7 1673/7/7
usemtl Материал.184
f 1676/1/1 1677/2/1 1679/3/1 1678/4/1
f 1678/4/2 1679/3/2 1683/5/2 1682/6/2
f 1682/6/3 1683/5/3 1681/7/3 1680/8/3
f 1680/8/4 1681/7/4 1677/9/4 1676/10/4
f 1678/11/5 1682/6/5 1680/8/5 1676/12/5
f 1683/5/7 1679/13/7 1677/14/7 1681/7/7
l 223 224
l 226 225
l 230 229
l 228 227
l 258 257
l 255 257
l 258 256
l 256 255
l 262 261
l 259 261
l 262 260
l 260 259
l 266 265
l 263 265
l 266 264
l 264 263
l 270 269
l 267 269
l 270 268
l 268 267
l 272 271
l 274 273
l 276 275
l 278 277
l 1267 1268
l 1270 1269
l 1275 1276
l 1483 1479
l 1479 1485
g Куб_Куб.209
v -1.794335 0.870307 0.885337
v -1.794335 3.119382 0.885337
v -1.794335 0.870307 -0.625073
v -1.794335 3.119382 -0.625073
v -1.707451 0.870307 0.885337
v -1.707451 3.119382 0.885337
v -1.707451 0.870307 -0.625073
v -1.707451 3.119382 -0.625073
v -1.865208 1.962960 0.787805
v -1.865208 2.026729 0.787805
v -1.865208 1.962960 0.730327
v -1.865208 2.026729 0.730327
v -1.768425 1.962960 0.787805
v -1.768425 2.026729 0.787805
v -1.768425 1.962960 0.730327
v -1.768425 2.026729 0.730327
v -1.868770 1.962960 0.787316
v -1.868770 2.026729 0.787316
v -1.868770 1.962960 0.582690
v -1.868770 2.026729 0.582690
v -1.826148 1.962960 0.787316
v -1.826148 2.026729 0.787316
v -1.826148 1.962960 0.582690
v -1.826148 2.026729 0.582690
v -1.865208 1.962960 0.639495
v -1.865208 2.026729 0.639495
v -1.865208 1.962960 0.582017
v -1.865208 2.026729 0.582017
v -1.768425 1.962960 0.639495
v -1.768425 2.026729 0.639495
v -1.768425 1.962960 0.582017
v -1.768425 2.026729 0.582017
vn -1.0000 -0.0000 -0.0000
vn -0.0000 -0.0000 -1.0000
vn 1.0000 -0.0000 -0.0000
vn -0.0000 -0.0000 1.0000
vn -0.0000 -1.0000 -0.0000
vn -0.0000 1.0000 -0.0000
vt 0.375000 0.000000
vt 0.625000 0.000000
vt 0.625000 0.250000
vt 0.375000 0.250000
vt 0.625000 0.500000
vt 0.375000 0.500000
vt 0.625000 0.750000
vt 0.375000 0.750000
vt 0.625000 1.000000
vt 0.375000 1.000000
vt 0.125000 0.500000
vt 0.125000 0.750000
vt 0.875000 0.500000
vt 0.875000 0.750000
s 0
usemtl Материал.182
f 1684/36/57 1685/37/57 1687/38/57 1686/39/57
f 1686/39/58 1687/38/58 1691/40/58 1690/41/58
f 1690/41/59 1691/40/59 1689/42/59 1688/43/59
f 1688/43/60 1689/42/60 1685/44/60 1684/45/60
f 1686/46/61 1690/41/61 1688/43/61 1684/47/61
f 1691/40/62 1687/48/62 1685/49/62 1689/42/62
usemtl Материал.185
f 1692/36/57 1693/37/57 1695/38/57 1694/39/57
f 1694/39/58 1695/38/58 1699/40/58 1698/41/58
f 1698/41/59 1699/40/59 1697/42/59 1696/43/59
f 1696/43/60 1697/42/60 1693/44/60 1692/45/60
f 1694/46/61 1698/41/61 1696/43/61 1692/47/61
f 1699/40/62 1695/48/62 1693/49/62 1697/42/62
usemtl Материал.186
f 1700/36/57 1701/37/57 1703/38/57 1702/39/57
f 1702/39/58 1703/38/58 1707/40/58 1706/41/58
f 1706/41/59 1707/40/59 1705/42/59 1704/43/59
f 1704/43/60 1705/42/60 1701/44/60 1700/45/60
f 1702/46/61 1706/41/61 1704/43/61 1700/47/61
f 1707/40/62 1703/48/62 1701/49/62 1705/42/62
usemtl Материал.187
f 1708/36/57 1709/37/57 1711/38/57 1710/39/57
f 1710/39/58 1711/38/58 1715/40/58 1714/41/58
f 1714/41/59 1715/40/59 1713/42/59 1712/43/59
f 1712/43/60 1713/42/60 1709/44/60 1708/45/60
f 1710/46/61 1714/41/61 1712/43/61 1708/47/61
f 1715/40/62 1711/48/62 1709/49/62 1713/42/62
