# Blender 5.0.1
# www.blender.org
mtllib Ветхий дом.mtl
o Cube.048
v -1.989875 1.187808 -1.380520
v -2.090309 1.187808 -1.380520
v -1.915463 0.892015 -1.379942
v -2.015897 0.892015 -1.379942
v -1.882454 1.190855 0.178076
v -1.982888 1.190855 0.178076
v -1.989875 0.895646 0.477565
v -2.090309 0.895646 0.477565
v 2.041874 0.050217 -0.157438
v 2.041874 -0.050217 -0.157438
v 2.041874 0.050217 0.157438
v 2.041874 -0.050217 0.157438
v -2.046694 0.050217 -0.157438
v -2.046694 -0.050217 -0.157438
v -2.046694 0.050217 0.157438
v -2.046694 -0.050217 0.157438
v 2.019166 0.050217 -0.482141
v 2.019166 -0.050217 -0.482141
v 2.019166 0.050217 -0.167266
v 2.019166 -0.050217 -0.167266
v -2.069402 0.050217 -0.482141
v -2.069402 -0.050217 -0.482141
v -2.069402 0.050217 -0.167266
v -2.069402 -0.050217 -0.167266
v 2.011163 0.050217 0.162558
v 2.011163 -0.050217 0.162558
v 2.011163 0.050217 0.477434
v 2.011163 -0.050217 0.477434
v -2.077406 0.050217 0.162558
v -2.077406 -0.050217 0.162558
v -2.077405 0.050217 0.477434
v -2.077405 -0.050217 0.477434
v 2.074528 0.050217 0.487261
v 2.074528 -0.050217 0.487261
v 2.074528 0.050217 0.802137
v 2.074528 -0.050217 0.802137
v -2.014040 0.050217 0.487261
v -2.014040 -0.050217 0.487262
v -2.014040 0.050217 0.802137
v -2.014040 -0.050217 0.802137
v 2.074528 0.050217 -0.802299
v 2.074528 -0.050217 -0.802299
v 2.074528 0.050217 -0.487424
v 2.074528 -0.050217 -0.487424
v -2.014040 0.050217 -0.802299
v -2.014040 -0.050217 -0.802299
v -2.014040 0.050217 -0.487424
v -2.014040 -0.050217 -0.487424
v 2.011163 0.050217 -1.131514
v 2.011163 -0.050217 -1.131514
v 2.011163 0.050217 -0.816638
v 2.011163 -0.050217 -0.816638
v -2.077405 0.050217 -1.131514
v -2.077405 -0.050217 -1.131514
v -2.077405 0.050217 -0.816638
v -2.077405 -0.050217 -0.816638
v 2.019166 0.050217 -1.776213
v 2.019166 -0.050217 -1.776213
v 2.019166 0.050217 -1.461337
v 2.019166 -0.050217 -1.461337
v -2.069402 0.050217 -1.776213
v -2.069402 -0.050217 -1.776213
v -2.069402 0.050217 -1.461337
v -2.069402 -0.050217 -1.461337
v 2.041875 0.050217 -1.451509
v 2.041875 -0.050217 -1.451509
v 2.041875 0.050217 -1.136634
v 2.041875 -0.050217 -1.136634
v -2.046694 0.050217 -1.451509
v -2.046694 -0.050217 -1.451509
v -2.046694 0.050217 -1.136634
v -2.046694 -0.050217 -1.136634
v -2.027850 -0.034126 0.337388
v -2.128284 -0.034126 0.337388
v -2.027850 -0.034126 0.798788
v -2.128284 -0.034126 0.798788
v -2.027850 2.624817 0.337388
v -2.128284 2.631651 0.337388
v -2.027850 2.171985 0.798788
v -2.128284 2.171985 0.798788
v -1.999430 -0.079177 -0.117345
v -2.099864 -0.079177 -0.117345
v -1.999430 -0.079177 0.308325
v -2.099864 -0.079177 0.308325
v -1.999430 3.070325 -0.117345
v -2.099864 3.070325 -0.117345
v -1.999430 2.586600 0.308325
v -2.099864 2.586600 0.308325
v -2.019629 -0.032071 -1.793425
v -2.120064 -0.032071 -1.793425
v -2.019629 -0.032071 -1.377144
v -2.120064 -0.032071 -1.377144
v -2.019629 2.116670 -1.793425
v -2.120064 2.116670 -1.793425
v -2.019629 2.528759 -1.377144
v -2.120064 2.528759 -1.377144
v -2.044831 -0.052261 -1.346406
v -2.145265 -0.052261 -1.346406
v -2.044831 -0.052261 -0.973400
v -2.145265 -0.052261 -0.973400
v -2.044831 2.569955 -1.346406
v -2.145265 2.569955 -1.346406
v -2.044831 2.951457 -0.973400
v -2.145265 2.951457 -0.973400
v -2.019629 1.991874 -0.955018
v -2.120064 1.991874 -0.955018
v -2.019629 1.991874 -0.538737
v -2.120064 1.991874 -0.538737
v -2.019629 2.967944 -0.955018
v -2.120064 2.967944 -0.955018
v -2.019629 3.358071 -0.538737
v -2.120064 3.358071 -0.538737
v -2.019629 1.825768 -0.527266
v -2.120064 1.825768 -0.527266
v -2.019629 1.825768 -0.136543
v -2.120064 1.825768 -0.136543
v -2.019629 3.448921 -0.527266
v -2.120064 3.448921 -0.527266
v -2.019629 3.089357 -0.136543
v -2.120064 3.089357 -0.136543
v -1.998233 -0.072148 -1.799992
v -1.998233 -0.072148 -1.700328
v -1.585142 -0.072148 -1.799992
v -1.585142 -0.072148 -1.700328
v -1.998233 2.060122 -1.799992
v -1.998233 2.060122 -1.700328
v -1.585142 2.060122 -1.799992
v -1.585142 2.060122 -1.700328
v -1.564531 -0.094795 -1.794903
v -1.564531 -0.094795 -1.695238
v -1.210604 -0.094795 -1.794903
v -1.210604 -0.094795 -1.695238
v -1.564531 2.037475 -1.794903
v -1.564531 2.037475 -1.695238
v -1.210604 2.037475 -1.794903
v -1.210604 2.037475 -1.695238
v -0.327279 -0.068340 -3.346052
v -0.331039 -0.167007 -3.332501
v 0.013765 -0.068340 -3.251433
v 0.010005 -0.167007 -3.237882
v -0.891621 0.232527 -1.311949
v -0.895381 0.133859 -1.298398
v -0.550577 0.232527 -1.217330
v -0.554337 0.133859 -1.203779
v -1.209262 -0.026690 -3.803659
v -1.209262 -0.126047 -3.795831
v -0.796172 -0.026690 -3.803659
v -0.796172 -0.126047 -3.795831
v -1.209262 0.140792 -1.677977
v -1.209262 0.041436 -1.670149
v -0.796172 0.140792 -1.677977
v -0.796172 0.041436 -1.670149
v 0.431046 -0.028295 -1.783861
v 0.431046 -0.028295 -1.684197
v 0.844136 -0.028295 -1.783861
v 0.844136 -0.028295 -1.684197
v 0.431045 2.131435 -1.783861
v 0.431045 2.131435 -1.684197
v 0.844136 2.131435 -1.783861
v 0.844136 2.131435 -1.684197
v 0.864543 -0.007243 -1.778772
v 0.864543 -0.007243 -1.679107
v 1.218470 -0.007243 -1.778772
v 1.218470 -0.007243 -1.679107
v 0.864543 2.064505 -1.778772
v 0.864543 2.064505 -1.679107
v 1.218470 2.064505 -1.778772
v 1.218470 2.064505 -1.679107
v 0.065912 -0.083294 -1.794903
v 0.065912 -0.083294 -1.695238
v 0.419838 -0.083294 -1.794903
v 0.419838 -0.083294 -1.695238
v 0.065911 2.076437 -1.794903
v 0.065911 2.076437 -1.695238
v 0.419838 2.076437 -1.794903
v 0.419838 2.076437 -1.695238
v -0.363008 -0.060356 -1.799992
v -0.363008 -0.060355 -1.700328
v 0.050083 -0.060356 -1.799992
v 0.050083 -0.060355 -1.700328
v -0.363008 2.099375 -1.799992
v -0.363008 2.099375 -1.700328
v 0.050082 2.099375 -1.799992
v 0.050082 2.099375 -1.700328
v 1.234577 -0.103454 -1.801278
v 1.234577 -0.103454 -1.701613
v 1.646274 -0.103454 -1.801278
v 1.646274 -0.103454 -1.701613
v 1.234576 2.116557 -1.801278
v 1.234576 2.116557 -1.701613
v 1.646274 2.116557 -1.801278
v 1.646274 2.116557 -1.701613
v 1.672757 -0.015492 -1.776906
v 1.672757 -0.015492 -1.647102
v 2.031848 -0.015492 -1.776906
v 2.031848 -0.015492 -1.647102
v 1.672757 2.028595 -1.776906
v 1.672757 2.028595 -1.647102
v 2.031848 2.028595 -1.776906
v 2.031848 2.028595 -1.647102
v -0.499485 -0.074340 0.748348
v -0.499485 -0.074340 0.848012
v -0.087788 -0.074340 0.748348
v -0.087788 -0.074340 0.848012
v -0.499485 0.738890 0.748348
v -0.499485 0.738891 0.848012
v -0.087788 0.738890 0.748348
v -0.087788 0.738891 0.848012
v -2.111768 -0.060356 0.749633
v -2.111768 -0.060356 0.849298
v -1.698678 -0.060356 0.749634
v -1.698678 -0.060356 0.849298
v -2.111768 2.099375 0.749633
v -2.111768 2.099375 0.849298
v -1.698678 2.099375 0.749633
v -1.698678 2.099375 0.849298
v -1.678066 -0.083295 0.754723
v -1.678066 -0.083295 0.854387
v -1.324139 -0.083295 0.754723
v -1.324139 -0.083295 0.854387
v -1.678066 2.076437 0.754723
v -1.678066 2.076437 0.854387
v -1.324139 2.076437 0.754723
v -1.324139 2.076437 0.854387
v -0.869519 -0.007243 0.770854
v -0.869519 -0.007243 0.870518
v -0.515592 -0.007243 0.770854
v -0.515592 -0.007243 0.870518
v -0.869519 2.064505 0.770854
v -0.869519 2.064505 0.870518
v -0.515592 2.064505 0.770854
v -0.515592 2.064505 0.870518
v -1.303016 -0.044903 0.765765
v -1.303016 -0.044903 0.865429
v -0.889926 -0.044903 0.765765
v -0.889926 -0.044903 0.865429
v -1.303016 2.114827 0.765764
v -1.303016 2.114828 0.865429
v -0.889926 2.114827 0.765764
v -0.889926 2.114828 0.865429
v 0.390401 -0.052891 0.765764
v 0.390401 -0.052891 0.865429
v 0.803491 -0.052891 0.765764
v 0.803491 -0.052891 0.865429
v 0.390401 0.738257 0.765764
v 0.390401 0.738257 0.865429
v 0.803491 0.738257 0.765764
v 0.803491 0.738257 0.865429
v 0.830779 -0.007243 0.770854
v 0.830779 -0.007243 0.870518
v 1.184706 -0.007243 0.770854
v 1.184706 -0.007243 0.870518
v 0.830779 2.064505 0.770854
v 0.830779 2.064505 0.870518
v 1.184705 2.064505 0.770854
v 1.184705 2.064505 0.870518
v 0.015397 -0.066955 0.754723
v 0.015397 -0.066955 0.854387
v 0.369324 -0.066955 0.754723
v 0.369324 -0.066955 0.854387
v 0.015397 0.724194 0.754723
v 0.015397 0.724194 0.854387
v 0.369324 0.724194 0.754723
v 0.369324 0.724194 0.854387
v 1.221797 -0.103454 0.748348
v 1.221797 -0.103454 0.848012
v 1.633494 -0.103454 0.748348
v 1.633494 -0.103454 0.848012
v 1.221797 2.116557 0.748348
v 1.221797 2.116557 0.848012
v 1.633494 2.116557 0.748348
v 1.633494 2.116557 0.848012
v 1.659977 -0.015492 0.772720
v 1.659977 -0.015492 0.902523
v 2.019068 -0.015492 0.772720
v 2.019068 -0.015492 0.902523
v 1.659977 2.028595 0.772720
v 1.659977 2.028595 0.902523
v 2.019068 2.028595 0.772719
v 2.019068 2.028595 0.902523
v 2.042835 -0.052261 -1.376461
v 1.942401 -0.052261 -1.376461
v 2.042835 -0.052261 -1.003455
v 1.942401 -0.052261 -1.003455
v 2.042835 2.554496 -1.376461
v 1.942401 2.554496 -1.376461
v 2.042835 2.917561 -1.003455
v 1.942401 2.917561 -1.003455
v 2.068036 -0.032071 -1.793425
v 1.967602 -0.032071 -1.793425
v 2.068036 -0.032071 -1.377144
v 1.967602 -0.032071 -1.377144
v 2.068036 2.116670 -1.793425
v 1.967602 2.116669 -1.793425
v 2.068036 2.527990 -1.377144
v 1.967602 2.527990 -1.377144
v 2.061349 -0.079177 -0.099487
v 1.960914 -0.079177 -0.099487
v 2.061349 -0.079177 0.326183
v 1.960914 -0.079177 0.326183
v 2.061349 3.041772 -0.099487
v 1.960914 3.041772 -0.099487
v 2.061349 2.604411 0.326184
v 1.960914 2.604411 0.326184
v 2.059816 -0.034126 0.337388
v 1.959382 -0.034126 0.337388
v 2.059816 -0.034126 0.798788
v 1.959382 -0.034126 0.798788
v 2.059816 2.633772 0.337388
v 1.959382 2.639069 0.337389
v 2.059816 2.136611 0.798788
v 1.959382 2.136611 0.798788
v 2.024409 -0.139995 -0.996538
v 1.923975 -0.139995 -0.996538
v 2.024409 -0.139995 -0.570868
v 1.923975 -0.139995 -0.570868
v 2.024409 2.927676 -0.996539
v 1.923975 2.927676 -0.996539
v 2.024409 3.324018 -0.570868
v 1.923975 3.324018 -0.570868
v 2.024409 -0.056449 -0.544270
v 1.923975 -0.056449 -0.544270
v 2.024409 -0.056449 -0.118600
v 1.923975 -0.056449 -0.118600
v 2.024409 3.258085 -0.544270
v 1.923975 3.258085 -0.544270
v 2.024409 3.064500 -0.118600
v 1.923975 3.064500 -0.118600
v -2.267904 2.271737 0.710548
v -2.267904 2.238502 0.677313
v 2.135506 2.271737 0.710548
v 2.135506 2.238502 0.677313
v -2.267904 1.965430 1.016856
v -2.267904 1.932194 0.983620
v 2.135506 1.965430 1.016855
v 2.135506 1.932194 0.983620
v -2.267904 3.511992 -0.643174
v -2.267904 3.280487 -0.643174
v 2.135506 3.511992 -0.643174
v 2.135506 3.280487 -0.643174
v -2.267904 3.511992 -0.355380
v -2.267903 3.280487 -0.355380
v 2.135506 3.511993 -0.355380
v 2.135506 3.280487 -0.355380
v -2.267903 2.597919 0.406725
v -2.267903 2.564684 0.373490
v 2.135506 2.597919 0.406725
v 2.135506 2.564684 0.373490
v -2.267903 2.291611 0.713032
v -2.267903 2.258376 0.679797
v 2.135506 2.291611 0.713032
v 2.135506 2.258376 0.679797
v -2.267903 2.926423 0.059287
v -2.267903 2.891872 0.024737
v 2.135506 2.926423 0.059287
v 2.135506 2.891873 0.024737
v -2.267903 2.607995 0.377715
v -2.267903 2.573444 0.343165
v 2.135506 2.607995 0.377715
v 2.135506 2.573444 0.343165
v -2.267903 3.313732 -0.309129
v -2.267903 3.274418 -0.348443
v 2.135506 3.313733 -0.309129
v 2.135506 3.274418 -0.348443
v -2.267903 2.951399 0.053205
v -2.267903 2.912085 0.013890
v 2.135506 2.951399 0.053205
v 2.135506 2.912085 0.013890
v -2.267903 3.121252 -0.890029
v -2.267903 3.088017 -0.856794
v 2.135506 3.121252 -0.890030
v 2.135506 3.088017 -0.856795
v -2.267903 3.427559 -0.583722
v -2.267903 3.394324 -0.550487
v 2.135506 3.427559 -0.583722
v 2.135506 3.394324 -0.550487
v -2.267903 2.064755 -1.903378
v -2.267903 2.025441 -1.864064
v 2.135506 2.064756 -1.903378
v 2.135506 2.025442 -1.864064
v -2.267903 2.427089 -1.541045
v -2.267903 2.387775 -1.501731
v 2.135506 2.427089 -1.541045
v 2.135506 2.387775 -1.501731
v -2.267903 2.433171 -1.516069
v -2.267903 2.398621 -1.481518
v 2.135506 2.433171 -1.516069
v 2.135506 2.398621 -1.481519
v -2.267903 2.751599 -1.197641
v -2.267903 2.717049 -1.163090
v 2.135506 2.751599 -1.197641
v 2.135506 2.717049 -1.163090
v -2.267903 2.780609 -1.187565
v -2.267903 2.747374 -1.154330
v 2.135506 2.780609 -1.187565
v 2.135506 2.747374 -1.154330
v -2.267903 3.086917 -0.881257
v -2.267903 3.053681 -0.848022
v 2.135506 3.086917 -0.881258
v 2.135506 3.053682 -0.848023
v -2.128557 1.964389 0.894449
v -2.128557 2.036474 0.894449
v -2.128557 1.964389 -1.779441
v -2.128557 2.036474 -1.779441
v 2.128557 1.964389 0.894449
v 2.128557 2.036474 0.894449
v 2.128557 1.964389 -1.779441
v 2.128557 2.036474 -1.779441
v -1.989875 1.568449 -1.397820
v -2.090309 1.568449 -1.397820
v -1.915463 1.241953 -1.296520
v -2.015897 1.241953 -1.296520
v -1.882454 2.031510 0.094654
v -1.982888 2.031510 0.094654
v -1.989875 1.793820 0.482183
v -2.090309 1.793820 0.482183
v -1.989875 0.516885 -1.393345
v -2.090309 0.516885 -1.393345
v -1.915463 0.224098 -1.351276
v -2.015897 0.224098 -1.351276
v -1.882454 0.738555 0.149410
v -1.982888 0.738555 0.149410
v -1.989875 0.488281 0.487352
v -2.090309 0.488281 0.487352
vn 0.9981 -0.0606 -0.0095
vn -0.0000 -1.0000 0.0020
vn -0.0000 1.0000 -0.0020
vn -0.9981 0.0606 0.0095
vn -0.0000 0.7122 0.7020
vn -0.0000 1.0000 -0.0000
vn -0.0000 -0.0000 1.0000
vn -1.0000 -0.0000 -0.0000
vn 1.0000 -0.0000 -0.0000
vn -0.0000 -0.0000 -1.0000
vn -0.0000 -1.0000 -0.0000
vn 0.0377 0.9900 -0.1360
vn 0.9636 -0.0000 0.2673
vn -0.2647 0.1411 0.9540
vn 0.2647 -0.1411 -0.9540
vn -0.9636 -0.0000 -0.2673
vn -0.0000 0.9969 -0.0785
vn -0.0000 0.0785 0.9969
vn -0.0000 -0.0785 -0.9969
vn -0.0000 -0.7071 0.7071
vn -0.0000 0.7071 0.7071
vn -0.0000 -0.7071 -0.7071
vn -0.0000 0.7071 -0.7071
vn 0.9986 -0.0529 0.0063
vn -0.0000 -0.9551 0.2963
vn -0.0000 0.9551 -0.2963
vn -0.9986 0.0529 -0.0063
vn -0.0000 0.8524 0.5228
vn 0.9981 -0.0613 -0.0009
vn -0.0000 -0.9898 0.1422
vn -0.0000 0.9898 -0.1422
vn -0.9981 0.0613 0.0009
vn -0.0000 0.8036 0.5951
vt 0.625000 0.500000
vt 0.875000 0.500000
vt 0.875000 0.750000
vt 0.625000 0.750000
vt 0.375000 0.750000
vt 0.625000 1.000000
vt 0.375000 1.000000
vt 0.375000 0.250000
vt 0.625000 0.250000
vt 0.375000 0.500000
vt 0.375000 0.000000
vt 0.625000 0.000000
vt 0.000000 0.000000
s 0
usemtl Материал.001
f 1/1/1 5/2/1 7/3/1 3/4/1
f 4/5/2 3/4/2 7/6/2 8/7/2
f 6/8/3 5/9/3 1/1/3 2/10/3
f 6/8/4 2/10/4 4/5/4 8/7/4
f 6/8/5 8/7/5 7/3/5 5/9/5
f 9/1/6 13/2/6 15/3/6 11/4/6
f 12/5/7 11/4/7 15/6/7 16/7/7
f 16/11/8 15/12/8 13/9/8 14/8/8
f 10/10/9 9/1/9 11/4/9 12/5/9
f 14/8/10 13/9/10 9/1/10 10/10/10
f 17/1/6 21/2/6 23/3/6 19/4/6
f 20/5/7 19/4/7 23/6/7 24/7/7
f 24/11/8 23/12/8 21/9/8 22/8/8
f 22/8/10 21/9/10 17/1/10 18/10/10
f 25/1/6 29/2/6 31/3/6 27/4/6
f 28/5/7 27/4/7 31/6/7 32/7/7
f 32/11/8 31/12/8 29/9/8 30/8/8
f 26/10/9 25/1/9 27/4/9 28/5/9
f 30/8/10 29/9/10 25/1/10 26/10/10
f 33/1/6 37/2/6 39/3/6 35/4/6
f 36/5/7 35/4/7 39/6/7 40/7/7
f 40/11/8 39/12/8 37/9/8 38/8/8
f 38/8/10 37/9/10 33/1/10 34/10/10
f 41/1/6 45/2/6 47/3/6 43/4/6
f 44/5/7 43/4/7 47/6/7 48/7/7
f 48/11/8 47/12/8 45/9/8 46/8/8
f 46/8/10 45/9/10 41/1/10 42/10/10
f 49/1/6 53/2/6 55/3/6 51/4/6
f 52/5/7 51/4/7 55/6/7 56/7/7
f 56/11/8 55/12/8 53/9/8 54/8/8
f 50/10/9 49/1/9 51/4/9 52/5/9
f 54/8/10 53/9/10 49/1/10 50/10/10
f 57/1/6 61/2/6 63/3/6 59/4/6
f 60/5/7 59/4/7 63/6/7 64/7/7
f 64/11/8 63/12/8 61/9/8 62/8/8
f 58/10/9 57/1/9 59/4/9 60/5/9
f 62/8/10 61/9/10 57/1/10 58/10/10
f 65/1/6 69/2/6 71/3/6 67/4/6
f 68/5/7 67/4/7 71/6/7 72/7/7
f 72/11/8 71/12/8 69/9/8 70/8/8
f 66/10/9 65/1/9 67/4/9 68/5/9
f 70/8/10 69/9/10 65/1/10 66/10/10
f 73/1/9 77/2/9 79/3/9 75/4/9
f 76/5/7 75/4/7 79/6/7 80/7/7
f 74/10/11 73/1/11 75/4/11 76/5/11
f 78/8/10 77/9/10 73/1/10 74/10/10
f 78/8/8 74/10/8 76/5/8 80/7/8
f 81/1/9 85/2/9 87/3/9 83/4/9
f 84/5/7 83/4/7 87/6/7 88/7/7
f 86/8/10 85/9/10 81/1/10 82/10/10
f 86/8/8 82/10/8 84/5/8 88/7/8
f 89/1/9 93/2/9 95/3/9 91/4/9
f 92/5/7 91/4/7 95/6/7 96/7/7
f 94/8/10 93/9/10 89/1/10 90/10/10
f 94/8/8 90/10/8 92/5/8 96/7/8
f 97/1/9 101/2/9 103/3/9 99/4/9
f 100/5/7 99/4/7 103/6/7 104/7/7
f 102/8/10 101/9/10 97/1/10 98/10/10
f 102/8/8 98/10/8 100/5/8 104/7/8
f 105/1/9 109/2/9 111/3/9 107/4/9
f 108/5/7 107/4/7 111/6/7 112/7/7
f 106/10/11 105/1/11 107/4/11 108/5/11
f 110/8/10 109/9/10 105/1/10 106/10/10
f 110/8/8 106/10/8 108/5/8 112/7/8
f 113/1/9 117/2/9 119/3/9 115/4/9
f 116/5/7 115/4/7 119/6/7 120/7/7
f 114/10/11 113/1/11 115/4/11 116/5/11
f 118/8/10 117/9/10 113/1/10 114/10/10
f 118/8/8 114/10/8 116/5/8 120/7/8
f 121/1/10 125/2/10 127/3/10 123/4/10
f 124/5/9 123/4/9 127/6/9 128/7/9
f 126/8/8 125/9/8 121/1/8 122/10/8
f 126/8/7 122/10/7 124/5/7 128/7/7
f 129/1/10 133/2/10 135/3/10 131/4/10
f 132/5/9 131/4/9 135/6/9 136/7/9
f 134/8/8 133/9/8 129/1/8 130/10/8
f 134/8/7 130/10/7 132/5/7 136/7/7
f 137/1/12 141/2/12 143/3/12 139/4/12
f 140/5/13 139/4/13 143/6/13 144/7/13
f 144/11/14 143/12/14 141/9/14 142/8/14
f 138/10/15 137/1/15 139/4/15 140/5/15
f 142/8/16 141/9/16 137/1/16 138/10/16
f 145/1/17 149/2/17 151/3/17 147/4/17
f 148/5/9 147/4/9 151/6/9 152/7/9
f 152/11/18 151/12/18 149/9/18 150/8/18
f 146/10/19 145/1/19 147/4/19 148/5/19
f 150/8/8 149/9/8 145/1/8 146/10/8
f 153/1/10 157/2/10 159/3/10 155/4/10
f 156/5/9 155/4/9 159/6/9 160/7/9
f 158/8/8 157/9/8 153/1/8 154/10/8
f 158/8/7 154/10/7 156/5/7 160/7/7
f 161/1/10 165/2/10 167/3/10 163/4/10
f 164/5/9 163/4/9 167/6/9 168/7/9
f 166/8/8 165/9/8 161/1/8 162/10/8
f 166/8/7 162/10/7 164/5/7 168/7/7
f 169/1/10 173/2/10 175/3/10 171/4/10
f 172/5/9 171/4/9 175/6/9 176/7/9
f 174/8/8 173/9/8 169/1/8 170/10/8
f 174/8/7 170/10/7 172/5/7 176/7/7
f 177/1/10 181/2/10 183/3/10 179/4/10
f 180/5/9 179/4/9 183/6/9 184/7/9
f 182/8/8 181/9/8 177/1/8 178/10/8
f 182/8/7 178/10/7 180/5/7 184/7/7
f 185/1/10 189/2/10 191/3/10 187/4/10
f 188/5/9 187/4/9 191/6/9 192/7/9
f 190/8/8 189/9/8 185/1/8 186/10/8
f 190/8/7 186/10/7 188/5/7 192/7/7
f 193/1/10 197/2/10 199/3/10 195/4/10
f 196/5/9 195/4/9 199/6/9 200/7/9
f 198/8/8 197/9/8 193/1/8 194/10/8
f 198/8/7 194/10/7 196/5/7 200/7/7
f 201/1/10 205/2/10 207/3/10 203/4/10
f 204/5/9 203/4/9 207/6/9 208/7/9
f 206/8/8 205/9/8 201/1/8 202/10/8
f 206/8/7 202/10/7 204/5/7 208/7/7
f 209/1/10 213/2/10 215/3/10 211/4/10
f 212/5/9 211/4/9 215/6/9 216/7/9
f 214/8/8 213/9/8 209/1/8 210/10/8
f 214/8/7 210/10/7 212/5/7 216/7/7
f 217/1/10 221/2/10 223/3/10 219/4/10
f 220/5/9 219/4/9 223/6/9 224/7/9
f 222/8/8 221/9/8 217/1/8 218/10/8
f 222/8/7 218/10/7 220/5/7 224/7/7
f 225/1/10 229/2/10 231/3/10 227/4/10
f 228/5/9 227/4/9 231/6/9 232/7/9
f 230/8/8 229/9/8 225/1/8 226/10/8
f 230/8/7 226/10/7 228/5/7 232/7/7
f 233/1/10 237/2/10 239/3/10 235/4/10
f 236/5/9 235/4/9 239/6/9 240/7/9
f 238/8/8 237/9/8 233/1/8 234/10/8
f 238/8/7 234/10/7 236/5/7 240/7/7
f 241/1/10 245/2/10 247/3/10 243/4/10
f 244/5/9 243/4/9 247/6/9 248/7/9
f 246/8/8 245/9/8 241/1/8 242/10/8
f 246/8/7 242/10/7 244/5/7 248/7/7
f 249/1/10 253/2/10 255/3/10 251/4/10
f 252/5/9 251/4/9 255/6/9 256/7/9
f 254/8/8 253/9/8 249/1/8 250/10/8
f 254/8/7 250/10/7 252/5/7 256/7/7
f 257/1/10 261/2/10 263/3/10 259/4/10
f 260/5/9 259/4/9 263/6/9 264/7/9
f 262/8/8 261/9/8 257/1/8 258/10/8
f 262/8/7 258/10/7 260/5/7 264/7/7
f 265/1/10 269/2/10 271/3/10 267/4/10
f 268/5/9 267/4/9 271/6/9 272/7/9
f 270/8/8 269/9/8 265/1/8 266/10/8
f 270/8/7 266/10/7 268/5/7 272/7/7
f 273/1/10 277/2/10 279/3/10 275/4/10
f 276/5/9 275/4/9 279/6/9 280/7/9
f 278/8/8 277/9/8 273/1/8 274/10/8
f 278/8/7 274/10/7 276/5/7 280/7/7
f 281/1/9 285/2/9 287/3/9 283/4/9
f 284/5/7 283/4/7 287/6/7 288/7/7
f 282/10/11 281/1/11 283/4/11 284/5/11
f 286/8/10 285/9/10 281/1/10 282/10/10
f 286/8/8 282/10/8 284/5/8 288/7/8
f 289/1/9 293/2/9 295/3/9 291/4/9
f 292/5/7 291/4/7 295/6/7 296/7/7
f 294/8/10 293/9/10 289/1/10 290/10/10
f 294/8/8 290/10/8 292/5/8 296/7/8
f 297/1/9 301/2/9 303/3/9 299/4/9
f 300/5/7 299/4/7 303/6/7 304/7/7
f 302/8/10 301/9/10 297/1/10 298/10/10
f 302/8/8 298/10/8 300/5/8 304/7/8
f 305/1/9 309/2/9 311/3/9 307/4/9
f 308/5/7 307/4/7 311/6/7 312/7/7
f 310/8/10 309/9/10 305/1/10 306/10/10
f 310/8/8 306/10/8 308/5/8 312/7/8
f 313/1/9 317/2/9 319/3/9 315/4/9
f 316/5/7 315/4/7 319/6/7 320/7/7
f 318/8/10 317/9/10 313/1/10 314/10/10
f 318/8/8 314/10/8 316/5/8 320/7/8
f 321/1/9 325/2/9 327/3/9 323/4/9
f 324/5/7 323/4/7 327/6/7 328/7/7
f 322/10/11 321/1/11 323/4/11 324/5/11
f 326/8/10 325/9/10 321/1/10 322/10/10
f 326/8/8 322/10/8 324/5/8 328/7/8
f 334/13/20 336/13/20 335/13/20 333/13/20
f 331/13/21 329/13/21 333/13/21 335/13/21
f 336/13/9 332/13/9 331/13/9 335/13/9
f 334/13/22 330/13/22 332/13/22 336/13/22
f 330/13/8 334/13/8 333/13/8 329/13/8
f 337/1/6 341/2/6 343/3/6 339/4/6
f 340/5/9 339/4/9 343/6/9 344/7/9
f 344/11/7 343/12/7 341/9/7 342/8/7
f 338/10/10 337/1/10 339/4/10 340/5/10
f 342/8/8 341/9/8 337/1/8 338/10/8
f 342/8/11 338/10/11 340/5/11 344/7/11
f 345/1/21 349/2/21 351/3/21 347/4/21
f 348/5/9 347/4/9 351/6/9 352/7/9
f 352/11/20 351/12/20 349/9/20 350/8/20
f 350/8/8 349/9/8 345/1/8 346/10/8
f 353/1/21 357/2/21 359/3/21 355/4/21
f 356/5/9 355/4/9 359/6/9 360/7/9
f 360/11/20 359/12/20 357/9/20 358/8/20
f 358/8/8 357/9/8 353/1/8 354/10/8
f 361/1/21 365/2/21 367/3/21 363/4/21
f 364/5/9 363/4/9 367/6/9 368/7/9
f 368/11/20 367/12/20 365/9/20 366/8/20
f 366/8/8 365/9/8 361/1/8 362/10/8
f 369/1/23 373/2/23 375/3/23 371/4/23
f 372/5/9 371/4/9 375/6/9 376/7/9
f 370/10/22 369/1/22 371/4/22 372/5/22
f 374/8/8 373/9/8 369/1/8 370/10/8
f 374/8/20 370/10/20 372/5/20 376/7/20
f 378/13/8 382/13/8 381/13/8 377/13/8
f 385/1/23 389/2/23 391/3/23 387/4/23
f 388/5/9 387/4/9 391/6/9 392/7/9
f 384/13/9 380/13/9 379/13/9 383/13/9
f 386/10/22 385/1/22 387/4/22 388/5/22
f 390/8/8 389/9/8 385/1/8 386/10/8
f 378/13/22 377/13/22 379/13/22 380/13/22
f 393/1/23 397/2/23 399/3/23 395/4/23
f 396/5/9 395/4/9 399/6/9 400/7/9
f 379/13/23 377/13/23 381/13/23 383/13/23
f 394/10/22 393/1/22 395/4/22 396/5/22
f 398/8/8 397/9/8 393/1/8 394/10/8
f 398/8/20 394/10/20 396/5/20 400/7/20
f 382/13/20 378/13/20 380/13/20 384/13/20
f 401/13/8 402/13/8 404/13/8 403/13/8
f 403/13/10 404/13/10 408/13/10 407/13/10
f 407/13/9 408/13/9 406/13/9 405/13/9
f 405/13/7 406/13/7 402/13/7 401/13/7
f 403/13/11 407/13/11 405/13/11 401/13/11
f 409/1/24 413/2/24 415/3/24 411/4/24
f 412/5/25 411/4/25 415/6/25 416/7/25
f 414/8/26 413/9/26 409/1/26 410/10/26
f 414/8/27 410/10/27 412/5/27 416/7/27
f 414/8/28 416/7/28 415/3/28 413/9/28
f 417/1/29 421/2/29 423/3/29 419/4/29
f 420/5/30 419/4/30 423/6/30 424/7/30
f 422/8/31 421/9/31 417/1/31 418/10/31
f 422/8/32 418/10/32 420/5/32 424/7/32
f 422/8/33 424/7/33 423/3/33 421/9/33
f 206/8/6 208/7/6 207/3/6 205/9/6
f 262/8/6 264/7/6 263/3/6 261/9/6
f 246/8/6 248/7/6 247/3/6 245/9/6
f 350/8/22 346/10/22 348/5/22 352/7/22
f 358/8/22 354/10/22 356/5/22 360/7/22
f 366/8/22 362/10/22 364/5/22 368/7/22
f 390/8/20 386/10/20 388/5/20 392/7/20
l 20 18
l 36 34
l 44 42
